<?xml version="1.0" standalone="no"?>
<!DOCTYPE svg PUBLIC "-//W3C//DTD SVG 20010904//EN"
 "http://www.w3.org/TR/2001/REC-SVG-20010904/DTD/svg10.dtd">
<svg version="1.0" xmlns="http://www.w3.org/2000/svg"
 width="1601.000000pt" height="1601.000000pt" viewBox="0 0 1601.000000 1601.000000"
 preserveAspectRatio="xMidYMid meet">
<metadata>
Created by potrace 1.14, written by Peter Selinger 2001-2017
</metadata>
<g transform="translate(0.000000,1601.000000) scale(0.100000,-0.100000)"
fill="#000000" stroke="none">
<path d="M7703 12794 c-157 -17 -184 -21 -303 -45 -98 -19 -315 -75 -330 -84
-3 -2 -17 -6 -31 -9 -60 -13 -269 -97 -429 -174 -475 -229 -924 -618 -1233
-1070 -238 -348 -429 -804 -496 -1187 -6 -33 -13 -71 -16 -85 -10 -50 -27
-187 -33 -270 -13 -165 -6 -556 12 -646 2 -12 7 -45 11 -75 25 -204 115 -543
189 -714 8 -16 31 -70 52 -120 115 -272 302 -565 519 -814 49 -58 245 -253
307 -306 312 -272 690 -488 1083 -620 91 -30 313 -90 365 -99 19 -3 71 -12
115 -20 78 -15 99 -18 235 -32 70 -7 162 -12 248 -13 l54 -1 -1596 -1596
c-878 -878 -1596 -1598 -1596 -1600 0 -2 1438 -4 3195 -4 l3195 0 0 53 c1 77
1 3011 0 3085 l0 62 -1497 0 c-823 0 -1494 2 -1492 4 2 2 38 7 79 10 41 3 109
10 150 17 41 6 91 13 110 16 19 2 85 16 145 29 433 97 836 279 1190 538 61 44
112 83 115 86 3 3 34 30 70 59 66 56 301 288 355 351 99 118 211 265 235 310
7 14 16 27 20 30 12 10 104 167 165 285 123 236 234 540 280 770 14 68 44 233
49 270 28 200 29 670 2 835 -3 14 -7 48 -11 75 -24 197 -110 502 -206 737 -60
145 -177 375 -230 450 -11 14 -19 29 -19 32 0 6 -81 127 -90 136 -3 3 -17 21
-30 40 -114 166 -395 462 -575 606 -381 305 -794 510 -1256 623 -115 28 -143
34 -224 47 -16 2 -41 6 -55 9 -14 2 -52 7 -85 11 -33 3 -69 8 -80 11 -48 11
-527 9 -632 -3z"/>
</g>
</svg>
