<?xml version="1.0" standalone="no"?>
<!DOCTYPE svg PUBLIC "-//W3C//DTD SVG 20010904//EN"
 "http://www.w3.org/TR/2001/REC-SVG-20010904/DTD/svg10.dtd">
<svg version="1.0" xmlns="http://www.w3.org/2000/svg"
 width="311.000000pt" height="311.000000pt" viewBox="0 0 311.000000 311.000000"
 preserveAspectRatio="xMidYMid meet">
<metadata>
Created by potrace 1.14, written by Peter Selinger 2001-2017
</metadata>
<g transform="translate(0.000000,311.000000) scale(0.100000,-0.100000)"
fill="#000000" stroke="none">
<path d="M188 2293 c-40 -25 -62 -72 -56 -119 4 -26 69 -149 193 -364 103
-179 197 -343 210 -365 12 -22 47 -83 77 -135 30 -52 126 -219 213 -370 86
-151 168 -291 181 -311 28 -41 61 -59 107 -59 71 0 91 26 309 410 11 19 110
190 220 380 111 190 211 363 223 385 13 22 46 78 73 125 28 47 63 109 78 138
l28 52 283 0 c156 0 283 -3 283 -7 0 -5 -8 -21 -18 -38 -10 -16 -30 -50 -44
-75 -14 -25 -49 -85 -78 -135 -53 -90 -108 -186 -360 -622 -74 -127 -138 -229
-141 -227 -6 3 -47 71 -84 139 -65 118 -90 161 -97 163 -4 2 -8 10 -8 18 0 28
-16 12 -55 -54 -21 -37 -54 -89 -72 -116 l-32 -50 38 -70 c201 -366 238 -416
311 -416 73 0 81 11 342 461 135 233 255 440 266 459 27 48 138 240 266 460
60 101 110 198 113 215 7 43 -20 101 -56 123 -29 18 -60 19 -497 19 -459 0
-466 0 -497 -21 -23 -16 -71 -89 -171 -261 -76 -132 -195 -338 -265 -458 -69
-120 -130 -226 -136 -235 -5 -10 -57 -100 -115 -200 -94 -165 -106 -182 -118
-165 -8 10 -77 128 -154 263 -77 135 -173 301 -213 370 -39 69 -83 145 -97
170 -14 25 -57 100 -96 168 -39 67 -65 122 -59 122 31 1 355 1 455 1 66 -1
112 -5 112 -11 0 -5 13 -31 29 -57 16 -27 40 -67 53 -89 12 -23 57 -100 98
-173 41 -72 78 -131 82 -131 9 0 150 230 146 239 -2 4 -59 105 -127 224 -103
178 -131 219 -157 232 -27 13 -101 15 -496 15 -415 -1 -466 -2 -490 -17z"/>
</g>
</svg>
