<?xml version="1.0" encoding="utf-8"?>
<!-- Generator: Adobe Illustrator 14.0.0, SVG Export Plug-In . SVG Version: 6.00 Build 43363)  -->
<!DOCTYPE svg PUBLIC "-//W3C//DTD SVG 1.1//EN" "http://www.w3.org/Graphics/SVG/1.1/DTD/svg11.dtd">
<svg version="1.1" id="Layer_1" xmlns="http://www.w3.org/2000/svg" xmlns:xlink="http://www.w3.org/1999/xlink" x="0px" y="0px"
	 width="200px" height="130px" viewBox="0 0 200 130" enable-background="new 0 0 200 130" xml:space="preserve">
<g>
	<path fill="#fff" d="M31.279,107.798h63.972c-8.899,6.739-19.975,10.737-31.983,10.737
		C51.26,118.535,40.184,114.543,31.279,107.798 M10.015,64.995c0-16.498,7.435-31.252,19.107-41.073v82.152
		C17.45,96.255,10.015,81.498,10.015,64.995 M63.268,11.457c12.304,0,23.613,4.21,32.633,11.248H30.634
		C39.649,15.662,50.975,11.457,63.268,11.457 M55.75,64.995l32.602,32.776H39.093V32.729h48.75L55.75,64.995z M69.848,64.995
		l41.261-41.476C99.51,9.998,82.367,1.432,63.222,1.432C28.313,1.432,0,29.892,0,64.995c0,35.114,28.313,63.574,63.222,63.574
		c19.145,0,36.288-8.571,47.887-22.087L69.848,64.995z"/>
	<polyline fill="#fff" points="141.548,78.273 141.548,97.771 120.388,97.771 120.388,32.729 141.548,32.729 141.548,51.842 
		151.52,51.842 151.52,22.567 110.301,22.567 110.301,107.798 151.52,107.798 151.52,78.273 	"/>
	<polyline fill="#fff" points="168.748,78.273 168.748,97.771 189.913,97.771 189.913,32.729 168.748,32.729 168.748,51.842 
		158.781,51.842 158.781,22.567 200,22.567 200,107.798 158.781,107.798 158.781,78.273 	"/>
</g>
</svg>
