<svg xmlns="http://www.w3.org/2000/svg" width="256" height="256" viewBox="0 0 256 256"><rect id="backgroundrect" width="100%" height="100%" x="0" y="0" fill="none" stroke="none"/><g class="currentLayer" style=""><title>Layer 1</title><rect fill="none" height="256" width="256" id="svg_1" class=""/><path d="M255.42888863747388,115.27001322802181 a33.989768981933594,33.989768981933594 0 0 0 -56.18933684825897,-25.704762792587278 c-17.84462871551514,-9.453404498100282 -39.08823432922363,-15.189178013801575 -61.28780219554901,-16.463794350624084 l5.5233374595642095,-33.140024757385255 l23.155530118942263,3.611412954330444 a25.704762792587278,25.704762792587278 0 1 0 2.655450701713562,-16.782448434829714 l-31.546754336357115,-4.886029291152954 a8.497442245483398,8.497442245483398 0 0 0 -9.665840554237365,7.0103898525238035 l-7.329043936729431,44.08048164844513 c-23.155530118942263,0.9559622526168826 -45.46131601333618,6.691735768318177 -64.04947092533111,16.570012378692628 a33.989768981933594,33.989768981933594 0 0 0 -45.2488799571991,50.665999388694765 A65.21786923408509,65.21786923408509 0 0 0 9.00306351845532,157.7572244554388 c0,23.261748147010803 12.746163368225098,45.03644390106201 36.0079115152359,61.075366139411926 S96.7391547030714,242.7316469102728 127.9672549552229,242.7316469102728 s60.65049402713776,-8.497442245483398 82.95627992153167,-23.899056315422058 S246.93144639199048,181.01897260244962 246.93144639199048,157.7572244554388 a63.837034869194035,63.837034869194035 0 0 0 -2.443014645576477,-17.419756603240966 A34.41464109420776,34.41464109420776 0 0 0 255.42888863747388,115.27001322802181 zM68.48515923683911,145.0110610872137 a16.994884490966797,16.994884490966797 0 1 1 16.994884490966797,16.994884490966797 A16.994884490966797,16.994884490966797 0 0 1 68.48515923683911,145.0110610872137 zm98.46411201953889,54.27741234302521 a85.08064048290252,85.08064048290252 0 0 1 -77.96403260231018,0 a8.497442245483398,8.497442245483398 0 0 1 7.7539160490036005,-15.082959985733032 a68.19197402000428,68.19197402000428 0 0 0 62.45620050430298,0 a8.497442245483398,8.497442245483398 0 0 1 7.7539160490036005,15.082959985733032 zM170.4544661826399,162.0059455781805 a16.994884490966797,16.994884490966797 0 1 1 16.994884490966797,-16.994884490966797 A16.994884490966797,16.994884490966797 0 0 1 170.4544661826399,162.0059455781805 z" id="svg_2" class=""/></g></svg>