<svg xmlns="http://www.w3.org/2000/svg" xmlns:xlink="http://www.w3.org/1999/xlink" enable-background="new 0 0 56.693 56.693" height="56.693" version="1.1" width="56.693" viewBox="0 0 56.693 56.693" xml:space="preserve" style=""><rect id="backgroundrect" width="100%" height="100%" x="0" y="0" fill="none" stroke="none"/><g class="currentLayer" style=""><title>Layer 1</title><path d="M56.237097716199926,11.546074939936759 c-2.058533540878892,0.9150300940958078 -4.2739293836027805,1.5322491513554652 -6.598446827610143,1.8084632046042621 c2.373394827915586,-1.4208541833785837 4.193224865986876,-3.67148720985026 5.051420792747541,-6.356333274762433 c-2.2199425761106992,1.3174159988286231 -4.677451971682298,2.273366693405734 -7.295233719139,2.7894209328088357 c-2.0949074079733845,-2.2324460929244307 -5.080974559761815,-3.6282932426755528 -8.385313048627049,-3.6282932426755528 c-6.3438297579487015,0 -11.487321901779174,5.143492143830474 -11.487321901779174,11.488458585125874 c0,0.899116527241967 0.10116481785655519,1.7754993875498783 0.2978110368361513,2.6177817474567027 c-9.548140112304083,-0.4796803723086113 -18.014157678547036,-5.052557476094243 -23.680524161860824,-12.003376141182276 c-0.9889145116314946,1.695931553280681 -1.5549828182895222,3.669213843156856 -1.5549828182895222,5.77662476794397 c0,3.9852118135402517 2.027843090517915,7.502110088238923 5.110528326776091,9.561780312464519 c-1.8823476221399482,-0.06024421737525201 -3.654436959649718,-0.5774351401250565 -5.203736361205726,-1.4379044335791271 c-0.0011366833467028672,0.04774070056152045 -0.0011366833467028672,0.09661808446974376 -0.0011366833467028672,0.14549546837796787 c0,5.565201665457236 3.9602047799127886,10.207416453391746 9.216228575066845,11.26453196582541 c-0.9639074780040316,0.2614371697416598 -1.9789657066096917,0.4023859047328163 -3.026987752269735,0.4023859047328163 c-0.7411175420502695,0 -1.4606381005131839,-0.07161105084228078 -2.161971725428853,-0.2068763690999219 c1.4629114672065897,4.563783637012011 5.705013717101689,7.88630905942449 10.731427476221768,7.978380410507423 c-3.9317876962452165,3.0815485529114732 -8.884317037829607,4.918428841183305 -14.267649367814386,4.918428841183305 c-0.9263969275628365,0 -1.8414270216586446,-0.054560800641737864 -2.7405435489006127,-0.16140903523180786 c5.085521293148627,3.2611445216905253 11.123583230834255,5.161679077377719 17.610635090467518,5.161679077377719 c21.132080098553,0 32.68646631778765,-17.50492353922415 32.68646631778765,-32.68646631778765 c0,-0.4978673058558575 -0.010230150120325816,-0.9945979283650085 -0.03182713370768031,-1.4879185008340534 C52.74975320851552,15.874565124181274 54.698028464764235,13.850132083703466 56.237097716199926,11.546074939936759 z" id="svg_1" class="selected"/></g></svg>