<?xml version="1.0" encoding="UTF-8" standalone="no"?>
<!DOCTYPE svg PUBLIC "-//W3C//DTD SVG 1.0//EN" "http://www.w3.org/TR/2001/PR-SVG-20010719/DTD/svg10.dtd">
<svg width="38cm" height="29cm" viewBox="45 44 753 577" xmlns="http://www.w3.org/2000/svg" xmlns:xlink="http://www.w3.org/1999/xlink">
  <g>
    <path style="fill: #ffffff" d="M 125.833 183.487 C 98.3334,182.446 45,204.298 52.5,251.122 C 59.9999,297.946 95.8334,308.351 110.833,294.825 C 125.833,281.298 87.5,360.378 160.833,381.189 C 234.166,402 271.666,368.703 260.833,344.77 C 250,320.838 325,400.959 360,355.176 C 395,309.392 324.167,265.689 339.167,271.933 C 354.167,278.176 400,269.852 385,191.811 C 370,113.77 235,174.122 250,162.676 C 265,151.23 227.5,94 180.834,105.446 C 134.167,116.892 130.857,137.662 125.857,183.446 L 125.833,183.487z"/>
    <path style="fill: none; fill-opacity:0; stroke-width: 2; stroke: #000000" d="M 125.833 183.487 C 98.3334,182.446 45,204.298 52.5,251.122 C 59.9999,297.946 95.8334,308.351 110.833,294.825 C 125.833,281.298 87.5,360.378 160.833,381.189 C 234.166,402 271.666,368.703 260.833,344.77 C 250,320.838 325,400.959 360,355.176 C 395,309.392 324.167,265.689 339.167,271.933 C 354.167,278.176 400,269.852 385,191.811 C 370,113.77 235,174.122 250,162.676 C 265,151.23 227.5,94 180.834,105.446 C 134.167,116.892 130.857,137.662 125.857,183.446 L 125.833,183.487"/>
    <text font-size="12.8" style="fill: #000000;text-anchor:middle;font-family:sans-serif;font-style:normal;font-weight:normal" x="232.016" y="254.761">
      <tspan x="232.016" y="254.761">Visitor network</tspan>
    </text>
  </g>
  <g>
    <ellipse style="fill: #ffffff" cx="479" cy="63" rx="6" ry="6"/>
    <ellipse style="fill: none; fill-opacity:0; stroke-width: 2; stroke: #000000" cx="479" cy="63" rx="6" ry="6"/>
    <line style="fill: none; fill-opacity:0; stroke-width: 2; stroke: #000000" x1="455" y1="75" x2="503" y2="75"/>
    <line style="fill: none; fill-opacity:0; stroke-width: 2; stroke: #000000" x1="479" y1="69" x2="479" y2="99"/>
    <line style="fill: none; fill-opacity:0; stroke-width: 2; stroke: #000000" x1="479" y1="99" x2="455" y2="125"/>
    <line style="fill: none; fill-opacity:0; stroke-width: 2; stroke: #000000" x1="479" y1="99" x2="503" y2="125"/>
    <text font-size="12.8" style="fill: #000000;text-anchor:middle;font-family:sans-serif;font-style:normal;font-weight:normal" x="479" y="146.331">
      <tspan x="479" y="146.331">You</tspan>
    </text>
  </g>
  <g>
    <path style="fill: #000077" d="M 405.826 67 C 405.538,67 405.304,67.2336 405.304,67.5217 L 405.304,106.478 C 405.304,106.766 405.538,107 405.826,107 L 422.174,107 C 422.462,107 422.695,106.766 422.695,106.478 L 422.695,67.5217 C 422.695,67.2336 422.462,67 422.174,67 L 405.826,67z"/>
    <path style="fill: none; fill-opacity:0; stroke-width: 2; stroke: #000000" d="M 405.826 67 C 405.538,67 405.304,67.2336 405.304,67.5217 L 405.304,106.478 C 405.304,106.766 405.538,107 405.826,107 L 422.174,107 C 422.462,107 422.695,106.766 422.695,106.478 L 422.695,67.5217 C 422.695,67.2336 422.462,67 422.174,67 L 405.826,67"/>
    <line style="fill: none; fill-opacity:0; stroke-width: 0.2; stroke: #000000" x1="410.521" y1="69.087" x2="410.521" y2="71.8696"/>
    <line style="fill: none; fill-opacity:0; stroke-width: 0.2; stroke: #000000" x1="412.261" y1="68.7391" x2="412.261" y2="72.2174"/>
    <line style="fill: none; fill-opacity:0; stroke-width: 0.2; stroke: #000000" x1="414" y1="68.7391" x2="414" y2="72.2174"/>
    <line style="fill: none; fill-opacity:0; stroke-width: 0.2; stroke: #000000" x1="415.739" y1="68.7391" x2="415.739" y2="72.2174"/>
    <line style="fill: none; fill-opacity:0; stroke-width: 0.2; stroke: #000000" x1="417.478" y1="69.087" x2="417.478" y2="71.8696"/>
    <path style="fill: #90ee90" d="M 407.565 73.9565 C 407.277,73.9565 407.043,74.1901 407.043,74.4783 L 407.043,80.3913 C 407.043,80.6795 407.277,80.913 407.565,80.913 L 420.434,80.913 C 420.723,80.913 420.956,80.6795 420.956,80.3913 L 420.956,74.4783 C 420.956,74.1901 420.723,73.9565 420.434,73.9565 L 407.565,73.9565z"/>
    <path style="fill: none; fill-opacity:0; stroke-width: 2; stroke: #000000" d="M 407.565 73.9565 C 407.277,73.9565 407.043,74.1901 407.043,74.4783 L 407.043,80.3913 C 407.043,80.6795 407.277,80.913 407.565,80.913 L 420.434,80.913 C 420.723,80.913 420.956,80.6795 420.956,80.3913 L 420.956,74.4783 C 420.956,74.1901 420.723,73.9565 420.434,73.9565 L 407.565,73.9565"/>
    <rect style="fill: #bfbfbf" x="407.043" y="82.6522" width="5.21739" height="1.73913"/>
    <rect style="fill: none; fill-opacity:0; stroke-width: 2; stroke: #000000" x="407.043" y="82.6522" width="5.21739" height="1.73913"/>
    <rect style="fill: #bfbfbf" x="415.739" y="82.6522" width="5.21739" height="1.73913"/>
    <rect style="fill: none; fill-opacity:0; stroke-width: 2; stroke: #000000" x="415.739" y="82.6522" width="5.21739" height="1.73913"/>
    <rect style="fill: #bfbfbf" x="407.043" y="86.1304" width="5.21739" height="1.73913"/>
    <rect style="fill: none; fill-opacity:0; stroke-width: 2; stroke: #000000" x="407.043" y="86.1304" width="5.21739" height="1.73913"/>
    <rect style="fill: #bfbfbf" x="415.739" y="86.1304" width="5.21739" height="1.73913"/>
    <rect style="fill: none; fill-opacity:0; stroke-width: 2; stroke: #000000" x="415.739" y="86.1304" width="5.21739" height="1.73913"/>
    <rect style="fill: #bfbfbf" x="407.043" y="89.6087" width="3.47826" height="1.73913"/>
    <rect style="fill: none; fill-opacity:0; stroke-width: 2; stroke: #000000" x="407.043" y="89.6087" width="3.47826" height="1.73913"/>
    <rect style="fill: #bfbfbf" x="412.261" y="89.6087" width="3.47826" height="1.73913"/>
    <rect style="fill: none; fill-opacity:0; stroke-width: 2; stroke: #000000" x="412.261" y="89.6087" width="3.47826" height="1.73913"/>
    <rect style="fill: #bfbfbf" x="417.478" y="89.6087" width="3.47826" height="1.73913"/>
    <rect style="fill: none; fill-opacity:0; stroke-width: 2; stroke: #000000" x="417.478" y="89.6087" width="3.47826" height="1.73913"/>
    <rect style="fill: #bfbfbf" x="407.043" y="93.087" width="3.47826" height="1.73913"/>
    <rect style="fill: none; fill-opacity:0; stroke-width: 2; stroke: #000000" x="407.043" y="93.087" width="3.47826" height="1.73913"/>
    <rect style="fill: #bfbfbf" x="412.261" y="93.087" width="3.47826" height="1.73913"/>
    <rect style="fill: none; fill-opacity:0; stroke-width: 2; stroke: #000000" x="412.261" y="93.087" width="3.47826" height="1.73913"/>
    <rect style="fill: #bfbfbf" x="417.478" y="93.087" width="3.47826" height="1.73913"/>
    <rect style="fill: none; fill-opacity:0; stroke-width: 2; stroke: #000000" x="417.478" y="93.087" width="3.47826" height="1.73913"/>
    <rect style="fill: #bfbfbf" x="407.043" y="96.5652" width="3.47826" height="1.73913"/>
    <rect style="fill: none; fill-opacity:0; stroke-width: 2; stroke: #000000" x="407.043" y="96.5652" width="3.47826" height="1.73913"/>
    <rect style="fill: #bfbfbf" x="412.261" y="96.5652" width="3.47826" height="1.73913"/>
    <rect style="fill: none; fill-opacity:0; stroke-width: 2; stroke: #000000" x="412.261" y="96.5652" width="3.47826" height="1.73913"/>
    <rect style="fill: #bfbfbf" x="417.478" y="96.5652" width="3.47826" height="1.73913"/>
    <rect style="fill: none; fill-opacity:0; stroke-width: 2; stroke: #000000" x="417.478" y="96.5652" width="3.47826" height="1.73913"/>
    <rect style="fill: #bfbfbf" x="407.043" y="100.043" width="3.47826" height="1.73913"/>
    <rect style="fill: none; fill-opacity:0; stroke-width: 2; stroke: #000000" x="407.043" y="100.043" width="3.47826" height="1.73913"/>
    <rect style="fill: #bfbfbf" x="412.261" y="100.043" width="3.47826" height="1.73913"/>
    <rect style="fill: none; fill-opacity:0; stroke-width: 2; stroke: #000000" x="412.261" y="100.043" width="3.47826" height="1.73913"/>
    <rect style="fill: #bfbfbf" x="417.478" y="100.043" width="3.47826" height="1.73913"/>
    <rect style="fill: none; fill-opacity:0; stroke-width: 2; stroke: #000000" x="417.478" y="100.043" width="3.47826" height="1.73913"/>
    <line style="fill: none; fill-opacity:0; stroke-width: 0.2; stroke: #000000" x1="410.521" y1="103.87" x2="410.521" y2="104.913"/>
    <line style="fill: none; fill-opacity:0; stroke-width: 0.2; stroke: #000000" x1="412.261" y1="103.522" x2="412.261" y2="105.261"/>
    <line style="fill: none; fill-opacity:0; stroke-width: 0.2; stroke: #000000" x1="414" y1="103.522" x2="414" y2="105.261"/>
    <line style="fill: none; fill-opacity:0; stroke-width: 0.2; stroke: #000000" x1="415.739" y1="103.522" x2="415.739" y2="105.261"/>
    <line style="fill: none; fill-opacity:0; stroke-width: 0.2; stroke: #000000" x1="417.478" y1="103.87" x2="417.478" y2="104.913"/>
  </g>
  <g>
    <polygon style="fill: #ffffff" points="253,103 257,103 257,129 253,129 "/>
    <polygon style="fill: none; fill-opacity:0; stroke-width: 2; stroke-linejoin: round; stroke: #000000" points="253,103 257,103 257,129 253,129 "/>
    <ellipse style="fill: #ffffff" cx="255" cy="189" rx="4" ry="2"/>
    <path style="fill: none; fill-opacity:0; stroke-width: 2; stroke-linejoin: round; stroke: #000000" d="M 251,189 A 4,2 0 1 0 259,189"/>
    <rect style="fill: #ffffff" x="251" y="109" width="8" height="80"/>
    <line style="fill: none; fill-opacity:0; stroke-width: 2; stroke-linejoin: round; stroke: #000000" x1="251" y1="109" x2="251" y2="189"/>
    <line style="fill: none; fill-opacity:0; stroke-width: 2; stroke-linejoin: round; stroke: #000000" x1="259" y1="109" x2="259" y2="189"/>
    <ellipse style="fill: #ffffff" cx="255" cy="109" rx="4" ry="2"/>
    <ellipse style="fill: none; fill-opacity:0; stroke-width: 2; stroke-linejoin: round; stroke: #000000" cx="255" cy="109" rx="4" ry="2"/>
    <polygon style="fill: #ffffff" points="257,109 261,105 261,125 257,129 "/>
    <polygon style="fill: none; fill-opacity:0; stroke-width: 2; stroke-linejoin: round; stroke: #000000" points="257,109 261,105 261,125 257,129 "/>
    <polygon style="fill: #ffffff" points="253,109 249,105 249,125 253,129 "/>
    <polygon style="fill: none; fill-opacity:0; stroke-width: 2; stroke-linejoin: round; stroke: #000000" points="253,109 249,105 249,125 253,129 "/>
    <text font-size="12.8" style="fill: #000000;text-anchor:middle;font-family:monospace;font-style:normal;font-weight:normal" x="255" y="200.718">
      <tspan x="255" y="200.718">Base Station</tspan>
    </text>
  </g>
  <g>
    <path style="fill: #ffffff" d="M 380.329 487.182 C 353.681,486.55 302,499.832 309.268,528.293 C 316.535,556.754 351.258,563.078 365.793,554.856 C 380.329,546.634 343.183,594.701 414.244,607.351 C 485.305,620 521.643,599.761 511.145,585.214 C 500.648,570.668 573.324,619.368 607.239,591.539 C 641.155,563.711 572.516,537.147 587.052,540.942 C 601.587,544.737 646,539.677 631.465,492.242 C 616.93,444.807 486.112,481.49 500.648,474.533 C 515.183,467.576 478.845,432.79 433.625,439.747 C 388.404,446.704 385.196,459.329 380.351,487.158 L 380.329,487.182z"/>
    <path style="fill: none; fill-opacity:0; stroke-width: 2; stroke: #000000" d="M 380.329 487.182 C 353.681,486.55 302,499.832 309.268,528.293 C 316.535,556.754 351.258,563.078 365.793,554.856 C 380.329,546.634 343.183,594.701 414.244,607.351 C 485.305,620 521.643,599.761 511.145,585.214 C 500.648,570.668 573.324,619.368 607.239,591.539 C 641.155,563.711 572.516,537.147 587.052,540.942 C 601.587,544.737 646,539.677 631.465,492.242 C 616.93,444.807 486.112,481.49 500.648,474.533 C 515.183,467.576 478.845,432.79 433.625,439.747 C 388.404,446.704 385.196,459.329 380.351,487.158 L 380.329,487.182"/>
    <text font-size="12.8" style="fill: #000000;text-anchor:middle;font-family:sans-serif;font-style:normal;font-weight:normal" x="483.221" y="531.026">
      <tspan x="483.221" y="531.026">Home network</tspan>
    </text>
  </g>
  <g>
    <rect style="fill: #b3b3b3" x="620.145" y="235.728" width="30.9868" height="72.3026"/>
    <rect style="fill: none; fill-opacity:0; stroke-width: 1.6; stroke: #000000" x="620.145" y="235.728" width="30.9868" height="72.3026"/>
    <rect style="fill: none; fill-opacity:0; stroke-width: 0.2; stroke: #000000" x="623.244" y="240.066" width="24.7895" height="8.26316"/>
    <rect style="fill: none; fill-opacity:0; stroke-width: 0.2; stroke: #000000" x="623.244" y="248.329" width="24.7895" height="8.26316"/>
    <rect style="fill: none; fill-opacity:0; stroke-width: 0.2; stroke: #000000" x="623.244" y="256.592" width="24.7895" height="8.26316"/>
    <rect style="fill: none; fill-opacity:0; stroke-width: 0.2; stroke: #000000" x="623.244" y="264.856" width="24.7895" height="8.26316"/>
    <rect style="fill: none; fill-opacity:0; stroke-width: 0.2; stroke: #000000" x="623.244" y="274.771" width="15.4934" height="4.95789"/>
    <ellipse style="fill: #00ff00" cx="646.484" cy="275.598" rx="1.08454" ry="1.08454"/>
    <ellipse style="fill: none; fill-opacity:0; stroke-width: 0.2; stroke: #000000" cx="646.484" cy="275.598" rx="1.08454" ry="1.08454"/>
    <ellipse style="fill: #ffff00" cx="646.484" cy="278.903" rx="1.08454" ry="1.08454"/>
    <ellipse style="fill: none; fill-opacity:0; stroke-width: 0.2; stroke: #000000" cx="646.484" cy="278.903" rx="1.08454" ry="1.08454"/>
    <rect style="fill: #ffffff" x="640.287" y="276.424" width="3.71842" height="3.30526"/>
    <rect style="fill: none; fill-opacity:0; stroke-width: 0.2; stroke: #000000" x="640.287" y="276.424" width="3.71842" height="3.30526"/>
    <path style="fill: none; fill-opacity:0; stroke-width: 0.2; stroke: #000000" d="M 625.31 286.34 L 625.31,304.416"/>
    <path style="fill: none; fill-opacity:0; stroke-width: 0.2; stroke: #000000" d="M 630.474 286.34 L 630.474,304.416"/>
    <path style="fill: none; fill-opacity:0; stroke-width: 0.2; stroke: #000000" d="M 635.639 286.34 L 635.639,304.416"/>
    <path style="fill: none; fill-opacity:0; stroke-width: 0.2; stroke: #000000" d="M 640.803 286.34 L 640.803,304.416"/>
    <path style="fill: none; fill-opacity:0; stroke-width: 0.2; stroke: #000000" d="M 645.968 286.34 L 645.968,304.416"/>
    <path style="fill: none; fill-opacity:0; stroke-width: 0.2; stroke: #000000" d="M 651.132 286.34 L 651.132,304.416"/>
    <polygon style="fill: #999999" points="613.948,314.228 620.145,301.833 620.145,308.031 651.132,308.031 651.132,301.833 659.395,314.228 "/>
    <polygon style="fill: none; fill-opacity:0; stroke-width: 0.2; stroke: #000000" points="613.948,314.228 620.145,301.833 620.145,308.031 651.132,308.031 651.132,301.833 659.395,314.228 "/>
    <text font-size="12.8" style="fill: #000000;text-anchor:middle;font-family:sans-serif;font-style:normal;font-weight:normal" x="636.672" y="325.625">
      <tspan x="636.672" y="325.625">OCS</tspan>
    </text>
  </g>
  <g>
    <rect style="fill: #b3b3b3" x="521.99" y="394.8" width="37.1411" height="86.6627"/>
    <rect style="fill: none; fill-opacity:0; stroke-width: 1.6; stroke: #000000" x="521.99" y="394.8" width="37.1411" height="86.6627"/>
    <rect style="fill: none; fill-opacity:0; stroke-width: 0.2; stroke: #000000" x="525.704" y="400" width="29.7129" height="9.90431"/>
    <rect style="fill: none; fill-opacity:0; stroke-width: 0.2; stroke: #000000" x="525.704" y="409.904" width="29.7129" height="9.90431"/>
    <rect style="fill: none; fill-opacity:0; stroke-width: 0.2; stroke: #000000" x="525.704" y="419.808" width="29.7129" height="9.90431"/>
    <rect style="fill: none; fill-opacity:0; stroke-width: 0.2; stroke: #000000" x="525.704" y="429.713" width="29.7129" height="9.90431"/>
    <rect style="fill: none; fill-opacity:0; stroke-width: 0.2; stroke: #000000" x="525.704" y="441.598" width="18.5706" height="5.94258"/>
    <ellipse style="fill: #00ff00" cx="553.56" cy="442.588" rx="1.29994" ry="1.29994"/>
    <ellipse style="fill: none; fill-opacity:0; stroke-width: 0.2; stroke: #000000" cx="553.56" cy="442.588" rx="1.29994" ry="1.29994"/>
    <ellipse style="fill: #ffff00" cx="553.56" cy="446.55" rx="1.29994" ry="1.29994"/>
    <ellipse style="fill: none; fill-opacity:0; stroke-width: 0.2; stroke: #000000" cx="553.56" cy="446.55" rx="1.29994" ry="1.29994"/>
    <rect style="fill: #ffffff" x="546.132" y="443.579" width="4.45694" height="3.96172"/>
    <rect style="fill: none; fill-opacity:0; stroke-width: 0.2; stroke: #000000" x="546.132" y="443.579" width="4.45694" height="3.96172"/>
    <path style="fill: none; fill-opacity:0; stroke-width: 0.2; stroke: #000000" d="M 528.18 455.464 L 528.18,477.13"/>
    <path style="fill: none; fill-opacity:0; stroke-width: 0.2; stroke: #000000" d="M 534.371 455.464 L 534.371,477.13"/>
    <path style="fill: none; fill-opacity:0; stroke-width: 0.2; stroke: #000000" d="M 540.561 455.464 L 540.561,477.13"/>
    <path style="fill: none; fill-opacity:0; stroke-width: 0.2; stroke: #000000" d="M 546.751 455.464 L 546.751,477.13"/>
    <path style="fill: none; fill-opacity:0; stroke-width: 0.2; stroke: #000000" d="M 552.941 455.464 L 552.941,477.13"/>
    <path style="fill: none; fill-opacity:0; stroke-width: 0.2; stroke: #000000" d="M 559.131 455.464 L 559.131,477.13"/>
    <polygon style="fill: #999999" points="514.562,488.891 521.99,474.034 521.99,481.463 559.131,481.463 559.131,474.034 569.036,488.891 "/>
    <polygon style="fill: none; fill-opacity:0; stroke-width: 0.2; stroke: #000000" points="514.562,488.891 521.99,474.034 521.99,481.463 559.131,481.463 559.131,474.034 569.036,488.891 "/>
    <text font-size="12.8" style="fill: #000000;text-anchor:middle;font-family:sans-serif;font-style:normal;font-weight:normal" x="541.799" y="500.698">
      <tspan x="541.799" y="500.698">DRA</tspan>
    </text>
  </g>
  <g>
    <rect style="fill: #b3b3b3" x="314.69" y="417.8" width="37.1411" height="86.6627"/>
    <rect style="fill: none; fill-opacity:0; stroke-width: 1.6; stroke: #000000" x="314.69" y="417.8" width="37.1411" height="86.6627"/>
    <rect style="fill: none; fill-opacity:0; stroke-width: 0.2; stroke: #000000" x="318.404" y="423" width="29.7129" height="9.90431"/>
    <rect style="fill: none; fill-opacity:0; stroke-width: 0.2; stroke: #000000" x="318.404" y="432.904" width="29.7129" height="9.90431"/>
    <rect style="fill: none; fill-opacity:0; stroke-width: 0.2; stroke: #000000" x="318.404" y="442.808" width="29.7129" height="9.90431"/>
    <rect style="fill: none; fill-opacity:0; stroke-width: 0.2; stroke: #000000" x="318.404" y="452.713" width="29.7129" height="9.90431"/>
    <rect style="fill: none; fill-opacity:0; stroke-width: 0.2; stroke: #000000" x="318.404" y="464.598" width="18.5706" height="5.94258"/>
    <ellipse style="fill: #00ff00" cx="346.26" cy="465.588" rx="1.29994" ry="1.29994"/>
    <ellipse style="fill: none; fill-opacity:0; stroke-width: 0.2; stroke: #000000" cx="346.26" cy="465.588" rx="1.29994" ry="1.29994"/>
    <ellipse style="fill: #ffff00" cx="346.26" cy="469.55" rx="1.29994" ry="1.29994"/>
    <ellipse style="fill: none; fill-opacity:0; stroke-width: 0.2; stroke: #000000" cx="346.26" cy="469.55" rx="1.29994" ry="1.29994"/>
    <rect style="fill: #ffffff" x="338.832" y="466.579" width="4.45694" height="3.96172"/>
    <rect style="fill: none; fill-opacity:0; stroke-width: 0.2; stroke: #000000" x="338.832" y="466.579" width="4.45694" height="3.96172"/>
    <path style="fill: none; fill-opacity:0; stroke-width: 0.2; stroke: #000000" d="M 320.88 478.464 L 320.88,500.13"/>
    <path style="fill: none; fill-opacity:0; stroke-width: 0.2; stroke: #000000" d="M 327.071 478.464 L 327.071,500.13"/>
    <path style="fill: none; fill-opacity:0; stroke-width: 0.2; stroke: #000000" d="M 333.261 478.464 L 333.261,500.13"/>
    <path style="fill: none; fill-opacity:0; stroke-width: 0.2; stroke: #000000" d="M 339.451 478.464 L 339.451,500.13"/>
    <path style="fill: none; fill-opacity:0; stroke-width: 0.2; stroke: #000000" d="M 345.641 478.464 L 345.641,500.13"/>
    <path style="fill: none; fill-opacity:0; stroke-width: 0.2; stroke: #000000" d="M 351.831 478.464 L 351.831,500.13"/>
    <polygon style="fill: #999999" points="307.262,511.891 314.69,497.034 314.69,504.463 351.831,504.463 351.831,497.034 361.736,511.891 "/>
    <polygon style="fill: none; fill-opacity:0; stroke-width: 0.2; stroke: #000000" points="307.262,511.891 314.69,497.034 314.69,504.463 351.831,504.463 351.831,497.034 361.736,511.891 "/>
    <text font-size="12.8" style="fill: #000000;text-anchor:middle;font-family:sans-serif;font-style:normal;font-weight:normal" x="334.499" y="523.698">
      <tspan x="334.499" y="523.698">STP</tspan>
    </text>
  </g>
  <g>
    <rect style="fill: #b3b3b3" x="124.39" y="319.8" width="37.1411" height="86.6627"/>
    <rect style="fill: none; fill-opacity:0; stroke-width: 1.6; stroke: #000000" x="124.39" y="319.8" width="37.1411" height="86.6627"/>
    <rect style="fill: none; fill-opacity:0; stroke-width: 0.2; stroke: #000000" x="128.104" y="325" width="29.7129" height="9.90431"/>
    <rect style="fill: none; fill-opacity:0; stroke-width: 0.2; stroke: #000000" x="128.104" y="334.904" width="29.7129" height="9.90431"/>
    <rect style="fill: none; fill-opacity:0; stroke-width: 0.2; stroke: #000000" x="128.104" y="344.808" width="29.7129" height="9.90431"/>
    <rect style="fill: none; fill-opacity:0; stroke-width: 0.2; stroke: #000000" x="128.104" y="354.713" width="29.7129" height="9.90431"/>
    <rect style="fill: none; fill-opacity:0; stroke-width: 0.2; stroke: #000000" x="128.104" y="366.598" width="18.5706" height="5.94258"/>
    <ellipse style="fill: #00ff00" cx="155.96" cy="367.588" rx="1.29994" ry="1.29994"/>
    <ellipse style="fill: none; fill-opacity:0; stroke-width: 0.2; stroke: #000000" cx="155.96" cy="367.588" rx="1.29994" ry="1.29994"/>
    <ellipse style="fill: #ffff00" cx="155.96" cy="371.55" rx="1.29994" ry="1.29994"/>
    <ellipse style="fill: none; fill-opacity:0; stroke-width: 0.2; stroke: #000000" cx="155.96" cy="371.55" rx="1.29994" ry="1.29994"/>
    <rect style="fill: #ffffff" x="148.532" y="368.579" width="4.45694" height="3.96172"/>
    <rect style="fill: none; fill-opacity:0; stroke-width: 0.2; stroke: #000000" x="148.532" y="368.579" width="4.45694" height="3.96172"/>
    <path style="fill: none; fill-opacity:0; stroke-width: 0.2; stroke: #000000" d="M 130.58 380.464 L 130.58,402.13"/>
    <path style="fill: none; fill-opacity:0; stroke-width: 0.2; stroke: #000000" d="M 136.77 380.464 L 136.77,402.13"/>
    <path style="fill: none; fill-opacity:0; stroke-width: 0.2; stroke: #000000" d="M 142.961 380.464 L 142.961,402.13"/>
    <path style="fill: none; fill-opacity:0; stroke-width: 0.2; stroke: #000000" d="M 149.151 380.464 L 149.151,402.13"/>
    <path style="fill: none; fill-opacity:0; stroke-width: 0.2; stroke: #000000" d="M 155.341 380.464 L 155.341,402.13"/>
    <path style="fill: none; fill-opacity:0; stroke-width: 0.2; stroke: #000000" d="M 161.531 380.464 L 161.531,402.13"/>
    <polygon style="fill: #999999" points="116.962,413.891 124.39,399.034 124.39,406.463 161.531,406.463 161.531,399.034 171.435,413.891 "/>
    <polygon style="fill: none; fill-opacity:0; stroke-width: 0.2; stroke: #000000" points="116.962,413.891 124.39,399.034 124.39,406.463 161.531,406.463 161.531,399.034 171.435,413.891 "/>
    <text font-size="12.8" style="fill: #000000;text-anchor:middle;font-family:sans-serif;font-style:normal;font-weight:normal" x="144.199" y="425.698">
      <tspan x="144.199" y="425.698">STP</tspan>
    </text>
  </g>
  <text font-size="12.8" style="fill: #000000;text-anchor:start;font-family:sans-serif;font-style:normal;font-weight:normal" x="636.672" y="274.978">
    <tspan x="636.672" y="274.978"></tspan>
  </text>
  <text font-size="12.8" style="fill: #000000;text-anchor:start;font-family:sans-serif;font-style:normal;font-weight:normal" x="474.258" y="525.71">
    <tspan x="474.258" y="525.71"></tspan>
  </text>
  <g>
    <line style="fill: none; fill-opacity:0; stroke-width: 2; stroke: #000000" x1="168" y1="415" x2="301.641" y2="453.317"/>
    <polygon style="fill: #000000" points="308.851,455.384 297.86,457.434 301.641,453.317 300.616,447.821 "/>
    <polygon style="fill: none; fill-opacity:0; stroke-width: 2; stroke: #000000" points="308.851,455.384 297.86,457.434 301.641,453.317 300.616,447.821 "/>
  </g>
  <g>
    <polygon style="fill: #000000" points="405.304,87 358.461,105.076 361.629,113.286 301.209,127.169 348.052,109.093 344.883,100.883 "/>
    <polygon style="fill: none; fill-opacity:0; stroke-width: 1.6; stroke: #000000" points="405.304,87 358.461,105.076 361.629,113.286 301.209,127.169 348.052,109.093 344.883,100.883 "/>
  </g>
  <g>
    <line style="fill: none; fill-opacity:0; stroke-width: 2; stroke: #000000" x1="541.798" y1="394.8" x2="606.563" y2="321.305"/>
    <polygon style="fill: #000000" points="611.522,315.678 608.662,326.486 606.563,321.305 601.159,319.875 "/>
    <polygon style="fill: none; fill-opacity:0; stroke-width: 2; stroke: #000000" points="611.522,315.678 608.662,326.486 606.563,321.305 601.159,319.875 "/>
  </g>
  <text font-size="12.8" style="fill: #000000;text-anchor:start;font-family:sans-serif;font-style:normal;font-weight:normal" x="192" y="451">
    <tspan x="192" y="451">CAMEL</tspan>
  </text>
  <g>
    <rect style="fill: #ffffff" x="735.7" y="286.335" width="43.075" height="38.0074"/>
    <ellipse style="fill: #ffffff" cx="757.237" cy="324.342" rx="21.5375" ry="6.33456"/>
    <ellipse style="fill: #ffffff" cx="757.237" cy="286.335" rx="21.5375" ry="6.33456"/>
    <ellipse style="fill: none; fill-opacity:0; stroke-width: 2; stroke: #000000" cx="757.237" cy="286.335" rx="21.5375" ry="6.33456"/>
    <path style="fill: none; fill-opacity:0; stroke-width: 2; stroke: #000000" d="M 778.775 286.335 L 778.775,324.342 C 778.775,327.84 769.132,330.676 757.237,330.676 C 745.343,330.676 735.7,327.84 735.7,324.342 L 735.7,286.335"/>
    <text font-size="12.8" style="fill: #000000;text-anchor:middle;font-family:sans-serif;font-style:normal;font-weight:normal" x="757.237" y="340.008">
      <tspan x="757.237" y="340.008">Subscriptions</tspan>
    </text>
  </g>
  <g>
    <rect style="fill: #ffffff" x="651.4" y="135.335" width="43.075" height="38.0074"/>
    <ellipse style="fill: #ffffff" cx="672.938" cy="173.342" rx="21.5375" ry="6.33456"/>
    <ellipse style="fill: #ffffff" cx="672.938" cy="135.335" rx="21.5375" ry="6.33456"/>
    <ellipse style="fill: none; fill-opacity:0; stroke-width: 2; stroke: #000000" cx="672.938" cy="135.335" rx="21.5375" ry="6.33456"/>
    <path style="fill: none; fill-opacity:0; stroke-width: 2; stroke: #000000" d="M 694.475 135.335 L 694.475,173.342 C 694.475,176.84 684.832,179.676 672.938,179.676 C 661.043,179.676 651.4,176.84 651.4,173.342 L 651.4,135.335"/>
    <text font-size="12.8" style="fill: #000000;text-anchor:middle;font-family:sans-serif;font-style:normal;font-weight:normal" x="672.938" y="189.008">
      <tspan x="672.938" y="189.008">Offerings</tspan>
    </text>
  </g>
  <g>
    <rect style="fill: #ffffff" x="741.1" y="186.335" width="43.075" height="38.0074"/>
    <ellipse style="fill: #ffffff" cx="762.638" cy="224.342" rx="21.5375" ry="6.33456"/>
    <ellipse style="fill: #ffffff" cx="762.638" cy="186.335" rx="21.5375" ry="6.33456"/>
    <ellipse style="fill: none; fill-opacity:0; stroke-width: 2; stroke: #000000" cx="762.638" cy="186.335" rx="21.5375" ry="6.33456"/>
    <path style="fill: none; fill-opacity:0; stroke-width: 2; stroke: #000000" d="M 784.175 186.335 L 784.175,224.342 C 784.175,227.84 774.532,230.676 762.638,230.676 C 750.743,230.676 741.1,227.84 741.1,224.342 L 741.1,186.335"/>
    <text font-size="12.8" style="fill: #000000;text-anchor:middle;font-family:sans-serif;font-style:normal;font-weight:normal" x="762.638" y="240.008">
      <tspan x="762.638" y="240.008">Usage</tspan>
    </text>
  </g>
  <line style="fill: none; fill-opacity:0; stroke-width: 2; stroke: #000000" x1="636" y1="230" x2="656" y2="198"/>
  <line style="fill: none; fill-opacity:0; stroke-width: 2; stroke: #000000" x1="653" y1="236" x2="734" y2="221"/>
  <line style="fill: none; fill-opacity:0; stroke-width: 2; stroke: #000000" x1="655" y1="263" x2="728" y2="296"/>
  <text font-size="12.8" style="fill: #000000;text-anchor:start;font-family:sans-serif;font-style:normal;font-weight:normal" x="582" y="369">
    <tspan x="582" y="369">Credit-Control</tspan>
  </text>
  <g>
    <rect style="fill: #b3b3b3" x="297.69" y="281.8" width="37.1411" height="86.6627"/>
    <rect style="fill: none; fill-opacity:0; stroke-width: 1.6; stroke: #000000" x="297.69" y="281.8" width="37.1411" height="86.6627"/>
    <rect style="fill: none; fill-opacity:0; stroke-width: 0.2; stroke: #000000" x="301.404" y="287" width="29.7129" height="9.90431"/>
    <rect style="fill: none; fill-opacity:0; stroke-width: 0.2; stroke: #000000" x="301.404" y="296.904" width="29.7129" height="9.90431"/>
    <rect style="fill: none; fill-opacity:0; stroke-width: 0.2; stroke: #000000" x="301.404" y="306.808" width="29.7129" height="9.90431"/>
    <rect style="fill: none; fill-opacity:0; stroke-width: 0.2; stroke: #000000" x="301.404" y="316.713" width="29.7129" height="9.90431"/>
    <rect style="fill: none; fill-opacity:0; stroke-width: 0.2; stroke: #000000" x="301.404" y="328.598" width="18.5706" height="5.94258"/>
    <ellipse style="fill: #00ff00" cx="329.26" cy="329.588" rx="1.29994" ry="1.29994"/>
    <ellipse style="fill: none; fill-opacity:0; stroke-width: 0.2; stroke: #000000" cx="329.26" cy="329.588" rx="1.29994" ry="1.29994"/>
    <ellipse style="fill: #ffff00" cx="329.26" cy="333.55" rx="1.29994" ry="1.29994"/>
    <ellipse style="fill: none; fill-opacity:0; stroke-width: 0.2; stroke: #000000" cx="329.26" cy="333.55" rx="1.29994" ry="1.29994"/>
    <rect style="fill: #ffffff" x="321.832" y="330.579" width="4.45694" height="3.96172"/>
    <rect style="fill: none; fill-opacity:0; stroke-width: 0.2; stroke: #000000" x="321.832" y="330.579" width="4.45694" height="3.96172"/>
    <path style="fill: none; fill-opacity:0; stroke-width: 0.2; stroke: #000000" d="M 303.88 342.464 L 303.88,364.13"/>
    <path style="fill: none; fill-opacity:0; stroke-width: 0.2; stroke: #000000" d="M 310.07 342.464 L 310.07,364.13"/>
    <path style="fill: none; fill-opacity:0; stroke-width: 0.2; stroke: #000000" d="M 316.261 342.464 L 316.261,364.13"/>
    <path style="fill: none; fill-opacity:0; stroke-width: 0.2; stroke: #000000" d="M 322.451 342.464 L 322.451,364.13"/>
    <path style="fill: none; fill-opacity:0; stroke-width: 0.2; stroke: #000000" d="M 328.641 342.464 L 328.641,364.13"/>
    <path style="fill: none; fill-opacity:0; stroke-width: 0.2; stroke: #000000" d="M 334.831 342.464 L 334.831,364.13"/>
    <polygon style="fill: #999999" points="290.262,375.891 297.69,361.034 297.69,368.463 334.831,368.463 334.831,361.034 344.735,375.891 "/>
    <polygon style="fill: none; fill-opacity:0; stroke-width: 0.2; stroke: #000000" points="290.262,375.891 297.69,361.034 297.69,368.463 334.831,368.463 334.831,361.034 344.735,375.891 "/>
    <text font-size="12.8" style="fill: #000000;text-anchor:middle;font-family:sans-serif;font-style:normal;font-weight:normal" x="317.499" y="387.698">
      <tspan x="317.499" y="387.698">DRA</tspan>
    </text>
  </g>
  <g>
    <rect style="fill: #b3b3b3" x="398.79" y="367.8" width="37.1411" height="86.6627"/>
    <rect style="fill: none; fill-opacity:0; stroke-width: 1.6; stroke: #000000" x="398.79" y="367.8" width="37.1411" height="86.6627"/>
    <rect style="fill: none; fill-opacity:0; stroke-width: 0.2; stroke: #000000" x="402.504" y="373" width="29.7129" height="9.90431"/>
    <rect style="fill: none; fill-opacity:0; stroke-width: 0.2; stroke: #000000" x="402.504" y="382.904" width="29.7129" height="9.90431"/>
    <rect style="fill: none; fill-opacity:0; stroke-width: 0.2; stroke: #000000" x="402.504" y="392.808" width="29.7129" height="9.90431"/>
    <rect style="fill: none; fill-opacity:0; stroke-width: 0.2; stroke: #000000" x="402.504" y="402.713" width="29.7129" height="9.90431"/>
    <rect style="fill: none; fill-opacity:0; stroke-width: 0.2; stroke: #000000" x="402.504" y="414.598" width="18.5706" height="5.94258"/>
    <ellipse style="fill: #00ff00" cx="430.36" cy="415.588" rx="1.29994" ry="1.29994"/>
    <ellipse style="fill: none; fill-opacity:0; stroke-width: 0.2; stroke: #000000" cx="430.36" cy="415.588" rx="1.29994" ry="1.29994"/>
    <ellipse style="fill: #ffff00" cx="430.36" cy="419.55" rx="1.29994" ry="1.29994"/>
    <ellipse style="fill: none; fill-opacity:0; stroke-width: 0.2; stroke: #000000" cx="430.36" cy="419.55" rx="1.29994" ry="1.29994"/>
    <rect style="fill: #ffffff" x="422.932" y="416.579" width="4.45694" height="3.96172"/>
    <rect style="fill: none; fill-opacity:0; stroke-width: 0.2; stroke: #000000" x="422.932" y="416.579" width="4.45694" height="3.96172"/>
    <path style="fill: none; fill-opacity:0; stroke-width: 0.2; stroke: #000000" d="M 404.98 428.464 L 404.98,450.13"/>
    <path style="fill: none; fill-opacity:0; stroke-width: 0.2; stroke: #000000" d="M 411.17 428.464 L 411.17,450.13"/>
    <path style="fill: none; fill-opacity:0; stroke-width: 0.2; stroke: #000000" d="M 417.361 428.464 L 417.361,450.13"/>
    <path style="fill: none; fill-opacity:0; stroke-width: 0.2; stroke: #000000" d="M 423.551 428.464 L 423.551,450.13"/>
    <path style="fill: none; fill-opacity:0; stroke-width: 0.2; stroke: #000000" d="M 429.741 428.464 L 429.741,450.13"/>
    <path style="fill: none; fill-opacity:0; stroke-width: 0.2; stroke: #000000" d="M 435.931 428.464 L 435.931,450.13"/>
    <polygon style="fill: #999999" points="391.362,461.891 398.79,447.034 398.79,454.463 435.931,454.463 435.931,447.034 445.835,461.891 "/>
    <polygon style="fill: none; fill-opacity:0; stroke-width: 0.2; stroke: #000000" points="391.362,461.891 398.79,447.034 398.79,454.463 435.931,454.463 435.931,447.034 445.835,461.891 "/>
    <text font-size="12.8" style="fill: #000000;text-anchor:middle;font-family:sans-serif;font-style:normal;font-weight:normal" x="418.599" y="473.698">
      <tspan x="418.599" y="473.698">DRA</tspan>
    </text>
  </g>
  <g>
    <line style="fill: none; fill-opacity:0; stroke-width: 2; stroke: #000000" x1="345" y1="377" x2="386.8" y2="403.752"/>
    <polygon style="fill: #000000" points="393.117,407.795 381.999,406.615 386.8,403.752 387.389,398.193 "/>
    <polygon style="fill: none; fill-opacity:0; stroke-width: 2; stroke: #000000" points="393.117,407.795 381.999,406.615 386.8,403.752 387.389,398.193 "/>
  </g>
</svg>
