<svg id="casestudy" xmlns="http://www.w3.org/2000/svg" width="278" height="201.488" viewBox="0 0 278 201.488">
  <path id="Path_145" data-name="Path 145" d="M169.29,0H2.987A2.975,2.975,0,0,0,0,2.987v98.254a2.975,2.975,0,0,0,2.987,2.987h166.3a2.975,2.975,0,0,0,2.987-2.987V2.987A2.975,2.975,0,0,0,169.29,0Zm2.324,101.242a2.309,2.309,0,0,1-2.324,2.324H2.987a2.309,2.309,0,0,1-2.324-2.324V2.987A2.309,2.309,0,0,1,2.987.664h166.3a2.309,2.309,0,0,1,2.324,2.324Z" fill="#3f3d56"/>
  <rect id="Rectangle_39" data-name="Rectangle 39" width="172" height="1" transform="translate(0 11)" fill="#3f3d56"/>
  <circle id="Ellipse_46" data-name="Ellipse 46" cx="1.66" cy="1.66" r="1.66" transform="translate(4.315 4.149)" fill="#ccc"/>
  <circle id="Ellipse_47" data-name="Ellipse 47" cx="1.66" cy="1.66" r="1.66" transform="translate(9.294 4.149)" fill="#ccc"/>
  <circle id="Ellipse_48" data-name="Ellipse 48" cx="1.66" cy="1.66" r="1.66" transform="translate(14.273 4.149)" fill="#ccc"/>
  <path id="Path_146" data-name="Path 146" d="M213.151,241.1h-80.33A2.819,2.819,0,0,1,130,238.277V148.321a2.819,2.819,0,0,1,2.821-2.821h80.33a2.819,2.819,0,0,1,2.821,2.821v89.956A2.819,2.819,0,0,1,213.151,241.1Z" transform="translate(-86.848 -97.203)" fill="#009197"/>
  <path id="Path_147" data-name="Path 147" d="M227.285,267.8H180.149a4.149,4.149,0,1,1,0-8.3h47.136a4.149,4.149,0,1,1,0,8.3Z" transform="translate(-117.579 -173.361)" fill="#fff"/>
  <path id="Path_148" data-name="Path 148" d="M227.285,314.3H180.149a4.149,4.149,0,1,1,0-8.3h47.136a4.149,4.149,0,1,1,0,8.3Z" transform="translate(-117.579 -204.426)" fill="#fff"/>
  <path id="Path_149" data-name="Path 149" d="M227.285,361.3H180.149a4.149,4.149,0,1,1,0-8.3h47.136a4.149,4.149,0,1,1,0,8.3Z" transform="translate(-117.579 -235.825)" fill="#fff"/>
  <path id="Path_150" data-name="Path 150" d="M241.906,206.3H223.649a4.149,4.149,0,1,1,0-8.3h18.257a4.149,4.149,0,1,1,0,8.3Z" transform="translate(-146.639 -132.276)" fill="#fff"/>
  <path id="Path_151" data-name="Path 151" d="M46.485,71H183.245a3.485,3.485,0,0,1,3.485,3.485h0a3.485,3.485,0,0,1-3.485,3.485H46.485A3.485,3.485,0,0,1,43,74.485h0A3.485,3.485,0,0,1,46.485,71Z" transform="translate(-28.727 -47.432)" fill="#ccc"/>
  <path id="Path_152" data-name="Path 152" d="M628.159,382.605a3.247,3.247,0,0,0,1.46-4.315l-.3-.5,7.5-41.493-7-.1-5.211,41.028a3.216,3.216,0,0,0-.365,4.548,3.135,3.135,0,0,0,3.917.83Z" transform="translate(-416.514 -224.602)" fill="#a0616a"/>
  <path id="Path_153" data-name="Path 153" d="M566.856,470.1,564.2,482.714l.332,28.215h4.979l2.324-27.551,3.651-11.618Z" transform="translate(-376.919 -314.055)" fill="#a0616a"/>
  <path id="Path_154" data-name="Path 154" d="M616.856,470.1,614.2,482.714l.332,28.215h4.979l2.324-27.551,3.651-11.618Z" transform="translate(-410.322 -314.055)" fill="#a0616a"/>
  <path id="Path_155" data-name="Path 155" d="M549.878,590.693l7.834.365h0L557.48,596h0l-12.78-.564h0A4.991,4.991,0,0,1,549.878,590.693Z" transform="translate(-363.892 -394.616)" fill="#2f2e41"/>
  <path id="Path_156" data-name="Path 156" d="M599.878,590.693l7.834.365h0L607.48,596h0l-12.78-.564h0A4.991,4.991,0,0,1,599.878,590.693Z" transform="translate(-397.295 -394.616)" fill="#2f2e41"/>
  <circle id="Ellipse_49" data-name="Ellipse 49" cx="8.166" cy="8.166" r="8.166" transform="translate(193.886 77.873)" fill="#a0616a"/>
  <path id="Path_157" data-name="Path 157" d="M603.676,300.943c-2.689-4.249-11.684-14.771-25-6.075,0,0,3.153,26.389-4.481,40.663,0,0,17.593,5.311,27.219.332,0,0-3.319-22.24,0-26.555a18.959,18.959,0,0,0,2.656-4.548A4.309,4.309,0,0,0,603.676,300.943Z" transform="translate(-383.6 -194.755)" fill="#ccc"/>
  <path id="Path_158" data-name="Path 158" d="M647.188,319.1l3.253,1.361a1.287,1.287,0,0,1,.763,1.1l.3,7.17-7.3-.664Z" transform="translate(-430.364 -213.178)" fill="#ccc"/>
  <path id="Path_159" data-name="Path 159" d="M565.85,422.1s-7.3,13.61-5.975,26.223l10.29,1.66,7.3-17.593-1.66,17.925,10.622.332s6.971-25.891,4.647-28.215Z" transform="translate(-373.922 -281.988)" fill="#2f2e41"/>
  <path id="Path_160" data-name="Path 160" d="M563.159,372.605a3.247,3.247,0,0,0,1.461-4.315l-.3-.5,7.5-41.493-7-.1-5.211,41.028a3.216,3.216,0,0,0-.365,4.548,3.135,3.135,0,0,0,3.917.83Z" transform="translate(-373.09 -217.921)" fill="#a0616a"/>
  <path id="Path_161" data-name="Path 161" d="M581.835,301.337l-2.987-.332s-2.656-.664-3.651,2.987-1,10.954-1,10.954l9.294-.332Z" transform="translate(-383.6 -201.058)" fill="#ccc"/>
  <path id="Path_162" data-name="Path 162" d="M593.985,239.868c.3-1.029.2-2.39-.764-2.788a3.838,3.838,0,0,0-1.626,0,4.463,4.463,0,0,1-3.021-.83,8.81,8.81,0,0,1-2.257-3.021l-.9-1.693a8,8,0,0,1-.5-1.1,4.366,4.366,0,0,1,1.162-4.348A6.3,6.3,0,0,1,590.4,224.4a11.1,11.1,0,0,1,4.614,1,20.54,20.54,0,0,1,6.871,4.614c1.261,1.295,2.423,2.987,2.158,4.813a7.054,7.054,0,0,1-2.191,3.552l-3.519,3.718a5.032,5.032,0,0,1-2.158,1.593,1.808,1.808,0,0,1-2.224-1A7.026,7.026,0,0,1,593.985,239.868Z" transform="translate(-390.638 -149.913)" fill="#2f2e41"/>
  <path id="Path_163" data-name="Path 163" d="M643.763,605.332a.314.314,0,0,1-.332.332h-95.6a.332.332,0,1,1,0-.664h95.6A.314.314,0,0,1,643.763,605.332Z" transform="translate(-365.763 -404.176)" fill="#3f3d56"/>
</svg>
