<svg xmlns="http://www.w3.org/2000/svg" xmlns:xlink="http://www.w3.org/1999/xlink" width="654" height="118.397" viewBox="0 0 654 118.397">
  <defs>
    <linearGradient id="linear-gradient" y1="0.5" x2="1.001" y2="0.5" gradientUnits="objectBoundingBox">
      <stop offset="0" stop-color="#009da5"/>
      <stop offset="1" stop-color="#2a4292"/>
    </linearGradient>
    <linearGradient id="linear-gradient-2" x1="0" y1="0.5" x2="1" y2="0.5" xlink:href="#linear-gradient"/>
  </defs>
  <g id="Group_41" data-name="Group 41" transform="translate(-845 -2323)">
    <text id="developer_portal" data-name="developer portal" transform="translate(989 2399)" fill="#009197" font-size="70" font-family="SegoeUI, Segoe UI"><tspan x="0" y="0">developer portal</tspan></text>
    <g id="corenetwork-farger" transform="translate(845 2324)">
      <path id="Path_8" data-name="Path 8" d="M253.406,417.621l-24.181-10.9a7.166,7.166,0,0,0-6.446.332l-40.228,23.24a7.027,7.027,0,0,0-3.541,6.114v15.577a7.083,7.083,0,1,0,14.138,0V440.5l33.56-19.367,16.6,7.5V471.35l-41.5,21.248a7.084,7.084,0,1,0,6.446,12.616l45.4-23.24a7.11,7.11,0,0,0,3.846-6.308v-51.6A7.055,7.055,0,0,0,253.406,417.621Z" transform="translate(-152.614 -388.595)" fill="url(#linear-gradient)"/>
      <path id="Path_9" data-name="Path 9" d="M248.256,469.558V453.982a7.083,7.083,0,1,0-14.166,0v11.482L200.53,484.83l-16.877-7.581V434.421l41.5-21.248a7.084,7.084,0,0,0-6.447-12.616L173.333,423.8a7.083,7.083,0,0,0-3.873,6.308v51.6a7.332,7.332,0,0,0,4.454,6.557l24.1,10.846a7.194,7.194,0,0,0,6.446-.332l40.228-23.24a7.055,7.055,0,0,0,3.569-5.976Z" transform="translate(-169.46 -399.779)" fill="url(#linear-gradient-2)"/>
    </g>
  </g>
</svg>
