<svg xmlns="http://www.w3.org/2000/svg" width="641.924" height="266.806" viewBox="0 0 641.924 266.806">
  <g id="undraw_code_thinking_1jeh" transform="translate(-0.087)">
    <path id="Path_164" data-name="Path 164" d="M67.51,389.808,52.8,388.8l4.864,22.125,16.727-6.881Z" transform="translate(-21.446 -158.18)" fill="#ffb9b9"/>
    <path id="Path_165" data-name="Path 165" d="M241.47,298.095,207.126,264.7l-19.634,15.244L148.7,326.566l4.449,6.881,47.1-31.912,31.912,41.7,30.429-15.185Z" transform="translate(-60.462 -107.691)" fill="#2f2e41"/>
    <path id="Path_166" data-name="Path 166" d="M241.47,298.095,207.126,264.7l-19.634,15.244L148.7,326.566l4.449,6.881,47.1-31.912,31.912,41.7,30.429-15.185Z" transform="translate(-60.462 -107.691)" opacity="0.1"/>
    <path id="Path_167" data-name="Path 167" d="M265.347,343.055l-4.389,3.44-35.827-12.278-8.364-3.44-16.668,3.44s0-13.761,15.719-13.227l16.193,3.915,19.159,1.483Z" transform="translate(-81.373 -130.586)" fill="#ffb9b9"/>
    <path id="Path_168" data-name="Path 168" d="M245.694,383.128l-10.8,6.821H222.145L162.77,367.884,75.932,383.6,73.5,364.918,152.983,330.1l69.7,23.074Z" transform="translate(-29.867 -134.298)" fill="#2f2e41"/>
    <path id="Path_169" data-name="Path 169" d="M238.607,239.66l-7.355,1.483-1.6-1.9a9.935,9.935,0,0,1-1.364-10.914h0l20.583-26.989s5.872-13.227,15.185-7.83-7.83,14.236-7.83,14.236L245.9,223.941l1.008,8.364Z" transform="translate(-92.417 -78.202)" fill="#ffb9b9"/>
    <circle id="Ellipse_50" data-name="Ellipse 50" cx="19.159" cy="19.159" r="19.159" transform="translate(173.653 91.287)" fill="#ffb9b9"/>
    <path id="Path_170" data-name="Path 170" d="M310.5,206.3l8.838,21.116,21.116-8.838s-6.881-16.668-6.881-17.2S310.5,206.3,310.5,206.3Z" transform="translate(-126.289 -81.913)" fill="#ffb9b9"/>
    <path id="Path_171" data-name="Path 171" d="M340.783,278.222a110.094,110.094,0,0,1-5.4,33.988l-1.424,4.389-6.881,31.378-7.355,1.957-5.4-6.881-10.8-7.83-7.83-12.753-6.762-11.211-2.076-3.5-7.355-36.776-28-15.719-9.313-1.483,1.957-5.4,8.364-11.27,8.364-1.008,2.432-1.957,1.957,1.008,7.83-4.389,2.432,1.008,14.354,1.364,8.719-1.839,12.516-6.7,5.16.83,17.676,14.71A109.453,109.453,0,0,1,340.783,278.222Z" transform="translate(-98.501 -91.377)" fill="#575a89"/>
    <path id="Path_172" data-name="Path 172" d="M35.862,383.722s4.389-7.474,2.551-8.3c-1.839-.89-9.728-4.33-9.728-4.33l-11.567-3.856S.451,342.438.095,363.97s12.16,26.751,12.16,26.751,11.151,24.023,17.5,20.167,12.634-16.846,12.634-16.846S30.939,387.993,35.862,383.722Z" transform="translate(0 -144.502)" fill="#2f2e41"/>
    <path id="Path_173" data-name="Path 173" d="M362.052,291.648l-18.625,12.219-27.819,25.15-2.135-3.559L307.6,296.038h1.483L324.268,268.1Z" transform="translate(-125.109 -109.074)" opacity="0.1"/>
    <path id="Path_174" data-name="Path 174" d="M313.812,263.1l-15.185,27.938h-5.4l-3.44,9.846-7.889,1.957,21.116,23.074,29.954-26.989L351.6,286.648Z" transform="translate(-114.653 -107.04)" fill="#575a89"/>
    <path id="Path_175" data-name="Path 175" d="M295.343,151.875l-2.076.771a2.925,2.925,0,0,1-.771-4.033.058.058,0,0,1,.059-.059l-3.856-.178a28.95,28.95,0,0,1,40.513-5.754,33.4,33.4,0,0,1,2.669,2.254c.178-.593,2.076.593,2.847,1.779.237-.949,2.017,3.737,2.669,7.118.3-1.127,1.424.712.415,2.432.652-.119.89,1.483.415,2.373.652-.3.593,1.6-.178,2.847.949-.059-7.652,13.346-11.151,21.176-1.008-4.686-2.135-9.609-5.457-13.049a23.567,23.567,0,0,0-1.78-1.661l-3.322-2.906c-3.856-3.381-7.3-7.533-12.4-8.838-3.5-.89-5.754-1.068-3.8-5.042-1.72.712-3.322,1.779-5.1,2.432A16.265,16.265,0,0,0,295.343,151.875Z" transform="translate(-117.42 -55.664)" fill="#2f2e41"/>
    <circle id="Ellipse_51" data-name="Ellipse 51" cx="3.44" cy="3.44" r="3.44" transform="translate(198.922 109.2)" fill="#ffb9b9"/>
    <rect id="Rectangle_40" data-name="Rectangle 40" width="16.608" height="16.608" transform="translate(105.855 35.412)" fill="#009197"/>
    <path id="Path_176" data-name="Path 176" d="M209.567,57.867H189.4V37.7h20.167Zm-19.278-.89h18.388V38.59H190.29Z" transform="translate(-77.02 -15.338)" fill="#3f3d56"/>
    <rect id="Rectangle_41" data-name="Rectangle 41" width="16.608" height="16.608" transform="translate(27.743 91.342) rotate(-15.938)" fill="#009197"/>
    <path id="Path_177" data-name="Path 177" d="M70.716,175.713l-5.516-19.4L84.6,150.8l5.516,19.4Zm-4.449-18.8,5.042,17.735L89.045,169.6,84,151.868Z" transform="translate(-26.49 -61.352)" fill="#3f3d56"/>
    <rect id="Rectangle_42" data-name="Rectangle 42" width="16.608" height="16.608" transform="matrix(0.683, -0.731, 0.731, 0.683, 32.02, 17.006)" fill="#009197"/>
    <path id="Path_178" data-name="Path 178" d="M54,41.91,67.761,27.2l14.71,13.761L68.71,55.672ZM67.821,28.446,55.246,41.851,68.71,54.426,81.285,40.961Z" transform="translate(-21.934 -11.066)" fill="#3f3d56"/>
    <path id="Path_179" data-name="Path 179" d="M758.905,3.2H604.625V0H534.632V3.2H379.64a10.455,10.455,0,0,0-10.44,10.44h0V224.985a10.455,10.455,0,0,0,10.44,10.44H758.905a10.455,10.455,0,0,0,10.44-10.44V13.643A10.38,10.38,0,0,0,758.905,3.2Z" transform="translate(-150.17)" fill="#3f3d56"/>
    <rect id="Rectangle_43" data-name="Rectangle 43" width="372.148" height="209.919" transform="translate(233.028 21.65)" fill="#009197"/>
    <circle id="Ellipse_52" data-name="Ellipse 52" cx="3.796" cy="3.796" r="3.796" transform="translate(415.009 8.304)" fill="#009197"/>
    <path id="Path_180" data-name="Path 180" d="M658.535,246.419H392.8V36.5Z" transform="translate(-159.772 -14.85)" opacity="0.1"/>
    <circle id="Ellipse_53" data-name="Ellipse 53" cx="35.767" cy="35.767" r="35.767" transform="translate(255.509 144.315)" fill="#f2f2f2"/>
    <path id="Path_181" data-name="Path 181" d="M473.887,287.874a44.487,44.487,0,1,1,44.487-44.487A44.5,44.5,0,0,1,473.887,287.874Zm0-88.381a43.894,43.894,0,1,0,43.894,43.894,43.87,43.87,0,0,0-43.894-43.894Z" transform="translate(-174.662 -80.921)" fill="#3f3d56"/>
    <rect id="Rectangle_44" data-name="Rectangle 44" width="34.759" height="7.237" transform="translate(505.644 134.825)" fill="#3f3d56"/>
    <rect id="Rectangle_45" data-name="Rectangle 45" width="118.81" height="3.084" transform="translate(463.589 78.297)" fill="#3f3d56"/>
    <rect id="Rectangle_46" data-name="Rectangle 46" width="118.81" height="3.084" transform="translate(463.589 88.143)" fill="#3f3d56"/>
    <rect id="Rectangle_47" data-name="Rectangle 47" width="118.81" height="3.084" transform="translate(463.589 97.99)" fill="#3f3d56"/>
    <rect id="Rectangle_48" data-name="Rectangle 48" width="118.81" height="3.084" transform="translate(463.589 107.836)" fill="#3f3d56"/>
    <rect id="Rectangle_49" data-name="Rectangle 49" width="118.81" height="3.084" transform="translate(463.589 117.742)" fill="#3f3d56"/>
    <rect id="Rectangle_50" data-name="Rectangle 50" width="14.532" height="14.532" transform="translate(567.925 25.862)" fill="#f2f2f2"/>
    <path id="Path_182" data-name="Path 182" d="M981.117,67.417H963.5V49.8h17.617Zm-16.846-.771h16.134V50.571H964.271Z" transform="translate(-391.956 -20.261)" fill="#3f3d56"/>
    <path id="Path_183" data-name="Path 183" d="M768.84,381.744h-36.3v-2.61a.532.532,0,0,0-.534-.534H719.549a.532.532,0,0,0-.534.534h0v2.61h-7.77v-2.61a.532.532,0,0,0-.534-.534H698.254a.532.532,0,0,0-.534.534h0v2.61h-7.77v-2.61a.532.532,0,0,0-.534-.534H676.96a.532.532,0,0,0-.534.534h0v2.61h-7.77v-2.61a.532.532,0,0,0-.534-.534H655.666a.532.532,0,0,0-.534.534h0v2.61h-7.77v-2.61a.532.532,0,0,0-.534-.534H634.371a.532.532,0,0,0-.534.534h0v2.61h-7.77v-2.61a.532.532,0,0,0-.534-.534H613.077a.532.532,0,0,0-.534.534h0v2.61h-7.652v-2.61a.532.532,0,0,0-.534-.534H506.842a.532.532,0,0,0-.534.534h0v2.61h-7.77v-2.61A.532.532,0,0,0,498,378.6H485.548a.532.532,0,0,0-.534.534h0v2.61h-7.77v-2.61a.532.532,0,0,0-.534-.534H464.253a.532.532,0,0,0-.534.534h0v2.61h-7.711v-2.61a.532.532,0,0,0-.534-.534H443.018a.532.532,0,0,0-.534.534h0v2.61h-7.77v-2.61a.532.532,0,0,0-.534-.534H421.724a.532.532,0,0,0-.534.534h0v2.61h-7.77v-2.61a.532.532,0,0,0-.534-.534H400.43a.532.532,0,0,0-.534.534h0v2.61h-7.77v-2.61a.532.532,0,0,0-.534-.534H379.135a.532.532,0,0,0-.534.534h0v2.61H354.756A12.455,12.455,0,0,0,342.3,394.2v5.635a12.455,12.455,0,0,0,12.456,12.456H768.781a12.455,12.455,0,0,0,12.456-12.456V394.2A12.367,12.367,0,0,0,768.84,381.744Z" transform="translate(-139.226 -154.03)" fill="#3f3d56"/>
  </g>
</svg>
