<svg xmlns="http://www.w3.org/2000/svg" width="163.721" height="34.082" viewBox="0 0 163.721 34.082"><defs><style>.a{fill:#fff;}.b{fill:none;}</style></defs><path class="a" d="M262.505,405a2.408,2.408,0,0,0-2.1-1.209H243.591a2.408,2.408,0,0,0-2.1,1.209l-14.748,25.549-12.59-21.982h11.231l5.266,9.2,2.888-4.7L228.893,405a2.4,2.4,0,0,0-2.1-1.219H210a2.418,2.418,0,0,0-2.1,3.627l16.756,29.236a2.4,2.4,0,0,0,2.088,1.219h0a2.438,2.438,0,0,0,2.1-1.209L245,408.676h11.221l-12.67,21.912-3.927-6.854-2.888,4.706,4.706,8.2a2.418,2.418,0,0,0,2.088,1.219h0a2.438,2.438,0,0,0,2.1-1.209l16.876-29.186A2.428,2.428,0,0,0,262.505,405Z" transform="translate(-207.576 -403.78)"/><path class="b" d="M235.22,429.89" transform="translate(-207.598 -403.801)"/><path class="a" d="M280.86,414.72l.38-.52h2.838l2.578,12.26H287l3.1-12.26h3.9l3.1,12.26h.29l2.578-12.26h2.838l.38.52-3.247,14.7H294.8L291.991,418l-2.758,11.421h-5.126Z" transform="translate(-207.635 -403.788)"/><path class="a" d="M305.68,424.841v-6.065q0-4.566,4.586-4.576h8.343v16.437q0,4.576-4.576,4.576h-5.565L307,434.084v-1.829h6.924a1.179,1.179,0,0,0,1.339-1.329v-1.509h-5Q305.68,429.418,305.68,424.841Zm3.4.29a1.169,1.169,0,0,0,1.329,1.329h4.816v-9.332h-4.816a1.189,1.189,0,0,0-1.329,1.359Z" transform="translate(-207.655 -403.788)"/><path class="a" d="M322.76,424.837V409.42h3.4V414.2h5.156v2.928h-5.156v7.994a1.169,1.169,0,0,0,1.329,1.329H331.6v1.828l-1.509,1.129h-2.748Q322.76,429.414,322.76,424.837Z" transform="translate(-207.669 -403.785)"/><path class="a" d="M333.32,414.72l.38-.52h2.838l2.578,12.26h.29l3.1-12.26h3.917l3.1,12.26h.29l2.578-12.26h2.838l.38.52-3.247,14.7h-5.126L344.451,418l-2.758,11.421h-5.126Z" transform="translate(-207.678 -403.788)"/><path class="a" d="M358.23,424.841v-6.065q0-4.566,4.576-4.576h4.057q4.556,0,4.556,4.576v6.065q0,4.566-4.556,4.576h-4.057Q358.24,429.418,358.23,424.841Zm3.387.29a1.179,1.179,0,0,0,1.339,1.329h3.737a1.189,1.189,0,0,0,1.359-1.329v-6.645a1.2,1.2,0,0,0-1.359-1.359H363a1.2,1.2,0,0,0-1.339,1.359Z" transform="translate(-207.698 -403.788)"/></svg>