<svg xmlns="http://www.w3.org/2000/svg" xmlns:xlink="http://www.w3.org/1999/xlink" width="261" height="54.333" viewBox="0 0 261 54.333"><defs><style>.a{fill:url(#a);}.b{fill:none;stroke:#707070;stroke-linecap:round;stroke-linejoin:round;stroke-width:5.5px;}.c{fill:#221f20;}</style><linearGradient id="a" y1="0.499" x2="1" y2="0.499" gradientUnits="objectBoundingBox"><stop offset="0" stop-color="#009da5"/><stop offset="1" stop-color="#2a4292"/></linearGradient></defs><g transform="translate(-0.016 -0.02)"><path class="a" d="M295.143,405.723A3.839,3.839,0,0,0,291.8,403.8H264.99a3.839,3.839,0,0,0-3.345,1.927l-23.511,40.73-20.07-35.043h17.9l8.395,14.67,4.6-7.487-7.407-12.87a3.823,3.823,0,0,0-3.345-1.943H211.437a3.855,3.855,0,0,0-3.345,5.782L234.8,456.17a3.823,3.823,0,0,0,3.329,1.943h0a3.886,3.886,0,0,0,3.345-1.927l25.757-44.6h17.888l-20.2,34.932-6.26-10.927-4.6,7.5,7.5,13.078a3.855,3.855,0,0,0,3.329,1.943h0a3.886,3.886,0,0,0,3.345-1.927l26.9-46.528a3.871,3.871,0,0,0,0-3.935Z" transform="translate(-207.56 -403.76)"/><path class="b" d="M235.22,429.89" transform="translate(-191.17 -388.28)"/><path class="c" d="M280.86,415.028l.605-.828h4.524l4.11,19.545h.542l4.938-19.545h6.212l4.938,19.545h.462L311.3,414.2h4.524l.605.828-5.177,23.431h-8.171L298.6,420.253l-4.4,18.207h-8.171Z" transform="translate(-164.111 -397.582)"/><path class="c" d="M305.68,431.164V421.5q0-7.279,7.311-7.3h13.3v26.2q0,7.3-7.3,7.3h-8.872l-2.342-1.8v-2.915h11.039a1.88,1.88,0,0,0,2.134-2.118V438.46h-7.964Q305.68,438.46,305.68,431.164Zm5.416.462a1.864,1.864,0,0,0,2.118,2.119h7.678V418.867h-7.678a1.9,1.9,0,0,0-2.118,2.166Z" transform="translate(-149.396 -397.582)"/><path class="c" d="M322.76,434V409.42h5.416v7.614H336.4V421.7h-8.219v12.743a1.864,1.864,0,0,0,2.118,2.119h6.563v2.915l-2.405,1.8h-4.38Q322.76,441.293,322.76,434Z" transform="translate(-139.27 -400.416)"/><path class="c" d="M333.32,415.028l.605-.828h4.524l4.11,19.545h.462l4.938-19.545H354.2l4.938,19.545h.462l4.11-19.545h4.524l.605.828-5.177,23.431h-8.172l-4.428-18.207-4.4,18.207H338.5Z" transform="translate(-133.009 -397.582)"/><path class="c" d="M358.23,431.164V421.5q0-7.279,7.3-7.3h6.467q7.264,0,7.264,7.3v9.669q0,7.279-7.264,7.3h-6.467Q358.246,438.46,358.23,431.164Zm5.4.462a1.879,1.879,0,0,0,2.134,2.118h5.957a1.9,1.9,0,0,0,2.166-2.119V421.034a1.911,1.911,0,0,0-2.166-2.166h-5.894a1.912,1.912,0,0,0-2.135,2.166Z" transform="translate(-118.24 -397.582)"/></g></svg>