<svg xmlns="http://www.w3.org/2000/svg" xmlns:xlink="http://www.w3.org/1999/xlink" width="938.412" height="116.83" viewBox="0 0 938.412 116.83"><defs><style>.a{fill:url(#a);}.b{fill:url(#b);}.c{fill:#009da5;}</style><linearGradient id="a" x1="-0.004" y1="0.5" x2="0.993" y2="0.5" gradientUnits="objectBoundingBox"><stop offset="0" stop-color="#009da5"/><stop offset="1" stop-color="#2a4292"/></linearGradient><linearGradient id="b" x1="0.003" y1="0.496" x2="1.001" y2="0.496" xlink:href="#a"/></defs><g transform="translate(-169.4 -399.883)"><g transform="translate(169.4 399.883)"><path class="a" d="M253.265,417.571l-24.076-10.793a7.353,7.353,0,0,0-6.365.277L182.7,430.3a7.212,7.212,0,0,0-3.6,6.088v15.5a7.2,7.2,0,0,0,14.39,0V440.263l33.485-19.371,16.6,7.472v42.617l-41.51,21.309a6.726,6.726,0,0,0-3.044,9.409,7.034,7.034,0,0,0,6.365,3.874,7.37,7.37,0,0,0,3.321-.83L254.1,481.5a6.748,6.748,0,0,0,3.874-6.365v-51.75A8.865,8.865,0,0,0,253.265,417.571Z" transform="translate(-152.257 -388.743)"/><path class="b" d="M248.27,469.114v-15.5a7.2,7.2,0,0,0-14.39,0V465.24l-33.485,19.371-16.881-7.472V434.522l41.51-21.309a6.993,6.993,0,0,0-6.365-12.453l-45.385,23.246a6.748,6.748,0,0,0-3.874,6.365v51.75a7.657,7.657,0,0,0,4.428,6.642L197.9,499.555a4.989,4.989,0,0,0,2.767.554,8.523,8.523,0,0,0,3.6-.83L244.4,476.032C247.163,474.1,248.27,471.881,248.27,469.114Z" transform="translate(-169.4 -399.883)"/></g><g transform="translate(355.643 422.622)"><path class="c" d="M236.7,456.287V414.5h47.322c8.025,0,11.9,4.151,11.9,12.176v29.611h-6.365V425.846c0-3.874-1.937-5.535-5.535-5.535h-14.39v35.976h-6.365V420.311h-20.2v35.976Z" transform="translate(-236.7 -396.789)"/><path class="c" d="M262.5,444.388V426.676c0-8.025,4.151-12.176,12.176-12.176h11.346c8.025,0,12.176,4.151,12.176,12.176v17.711c0,8.025-4.151,11.9-12.176,11.9H274.676C266.374,456.287,262.5,452.413,262.5,444.388Zm6.365.553c0,3.874,1.937,5.535,5.535,5.535h11.346c3.874,0,5.535-1.937,5.535-5.535V425.569c0-3.874-1.937-5.535-5.535-5.535H274.4c-3.874,0-5.535,1.937-5.535,5.535Z" transform="translate(-191.102 -396.789)"/><path class="c" d="M279.6,467.6V408.1h6.365v17.711h16.051c8.025,0,12.176,4.151,12.176,12.176V455.7c0,8.025-4.151,11.9-12.176,11.9H279.6Zm6.365-5.535h16.051c3.874,0,5.535-1.937,5.535-5.535V437.157c0-3.874-1.937-5.535-5.535-5.535H285.965Z" transform="translate(-160.88 -408.1)"/><path class="c" d="M296.4,416.572V409.1h6.642v7.472Zm.277,49.259V424.044h6.365v41.787Z" transform="translate(-131.189 -406.333)"/><path class="c" d="M303.3,456.075V408.2h6.365v48.705c0,3.6,1.937,5.535,5.535,5.812v5.535C307.451,467.975,303.3,464.1,303.3,456.075Z" transform="translate(-118.994 -407.923)"/><path class="c" d="M310.8,444.388V426.676c0-8.025,4.151-12.176,12.176-12.176h10.516c8.025,0,11.9,4.151,11.9,12.176V438.3h-27.95v6.918c0,3.874,1.937,5.535,5.535,5.535h20.755v3.321l-3.321,2.491H322.7C314.674,456.287,310.8,452.413,310.8,444.388Zm6.365-11.9H338.75v-6.642c0-3.874-1.937-5.535-5.535-5.535H322.7c-3.874,0-5.535,1.937-5.535,5.535Z" transform="translate(-105.739 -396.789)"/><path class="c" d="M334.4,444.388V426.676c0-8.025,4.151-12.176,12.176-12.176H362.35l3.321,2.491v3.321H346.853c-3.874,0-5.535,1.937-5.535,5.535v19.371c0,3.874,1.937,5.535,5.535,5.535h18.818v3.321l-3.321,2.491H346.576C338.274,456.287,334.4,452.413,334.4,444.388Z" transform="translate(-64.029 -396.789)"/><path class="c" d="M349,444.388V426.676c0-8.025,4.151-12.176,12.176-12.176h11.346c8.025,0,11.9,4.151,11.9,12.176v17.711c0,8.025-3.874,11.9-11.9,11.9H361.176C352.874,456.287,349,452.413,349,444.388Zm6.365.553c0,3.874,1.937,5.535,5.535,5.535h11.346c3.874,0,5.535-1.937,5.535-5.535V425.569c0-3.874-1.937-5.535-5.535-5.535H360.9c-3.874,0-5.535,1.937-5.535,5.535Z" transform="translate(-38.226 -396.789)"/><path class="c" d="M366,456.11V419.3c1.937-3.321,5.258-4.7,10.516-4.7h8.025l3.321,2.491v3.321H376.516a5.018,5.018,0,0,0-3.874,1.384v34.592H366Z" transform="translate(-8.18 -396.612)"/><path class="c" d="M376.7,444.388V426.676c0-8.025,4.151-12.176,12.176-12.176h10.516c8.025,0,11.9,4.151,11.9,12.176V438.3H383.065v6.918c0,3.874,1.937,5.535,5.535,5.535h20.755v3.321l-3.321,2.491H388.323C380.851,456.287,376.7,452.413,376.7,444.388Zm6.365-11.9H404.65v-6.642c0-3.874-1.937-5.535-5.535-5.535H388.6c-3.874,0-5.535,1.937-5.535,5.535Z" transform="translate(10.73 -396.789)"/><path class="c" d="M400.6,456.287V414.5h22.416c8.025,0,11.9,4.151,11.9,12.176v29.611H428.55V425.846c0-3.874-1.937-5.535-5.535-5.535H406.965v35.976Z" transform="translate(52.97 -396.789)"/><path class="c" d="M417.3,444.388V426.676c0-8.025,4.151-12.176,12.176-12.176h10.516c8.025,0,11.9,4.151,11.9,12.176V438.3h-27.95v6.918c0,3.874,1.937,5.535,5.535,5.535h20.755v3.321l-3.321,2.491H429.2C421.451,456.287,417.3,452.413,417.3,444.388Zm6.365-11.9H445.25v-6.642c0-3.874-1.937-5.535-5.535-5.535H429.2c-3.874,0-5.535,1.937-5.535,5.535Z" transform="translate(82.485 -396.789)"/><path class="c" d="M434.1,453.048V409.6h6.365v13.56h15.22v5.535h-15.22V453.6c0,3.874,1.937,5.535,5.535,5.535h10.516v3.321l-3.321,2.491H446C437.974,464.947,434.1,461.073,434.1,453.048Z" transform="translate(112.177 -405.449)"/><path class="c" d="M443.9,415.607l.83-1.107h5.258l8.3,36.252H459.4L469.36,414.5h8.025l9.962,36.252h1.107l8.3-36.252h5.258l.83,1.107-9.686,40.68H482.92l-9.686-35.422-9.686,35.422H453.309Z" transform="translate(129.497 -396.789)"/><path class="c" d="M468.3,444.388V426.676c0-8.025,4.151-12.176,12.176-12.176h11.346c8.025,0,11.9,4.151,11.9,12.176v17.711c0,8.025-3.874,11.9-11.9,11.9H480.476C472.174,456.287,468.3,452.413,468.3,444.388Zm6.365.553c0,3.874,1.937,5.535,5.535,5.535h11.346c3.874,0,5.535-1.937,5.535-5.535V425.569c0-3.874-1.937-5.535-5.535-5.535H480.2c-3.874,0-5.535,1.937-5.535,5.535Z" transform="translate(172.62 -396.789)"/><path class="c" d="M485.4,456.11V419.3c1.937-3.321,5.258-4.7,10.516-4.7h8.025l3.321,2.491v3.321H495.916a5.018,5.018,0,0,0-3.874,1.384v34.592H485.4Z" transform="translate(202.842 -396.612)"/><path class="c" d="M496.3,467.6V408.1h6.365v39.02l19.371-21.309H528.4l.554,1.107-14.944,16.327,16.051,22.969-.554,1.107h-6.365l-13.56-19.648-6.918,7.472v11.9H496.3Z" transform="translate(222.107 -408.1)"/></g></g></svg>