<svg xmlns="http://www.w3.org/2000/svg" viewBox="0 0 679.146 202.274" height="764.502" width="2566.852"><path d="M66.04 202.156c-.109-.11-4.812-.181-10.452-.16-9.286.037-10.403-.005-11.84-.448-2.227-.685-3.835-1.428-3.835-1.771 0-.16-.298-.428-.661-.594-.38-.173-.662-.523-.662-.823 0-.287-.197-.632-.437-.766-.383-.215-.35-.303.265-.706.569-.372.78-.398 1.1-.133.217.18.395.47.395.643 0 .348 1.406 1.473 1.841 1.473.152 0 .276.105.276.233 0 .24 1.706.908 3.572 1.398.678.178 3.437.226 7.678.136 3.64-.078 8.263-.033 10.27.1 3.082.206 3.773.181 4.427-.157.427-.22.776-.517.776-.659 0-.142.128-.258.286-.258.157 0 .818-.435 1.467-.968 1.173-.96 1.192-.965 2.558-.678l2.824.594c.795.167 2.64.264 4.1.215 2.334-.078 2.871-.19 4.441-.935.982-.465 1.786-.97 1.786-1.124 0-.153.098-.249.216-.212.483.147 3.532-3.045 3.403-3.564-.026-.104.161-.433.416-.73.337-.393.463-1.004.463-2.236v-1.695l1.125-.4c.618-.22 1.809-.47 2.645-.554 1.66-.166 3.575-1.163 4.68-2.436.945-1.086 2.35-3.681 2.446-4.518.071-.621.207-.735.878-.735.722 0 .787.072.72.794-.07.766-.393 1.684-.884 2.514-.129.218-.35.664-.492.992-.141.327-.379.595-.528.595-.15 0-.271.16-.271.355 0 .461-1.958 2.267-3.077 2.838-.481.245-1.861.6-3.066.788-1.205.188-2.34.456-2.522.594-.182.14-.331.792-.331 1.45 0 1.768-1.13 3.834-3.302 6.032-1.462 1.479-2.225 2.024-3.584 2.56-2.199.865-6.511 1.417-8.038 1.028-.596-.152-2.008-.482-3.138-.734l-2.055-.458-.988.916c-.543.504-1.366 1.178-1.829 1.498-.89.618-2.728 1.042-3.062.706zm-32.874-5.711c-1.155-.39-2.586-1-3.043-1.299a4.519 4.519 0 00-.86-.415c-.254-.085-.462-.238-.462-.339 0-.1-.37-.562-.823-1.025-.616-.63-.784-.998-.668-1.462.224-.892.909-.722 2.226.553.624.602 1.874 1.48 2.779 1.952 1.343.699 1.961.859 3.365.872 2.095.02 4.485-.7 5.253-1.584.31-.356.684-.648.83-.648.403 0 .32.865-.148 1.532-1.141 1.63-5.976 2.696-8.449 1.863zm104.255-4.968c-.1-.161-.603-.265-1.119-.23-.74.05-1.07-.09-1.567-.67-1.23-1.428-.606-4.649.903-4.667.247-.003.295.248.173.902-.29 1.544.074 2.486 1.177 3.049.542.277 1.107.423 1.254.325.236-.158.65-1.01.665-1.37.003-.072.13-.281.281-.464.337-.406.063-3.17-.45-4.535-.197-.524-.502-1.608-.679-2.409-.177-.8-.504-1.812-.727-2.249l-.405-.793-.215.793c-.576 2.13-1.543 3.043-3.222 3.043-.834 0-2.56-1.219-2.56-1.807 0-.137-.178-.59-.396-1.007-.41-.787-.502-1.93-.236-2.923.164-.61 1.683-1.75 3.353-2.517 1.692-.777 3.537.002 4.026 1.697.096.332.403 1.109.682 1.725.28.617.508 1.244.508 1.393 0 .15.113.478.25.73 1.1 2.016 1.921 7.143 1.503 9.374-.306 1.629-2.632 3.527-3.199 2.61zm-3.04-11.008c.287-.347.25-.434-.233-.56-.82-.215-.707-.617.172-.617.599 0 .837-.193 1.212-.98.447-.938.447-.995-.002-1.323-.64-.469-1.712-.431-2.45.086-.546.382-.593.564-.43 1.654.16 1.08.739 2.088 1.223 2.134.092.01.32-.169.507-.394zM25.492 190.42c-.29-.118-1.065-.303-1.72-.412-1.408-.235-3.116-.983-4.762-2.086-1.315-.881-1.442-1.018-2.777-2.988-.808-1.192-.927-1.574-.927-2.976 0-.885.106-1.61.236-1.61s.303-.27.386-.6c.244-.969 1.17-1.78 2.034-1.78.954 0 .98.238.131 1.155-1.18 1.275-1.394 2.968-.588 4.665.492 1.035 3.353 3.705 3.97 3.705.128 0 .668.188 1.2.419l1.834.793c.478.206 1.15.375 1.492.375.783 0 1.89.867 1.634 1.28-.215.349-1.351.38-2.143.06zm118.205-7.756a1.642 1.642 0 01-.298-.728l-.143-1.556c-.058-.638-.222-1.412-.366-1.72-.144-.308-.536-1.593-.873-2.856-.56-2.104-.654-2.273-1.118-2.025-.88.471-1.342-.308-1.313-2.22.046-3.13 1.246-4.829 3.719-5.264 1.806-.318 2.884.044 3.662 1.232.546.834.327 3.26-.438 4.842-.532 1.102-2.239 2.953-2.722 2.953-.149 0 .01.297.35.661.343.364.723.662.846.662.212 0 2.31 1.287 2.594 1.592.073.077.639.535 1.257 1.016 1.2.935 1.448 1.751.612 2.017-.507.16-1.604-.332-1.604-.72 0-.11-.118-.201-.261-.201-.241 0-.926-.493-1.699-1.222-.172-.163-.576-.38-.897-.48-.712-.227-.785.381-.184 1.534.53 1.014.498 1.845-.089 2.376-.58.525-.696.537-1.035.107zm.472-8.996c.974-1.033 1.576-2.594 1.576-4.084 0-1.073-.094-1.406-.396-1.406-.219 0-.397-.119-.397-.265 0-.145-.474-.264-1.054-.264-.902 0-1.077.094-1.219.661-.104.414-.353.662-.666.662-.276 0-.5.178-.5.397 0 .218.103.397.23.397s.31.506.407 1.124c.292 1.856.906 3.333 1.402 3.37.031.001.309-.264.617-.592zm9.778 7.078c-.18-.219-.25-.397-.155-.397.096 0 .024-.268-.159-.595-.441-.79-.922-2.47-1.52-5.309-.443-2.1-.811-3.164-.811-2.342 0 .39-.967.406-1.205.02-.098-.157-.051-.414.104-.569.19-.19.197-.441.02-.77-.173-.326-.17-.66.013-1.001.15-.282.274-.74.274-1.02 0-.644 2.344-1.908 3.537-1.908 1.762 0 2.813 1.571 2.813 4.203 0 1.332-.14 1.837-.808 2.924-.445.722-1.052 1.39-1.35 1.485-.603.192-.589.405.212 3.202.39 1.361.408 1.698.115 2.051-.436.526-.66.531-1.08.026zm.949-7.419c.23-.483.453-1.204.496-1.603.118-1.067-.606-2.967-1.201-3.156-.639-.202-1.477.052-1.649.502-.104.272.491 3.24 1.028 5.123.155.543.883.068 1.326-.866zm-103.673 7.265c-.317-.185-.463-.598-.463-1.315 0-.574-.12-1.045-.265-1.045-.145 0-.264-.595-.264-1.323 0-.727-.106-1.323-.235-1.323-.212 0-.507-2.225-.64-4.828-.05-.977-.069-.992-1.132-.992-.594 0-1.166.085-1.27.19-.105.105-.603.204-1.107.222-.54.019-1.166.267-1.524.603-.748.703-1.769.766-1.756.109.023-1.228 1.741-2.111 5.283-2.716 2.775-.473 5.967-1.287 7.315-1.865 1.266-.542 2.628-.603 2.58-.115-.013.145-.49.523-1.058.84-.568.316-1.151.673-1.297.793-.145.12-1.291.549-2.546.952l-2.282.733.134 1.251c.073.688.232 1.443.353 1.678.12.234.474 1.9.785 3.704.31 1.803.618 3.365.684 3.47.146.238-.381 1.266-.643 1.255-.104-.004-.397-.13-.652-.278zm112.23-.876c-2.477-.523-3.925-2.714-3.6-5.453.322-2.73 3.3-6.857 5.255-7.286.93-.204 1.674.288 1.01.667-1.283.732-2.707 1.971-2.98 2.593-.174.396-.393.779-.486.851-.094.073-.423.692-.733 1.375-.675 1.488-.725 3.165-.125 4.18.903 1.53 3.646 2.26 5.914 1.575a23.76 23.76 0 011.453-.393l1.257-.27c.79-.172.862-.07.47.663-.322.603-1.88 1.236-3.589 1.46-.722.094-1.551.21-1.842.26-.291.049-1.193-.05-2.003-.222zm-60.04-1.889c0-.223.207-.482.462-.576 1.686-.622 3.241-2.266 3.241-3.425 0-.196.137-.356.304-.356.217 0 .26-.712.153-2.511-.166-2.781-.847-4.536-2.492-6.42-.476-.545-.867-1.08-.87-1.19-.003-.109-.184-.198-.402-.198-.277 0-.397-.28-.397-.926 0-.51.09-.927.199-.928.21-.002 1.52-1.825 1.52-2.117 0-.096.316-.462.701-.813.386-.352 1.145-1.466 1.687-2.476.921-1.718.974-1.94.818-3.44-.092-.882-.286-1.643-.43-1.691-.144-.049-.262-.376-.262-.728s-.122-.64-.272-.64c-.15 0-.352-.208-.447-.462-.096-.255-.328-.582-.516-.728-.188-.146-.374-.562-.413-.925-.053-.49.066-.68.462-.738 1.079-.156 3.303 2.955 3.303 4.62 0 .467.113.918.251 1.003.292.18.192 1.032-.353 3.002-.456 1.654-.764 2.153-3.001 4.883-1.544 1.884-1.834 2.575-1.08 2.575.303 0 1.536 1.323 1.537 1.648 0 .107.394.821.876 1.588 1.542 2.456 1.837 6.709.625 9.015-.55 1.047-2.14 2.627-3.014 2.998-1.153.49-2.19.468-2.19-.044zm-41.389-.078c-.694-.14-1.322-.972-1.857-2.46-.64-1.777-.477-2.922.449-3.168.484-.129.734-.09.746.115.066 1.068.298 2.396.525 2.992.247.649.294.665.742.26.713-.645 1.108-2.167.796-3.063-.372-1.068.046-2.505.76-2.61.442-.064.578.076.645.662.051.446.244.745.482.746.304.002.376.263.31 1.112-.05.611-.011 1.354.083 1.652.224.705 1.195.727 1.195.028 0-.283.119-.588.264-.678.146-.09.265-.417.265-.727 0-.628 2.02-2.67 2.404-2.433.363.224.29 1.01-.147 1.589-.214.282-.392.707-.397.944-.005.237-.187.579-.405.76-.218.18-.397.596-.397.923 0 .874-.981 1.987-1.752 1.987-.36 0-1.011-.184-1.446-.408-.78-.404-.793-.4-1.068.389-.302.867-1.385 1.55-2.197 1.388zm607.484 19.037c-.1-.164-.53-.297-.953-.297-1.226 0-2.421-.745-3.631-2.263-.618-.776-1.124-1.537-1.124-1.69 0-.155-.111-.28-.247-.28s-.323-.241-.416-.535c-.133-.416-.384-.528-1.143-.504-.535.016-1.687-.159-2.56-.388-.873-.23-2.065-.42-2.648-.422-.779-.003-1.151-.148-1.398-.544-.186-.297-.267-.654-.18-.794.23-.372 4.278-.287 5.813.124 1.21.323 1.363.311 1.786-.133.255-.268.463-.62.463-.781 0-.666 1.918-1.975 3.247-2.218.549-.1 1.392-.528 1.874-.951 1.114-.978 2.33-1.075 3.904-.313.658.318 1.375.579 1.593.579.726 0 2.437-2.214 3.065-3.969.4-1.116.44-2.381.076-2.381-.146 0-.265-.219-.265-.486 0-.585-5.066-5.864-5.627-5.864-.216 0-.53-.164-.696-.365-.167-.2-.688-.44-1.157-.53a8.53 8.53 0 01-1.648-.536c-1.543-.72-3.575-1.03-6.416-.98l-1.654.03v.951c0 .523.225 1.268.5 1.654.892 1.256 1.352 2.72 1.352 4.3 0 1.352-.082 1.603-.648 1.974-.755.495-1.636.309-1.859-.392-.2-.634-1.37-.782-7.68-.973-3.268-.099-5.304-.274-5.82-.5-1.288-.567-3.033-1.026-3.213-.847-.091.091.032.469.275.839.573.874.175 1.708-.842 1.765-1.096.062-1.163.082-2.438.728-2.746 1.391-4.65 2.648-4.035 2.663.182.005.331.241.331.526 0 .384.244.563.947.695.521.097 1.01.34 1.087.54.089.233.56.364 1.302.364.974 0 1.162.083 1.162.514 0 .683-.982 1.341-1.977 1.326-.997-.015-5.004-2.144-5.118-2.719-.265-1.34 2.01-3.53 5.146-4.95 1.578-.715 2.011-1.081 2.119-1.79.09-.598.683-1.133 1.987-1.794 1.263-.64 2.606-.85 2.606-.407 0 .128.252.3.56.38.408.107 1.004-.212 2.183-1.166.892-.723 1.766-1.43 1.942-1.571.175-.142.395-.258.487-.258.092 0 .46-.23.817-.51.974-.767 3.915-1.81 6.446-2.288 5.797-1.093 7.637-1.164 9.79-.377.796.29 1.606.529 1.8.529.194 0 1.231.366 2.305.813 1.617.673 2.32 1.183 4.104 2.976 1.184 1.19 2.347 2.492 2.585 2.892.238.4.525.727.64.727.114 0 .207.298.207.662 0 .364.12.661.265.661.145 0 .264.586.264 1.301 0 .978-.23 1.735-.925 3.045-1.327 2.502-1.461 2.687-2.31 3.188l-.765.452.876.854c1.358 1.324 1.678 2.136 1.602 4.065-.063 1.633-.125 1.777-1.388 3.235-1.033 1.192-1.62 1.624-2.68 1.97-1.843.603-3.815.82-4.047.444zm4.16-1.895c2.073-1.258 2.62-3.546 1.31-5.486-.844-1.25-1.596-1.88-3.367-2.821-1.64-.872-2.226-.854-3.802.115-.71.437-1.426.794-1.591.794-.166 0-.302.1-.302.222s-.307.362-.681.533c-.575.261-.658.434-.53 1.1.084.435.22 1.136.3 1.559.169.873 2.718 3.73 3.33 3.73.222 0 .491.089.598.198.369.375 2.408.787 3.2.646.437-.078 1.127-.343 1.534-.59zm-15.29-18.516c.092-.148.05-.654-.094-1.124-.144-.47-.335-1.396-.424-2.056-.127-.944-.273-1.21-.683-1.24-.337-.026-.521.126-.521.43 0 .257-.387.813-.86 1.235-.767.685-.804.778-.342.868.826.16 1.76.875 2.013 1.542.247.649.633.795.912.345zm-5.66-1.171c.181-.502.397-.877.48-.834.083.044.507-.34.944-.853l.793-.931-.793.185c-.437.101-1.806.674-3.042 1.273-1.237.6-2.42 1.17-2.63 1.269-.21.098-.428.32-.486.49-.074.224.58.681 2.15.313h2.254zm4.67-4.066c.063-.187-.164-.314-.562-.314-.8 0-1.164.44-.504.61.635.162.943.077 1.067-.296zm-582.55 4.79c-2.561-.935-3.536-6.288-1.46-8.011.611-.508 1.08.016.68.762-.253.474-.224.557.192.557.531 0 1.645 1.808 1.645 2.671 0 .278.12.504.265.504.146 0 .265.672.265 1.493 0 1.11-.119 1.582-.463 1.843-.509.386-.548.392-1.125.182zm0-3.236c0-.527-.346-.906-.597-.655-.207.208.09 1.168.362 1.168.129 0 .234-.23.234-.513zm-59.59 2.642c-.378-.298-.81-.541-.96-.541-.149 0-.539-.477-.866-1.059-.327-.582-.752-1.058-.943-1.058-.192 0-.357-.09-.368-.198-.084-.82-.27-1.25-.625-1.449-.227-.127-.414-.449-.414-.715 0-.266-.178-.632-.396-.813-.219-.181-.397-.672-.397-1.09 0-.42-.135-.762-.299-.762-.212 0-.24-.482-.096-1.654.111-.91.194-1.854.184-2.099-.01-.245.152-.587.36-.76.21-.173.38-.43.38-.573 0-.142.166-.633.368-1.092.203-.458.436-1.038.518-1.289.18-.545 1.423-.913 1.804-.532.183.183.125.49-.182.96-.249.379-.35.693-.223.697.125.005.032.158-.207.34-1.223.93-1.718 4.9-.865 6.941.51 1.22 2.563 4.068 3.76 5.214 1.134 1.086 1.375 1.392 1.294 1.64-.164.5-1.126.443-1.826-.108zm630.03 19.012c-1.83-.356-2.454-.703-3.192-1.77-2.448-3.543-.854-7.95 3.325-9.187.662-.196 1.177-.554 1.375-.956.564-1.143 1.574-1.874 2.78-2.01.968-.109 1.393.016 2.73.805 1.864 1.1 2.383 1.66 2.651 2.862.311 1.396.34 2.874.058 2.874-.142 0-.19.175-.108.39.47 1.224-2.973 5.53-5.3 6.632-1.432.677-2.314.751-4.318.36zm5.043-2.259c.72-.517 1.308-1.059 1.308-1.204 0-.145.238-.567.529-.937.29-.37.53-.895.53-1.166 0-.271.102-.494.229-.494.33 0 .58-2.2.284-2.5-.137-.138-.25-.516-.25-.84 0-.67-1.702-2.216-2.44-2.216-.259 0-.47-.119-.47-.264 0-.146-.36-.265-.8-.265-.676 0-.825.122-.958.785-.118.592-.43.918-1.267 1.323-.61.296-1.319.538-1.574.538-.82 0-1.553.527-1.245.897.202.244-.003.602-.777 1.358-1.04 1.016-1.41 2.255-.787 2.64.145.09.264.352.264.584 0 .594 1.72 2.194 2.358 2.194.293 0 .686.182.873.404.576.682 2.656.267 4.193-.837zm-36.175-11.096c-.198-.517.37-2.494.716-2.494.14 0 .254-.163.254-.362 0-.2.655-1.023 1.455-1.83.8-.806 1.456-1.632 1.456-1.836 0-.203.166-.597.37-.876.337-.46.289-.563-.515-1.109-.487-.33-.953-.602-1.034-.602-.082 0-1.295-.833-2.695-1.852-1.4-1.018-2.709-1.852-2.908-1.852-.2 0-.362-.119-.362-.264 0-.146-.179-.265-.397-.265-.218 0-.397-.107-.397-.238 0-.28-1.972-1.35-2.49-1.35-.674 0-1.015-.696-.636-1.302.475-.761 1.819-.714 3.126.112.576.364 1.13.661 1.23.661.101 0 .402.198.67.44.585.53 1.304.957 2.785 1.654.613.288 1.268.775 1.456 1.081.188.307.877.89 1.532 1.297 1.33.827 3.704 3.074 3.704 3.507 0 .155-.263.554-.584.888-.535.556-.613.57-.918.17-.299-.393-.334-.394-.341-.015-.016.752-.797 2.026-1.536 2.506-1.137.736-2 1.816-1.531 1.917.211.045.621-.044.91-.199.29-.155.837-.281 1.218-.281.38 0 1.04-.18 1.464-.4.425-.22.866-.376.98-.347.323.082 2.456-.318 3.892-.73.718-.207 1.586-.375 1.93-.375.343 0 .88-.238 1.192-.53.81-.754 1.526-.692 1.526.133 0 .933.306.83 1.55-.52 1.042-1.13 1.081-1.234.92-2.447-.094-.696-.243-1.326-.332-1.399-.18-.146-.769-2.079-1.004-3.292-.083-.429-.363-1.008-.624-1.287-.464-.499-.494-.492-1.584.382-1.22.978-1.833 1.58-2.71 2.667-.427.528-.862.739-1.64.794-.981.07-1.055.027-1.017-.587.032-.532-.281-.883-1.607-1.796-.906-.625-2.007-1.458-2.446-1.853-.752-.674-1.505-1.226-4.72-3.464-.727-.507-1.48-1.078-1.672-1.27-.192-.191-.438-.348-.545-.348-.108 0-.438-.226-.735-.502-.296-.276-.765-.546-1.042-.599-.38-.073-.503-.323-.503-1.02 0-.836.075-.929.816-1.001.497-.049.95.08 1.157.33.187.226.505.41.705.41.2 0 .365.097.365.213 0 .205 2.4 2.001 4.137 3.095 2.413 1.521 4.371 3.03 5.9 4.547.936.93 1.834 1.64 1.994 1.578.526-.202 3.844-3.138 3.844-3.401 0-.474 1.182-1.25 1.918-1.26.526-.006.727.123.727.465 0 .26.246.945.547 1.521.301.576.596 1.286.656 1.577.06.291.22.768.357 1.059.43.917.892 3.12.971 4.63l.076 1.455-1.997 1.928-1.998 1.927-1.506-.17c-1.83-.207-6.99.301-8.086.796-.436.198-1.33.445-1.984.55-.655.105-1.678.475-2.272.821-1.258.733-1.914.798-2.138.214zm-507.451-19.563c-.274-1.092.887-1.938 1.635-1.19.172.171.8.135 1.839-.108 4.682-1.091 6.504-1.456 8.06-1.612a35.369 35.369 0 003.307-.52c.873-.19 2.5-.428 3.616-.528 1.116-.1 3.437-.538 5.16-.974 3.138-.794 6.89-1.598 9.613-2.059 6.133-1.038 11.672-1.74 15.742-1.992 1.455-.091 3.003-.273 3.44-.405.436-.132 1.568-.299 2.513-.371 2.15-.165 7.854-.872 9.79-1.215 2.365-.418 8.322-1.027 12.355-1.263 2.814-.164 3.875-.324 4.233-.639.263-.23.738-.499 1.057-.596 1.121-.341 1.524 1.372 1.833 7.796.14 2.888.104 3.363-.277 3.68-.258.213-.528.264-.655.123-.174-.193-1.093-8.294-1.086-9.567.003-.527-.716-.383-.861.173-.108.41-.383.505-1.487.514-.745.006-1.481.088-1.636.184-.154.095-1.076.209-2.05.253-.972.044-2.364.206-3.092.36-.727.155-3.644.412-6.482.571-2.838.16-5.695.397-6.35.528a14.98 14.98 0 01-2.3.25c-.61.006-1.17.11-1.245.232-.075.121-.647.24-1.272.263-.625.023-1.434.152-1.798.287-.363.134-2.209.442-4.1.684-1.892.242-3.797.545-4.234.674-.436.13-1.856.364-3.155.522-1.3.157-2.484.361-2.633.453-.149.092-.515.184-.813.205-3.281.224-4.324.46-4.588 1.041-.25.547-.51.614-3.009.775-9.97.64-10.6.714-12.502 1.469-.532.21-.855.22-1.045.03-.333-.333-1.555-.361-1.901-.043-.364.332-3.75 1.305-5.147 1.478-.654.08-1.041.077-.86-.01.706-.332.322-.705-.529-.512-.473.106-1.633.347-2.58.535-.945.187-2.41.531-3.253.764-2.268.627-3.05.57-3.253-.24zm-66.277-.024c-.193-.234-.622-.528-.953-.653-.347-.132-.847-.762-1.186-1.494-.323-.696-.653-1.325-.733-1.398-.456-.41-.807-1.49-1.094-3.36-.29-1.901-.274-2.214.165-3.21.31-.702 1.024-1.525 1.958-2.254 2.072-1.62 2.413-1.759 4.334-1.759 1.314 0 1.746.097 1.87.419.303.791.168.93-.74.76-.96-.18-2.263.29-3.73 1.346-.437.315-.987.64-1.224.722-.53.186-.829 1.414-.85 3.5-.014 1.214.156 1.953.722 3.144.862 1.815 1.71 2.686 3.27 3.362.624.27 1.125.668 1.125.893 0 .583-2.447.568-2.934-.018zm28.003.138c-.275-.16-.463-.586-.463-1.05 0-.43-.12-.78-.265-.78-.145 0-.265-.209-.266-.464 0-.254-.18-.804-.397-1.22-.257-.494-.395-1.52-.395-2.947 0-2.024.065-2.287.86-3.5 1.055-1.607 1.557-1.859 3.212-1.61 1.58.238 2.102.761 2.526 2.528.343 1.428.082 2.839-.7 3.794-.188.23-.342.56-.342.733 0 .174-.327.447-.727.607-1.941.779-1.897.725-1.733 2.11.1.846.038 1.419-.182 1.684-.388.467-.504.479-1.128.115zm1.97-5.187c.408-.391.742-.888.742-1.104 0-.216.169-.58.375-.81.391-.437.283-1.873-.141-1.873-.129 0-.234-.175-.234-.388 0-.213-.24-.516-.534-.673-.45-.241-.658-.15-1.339.586-.686.743-.787 1.028-.684 1.93.124 1.08.738 3.043.954 3.043.065 0 .453-.32.86-.711zm122.298 4.062c-.072-.189.05-.693.273-1.12.223-.427.406-.94.407-1.142 0-.201.239-.572.529-.823.29-.252.708-.89.93-1.42.22-.53.514-.963.651-.963.236 0 2.29-3.27 2.726-4.338.112-.276.618-1.066 1.124-1.755.506-.69.92-1.377.92-1.527 0-.15.096-.313.212-.362.244-.101 1.172-1.753 1.798-3.2.28-.644.66-1.051 1.082-1.157.968-.243 1.312.262.64.935-.306.306-.556.665-.556.799 0 .223-.871 1.94-1.865 3.673-.224.393-.971 1.583-1.659 2.644-.688 1.062-1.456 2.312-1.708 2.78a19.047 19.047 0 01-1.052 1.682c-.328.459-.596.938-.596 1.065 0 .128-.238.403-.529.613-.29.21-.529.576-.529.814 0 .539-1.676 2.766-2.245 2.985-.232.089-.48.007-.553-.183zm45.396 19.302c-1.002-.37-1.296-.96-.719-1.44.271-.224.569-.222 1.179.008 1 .377 4.676-.343 9.673-1.897a509.972 509.972 0 014.816-1.473c.873-.259 1.647-.545 1.72-.636.073-.09.787-.309 1.587-.485.8-.176 2.11-.507 2.91-.735.801-.229 2.17-.581 3.043-.784.873-.203 2.719-.657 4.101-1.008 1.383-.352 3.228-.785 4.101-.962.874-.177 2.6-.549 3.837-.826 4.446-.999 7.06-1.553 9.922-2.104 1.6-.309 3.982-.8 5.291-1.09 1.31-.292 3.148-.639 4.084-.77 1.913-.27 3.005-.479 7.558-1.441 5.59-1.182 6.21-1.286 6.414-1.082.173.173-1.137 1.343-1.513 1.35-.076.002-1.27.265-2.652.586-4.426 1.028-8.565 1.896-9.79 2.054-.654.084-2.619.454-4.365.822-1.746.368-4.009.836-5.027 1.04-4.703.945-6.133 1.268-6.747 1.523-.364.15-1.019.298-1.455.328-.812.055-4.086.693-6.218 1.212-5.33 1.298-6.63 1.609-7.662 1.835-.648.143-1.847.496-2.663.786-.816.29-1.688.527-1.938.527-.53 0-5.614 1.484-6.076 1.774-.173.108-.433.203-.579.21-.537.03-2.173.46-4.233 1.114-1.77.562-4.806 1.327-7.144 1.8-.29.059-.946-.047-1.455-.236zm-191.39-19.95c-.071-.115-.213-.948-.315-1.853-.103-.904-.29-1.644-.417-1.644-.126 0-.23-.298-.23-.662 0-.46-.145-.661-.476-.661-.508 0-2.435 1.815-2.435 2.294 0 .584-.728.935-1.303.627-.578-.31-.612-1.111-.069-1.655.173-.172.314-.468.314-.657 0-.19.179-.344.397-.344.218 0 .4-.15.405-.331.017-.68 1.404-1.373 2.765-1.381 1.288-.008 1.344.024 1.853 1.05.358.72.557 1.755.623 3.241.091 2.054.065 2.183-.444 2.183-.297 0-.598-.093-.669-.208zm4.649-.328c-.188-.304-.322-1.052-.297-1.662.025-.61-.038-1.421-.14-1.802-.156-.578-.086-.718.429-.856 1.014-.272 1.276-.199 1.276.357 0 .783.613.642 1.148-.263.467-.79 1.483-1.264 2.012-.937.438.27.342.544-.58 1.67-1.153 1.406-1.569 2.024-2.048 3.04-.48 1.021-1.318 1.232-1.8.453zm6.994-1.279c-1.261-.85-1.793-1.869-1.599-3.064.209-1.281.995-1.98 2.242-1.992 1.08-.01 2.098.918 2.098 1.913 0 .327.118 1.008.263 1.513.217.756.182 1-.2 1.381-.73.73-1.932.838-2.804.25zm1.635-1.712c.047-.242-.176-.808-.497-1.257-.5-.703-.635-.766-.954-.447-.373.373-.273.75.532 2.003.283.441.809.27.92-.299zm3.78.957c-.51-.202-1.351-.945-1.351-1.194 0-.113-.245-.45-.543-.748-.813-.813-.3-2.089.843-2.1.416-.003.66.447.998 1.849.176.725 1.136 1.034 1.717.551.412-.341.689-.112.689.57 0 1.003-1.176 1.539-2.352 1.072zm-51.601-.76c.012-.308.075-.371.16-.16.076.19.067.42-.021.507-.088.088-.15-.068-.14-.347zm-2.005-.64c-.09-.144-.82-.59-1.623-.991-2.41-1.203-2.88-1.49-3.686-2.25-.424-.4-.865-.727-.978-.727-.114 0-.343-.298-.509-.662-.165-.364-.414-.661-.551-.661-.28 0-1.223-1.13-1.687-2.018-.167-.32-.389-1.216-.493-1.993-.105-.777-.318-1.571-.474-1.764-.19-.236-.196-.41-.016-.53.148-.097.41-1.35.584-2.785.173-1.433.436-2.832.583-3.108.19-.353.182-.502-.024-.502-.161 0-.055-.304.237-.674.291-.37.608-1.029.703-1.462.096-.439.574-1.108 1.077-1.509.497-.397.903-.857.903-1.023 0-.167.186-.374.414-.462.227-.087.343-.273.256-.413-.087-.14.226-.454.695-.697.766-.396.807-.474.405-.768-.608-.444-.632-4.499-.031-5.294.586-.775.898-.117.903 1.904.002.903.144 1.948.314 2.323.228.5.232.759.017.975-.216.216-.15.412.251.736.528.427.53.472.094 1.317-.353.682-.413 1.216-.272 2.431.153 1.313.116 1.557-.232 1.557-.537 0-.962-.81-.962-1.834 0-1.004-.693-1.11-1.054-.16-.136.357-.485.888-.776 1.179-.894.894-1.703 2.722-1.94 4.387-.407 2.84-.515 4.643-.307 5.105a3.5 3.5 0 01.25.859c.025.224.246.83.491 1.346.706 1.487 4.341 4.993 5.178 4.993a.27.27 0 01.275.265c0 .145.13.264.29.264.16 0 .636.247 1.058.548.423.3.769.47.769.376 0-.094.357.187.793.623.437.437.794.922.794 1.079 0 .359-1.5.377-1.72.02zm339.715 16.125c-.095-.154-.083-.6.026-.992.11-.392.232-.887.274-1.099.042-.212.248-.807.46-1.323.21-.515.686-2.187 1.057-3.715 1.022-4.21 1.78-6.145 2.558-6.532.518-.258.723-.26.951-.007.275.303 1.213 3.903 1.584 6.076.093.546.276.992.405.992.13 0 .237.268.239.596.01 1.842.741 2.326 1.396.926.812-1.738 1.246-2.921 1.246-3.397 0-.268.162-.879.36-1.357.197-.478.629-1.702.958-2.72.827-2.56 1.197-3.094 2.072-2.993.543.062.77.285.964.942.14.473.348.86.463.86.116 0 .21.544.21 1.21 0 .688.16 1.37.373 1.582.206.205.309.621.23.925-.08.303-.024.81.124 1.129.148.318.478 1.53.732 2.694.255 1.164.574 2.188.708 2.274.34.218-.037 1.574-.485 1.746-.49.188-1.153-.393-1.153-1.013 0-.275-.115-.707-.256-.96-.14-.253-.49-1.65-.777-3.105-.838-4.254-1.202-5.712-1.44-5.768-.355-.085-1.89 4.416-1.643 4.818.078.126-.036.376-.252.555-.217.18-.396.58-.397.89-.008 1.667-2.216 4.639-3.154 4.246a2.632 2.632 0 00-.742-.187c-.18-.007-.396-.26-.48-.563-.084-.303-.252-.79-.372-1.08-.121-.292-.545-1.939-.941-3.66-.396-1.722-.816-3.032-.932-2.91-.264.275-2.009 6.362-2.508 8.75-.416 1.986-1.32 3.041-1.858 2.17zm31.098-2.745c0-.228-.12-.415-.265-.415-.145 0-.264-.179-.264-.397 0-.218-.12-.397-.265-.397-.145 0-.264-.301-.264-.67 0-.368-.179-.738-.397-.822-.219-.083-.397-.288-.396-.454 0-.167-.68-1.702-1.512-3.412l-1.512-3.109h-1.238c-.846 0-1.286-.123-1.388-.389-.194-.504.499-1.19 1.236-1.226a568.46 568.46 0 011.9-.084c1.37-.06 2.716-.349 3.174-.683.146-.106.962-.44 1.814-.742 1.193-.422 1.658-.481 2.02-.256.354.222.87.18 2.118-.17.907-.254 2.44-.496 3.405-.536 1.812-.075 3.1-.345 4.93-1.032.705-.264 1.148-.308 1.324-.133.686.684-3.86 2.87-5.968 2.87-1.019 0-1.044.023-1.044.937 0 .515.226 1.38.503 1.921.708 1.389 1.692 4.74 1.488 5.069-.093.151-.46.275-.816.275-.46 0-.646-.145-.646-.507 0-.279-.148-.556-.33-.617-.18-.06-.33-.278-.33-.485 0-.206-.26-1.208-.578-2.227a80.696 80.696 0 01-.856-2.928l-.279-1.075-1.79.306c-.984.169-2.072.398-2.418.509-.347.111-.702.09-.794-.047-.094-.142-.872.072-1.808.497l-1.643.745.916 1.695c.503.932.915 1.876.915 2.098 0 .223.091.444.203.493.113.048.549.981.97 2.073.421 1.09.876 2.057 1.01 2.146.134.09.204.447.155.794-.104.738-1.28 1.092-1.28.385zm-7.334-.762c-.468-.319-.884-.736-.926-.927-.053-.248-.242-.192-.659.198-.816.764-2.196.718-3.08-.102-.386-.357-.701-.774-.701-.926 0-.153-.158-.277-.351-.277-.373 0-.974-2.645-.97-4.264.008-2.287 1.656-5.526 2.812-5.526.436 0 .626.151.626.497 0 .273.178.645.397.826.218.181.396.43.396.554 0 .123.298.875.662 1.67.364.796.661 1.83.661 2.3 0 .917.757 2.884 1.11 2.884.117 0 .213.139.213.307 0 .461 1.613 1.81 2.165 1.81.591 0 .625.612.065 1.172-.565.565-1.4.497-2.42-.196zm-2.462-2.645c-.004-.586-.287-1.157-.926-1.866-.506-.562-.918-1.157-.916-1.323.01-.644.464-1.018 1.022-.84.501.158.536.11.323-.436-.132-.337-.429-.97-.66-1.407-.232-.436-.422-1.027-.422-1.313-.003-.492-.027-.495-.458-.064-.372.372-.456.966-.463 3.254-.007 2.7.017 2.82.69 3.399.384.33.837.86 1.006 1.176.408.762.812.47.804-.58zm-138.473 1.47c-.076-.254-.39-2.362-.698-4.685-.308-2.322-.62-4.32-.695-4.44-.208-.338-.61-3.197-.902-6.419-.386-4.266-.516-5.232-.784-5.82-.132-.292-.355-1.423-.496-2.514-.141-1.091-.378-2.46-.527-3.043a92.798 92.798 0 01-.59-2.513c-.175-.8-.402-1.515-.504-1.588-.102-.073-.252-.49-.333-.926-.301-1.604-1.38-4.768-1.695-4.968a.487.487 0 01-.188-.56c.146-.383-.869-3.834-1.25-4.248-.127-.138-.232-.517-.232-.841 0-.325-.178-.768-.396-.987-.219-.218-.397-.625-.397-.905 0-.505-.369-1.82-.795-2.837-1.103-2.633-1.445-6.012-.639-6.321.803-.309.905-.15.905 1.408 0 1.05.132 1.701.401 1.97.221.22.37.497.33.615-.08.243 1.008 3.755 1.553 5.014.199.459.361.999.361 1.2 0 .203.232.823.516 1.379.283.555.838 2.277 1.233 3.826.395 1.548.87 2.994 1.054 3.212.184.219.347.516.363.662.058.548.597 2.4.828 2.84.132.253.245.73.251 1.059.015.76.608 3.026.858 3.276.104.104.191.675.194 1.27.003.594.255 2.509.561 4.255.306 1.746.642 4.068.746 5.16.405 4.25 1.114 9.152 1.396 9.657.287.51.758 6.674.542 7.077-.2.372-.833.2-.971-.264zm-126.633-23.449c0-.346.199-1.09.442-1.654.242-.563.414-1.33.382-1.702-.044-.501.115-.759.609-.984.368-.167.747-.615.842-.994.218-.868-.08-3.136-.427-3.253-.143-.049-.26-.304-.26-.567 0-.263-.18-.547-.397-.631-.219-.084-.397-.31-.397-.502 0-.303-.695-1.169-2.43-3.027-.921-.988-3.317-2.654-5.055-3.515-.938-.464-1.222-.735-1.095-1.043a9.98 9.98 0 00.306-.88c.073-.254.238-.463.367-.463.372 0 .254-2.464-.144-2.988-.198-.262-.305-.686-.238-.942.145-.556-1.567-2.926-2.857-3.955a30.18 30.18 0 01-1.804-1.598c-.5-.486-1.513-1.207-2.249-1.601-.736-.394-1.656-1.013-2.045-1.376-.683-.637-3.078-1.562-4.043-1.562-.36 0-.441.156-.343.667.265 1.389-.505 1.11-2.844-1.028-.728-.665-1.432-1.213-1.566-1.218-.133-.005-.43-.19-.661-.412-.68-.655-2.396-1.717-4.565-2.826-1.957-1-5.107-1.745-5.974-1.412-.193.074-.419-.042-.502-.258-.312-.815-5.352-.26-6.63.729-.477.368-.872-.001-.872-.814 0-.667.131-.753 1.786-1.177 2.227-.571 5.99-.58 8.136-.02.873.228 2.002.478 2.51.556.507.078 1.34.4 1.852.716a24.9 24.9 0 002.12 1.13c.655.306 1.454.805 1.775 1.11.321.303.68.552.796.552.117 0 .534.298.926.662.392.364.79.661.885.661.095 0 .413.306.706.68.46.583.673.655 1.515.513.539-.091 1.787-.025 2.775.147 1.779.31 2.898.94 7.29 4.103 1.377.99 3.97 3.54 3.97 3.904 0 .173.238.464.529.646.29.182.529.545.529.807s.175.707.388.99c.214.282.393.79.397 1.126.005.337.121.824.26 1.081.167.314.118.973-.149 1.996-.219.84-.361 1.544-.316 1.564.045.021.348.187.673.369.326.182.751.33.946.33.195 0 .634.298.976.662.342.364.76.661.931.661.17 0 .525.239.789.53.263.29.698.529.967.529.268 0 .488.185.488.412 0 .412 1.462 2.463 2.01 2.82.814.53 2.524 5.86 1.953 6.086-.104.041-.278.36-.387.71-.17.549-.13.607.296.432.271-.112 1.684-.322 3.14-.466 1.455-.144 2.677-.344 2.716-.444.038-.1.468-.136.955-.08.487.058 1.626-.085 2.53-.317.906-.232 2.38-.43 3.279-.441.897-.01 2.287-.126 3.087-.255.8-.13 2.778-.356 4.395-.504a119.44 119.44 0 005.669-.679c2.973-.446 10.323-1.309 13.484-1.582 1.091-.094 3.83-.4 6.085-.68 2.256-.28 5.113-.568 6.35-.64 1.237-.072 3.678-.251 5.424-.398a905.29 905.29 0 016.615-.524c1.892-.142 4.094-.373 4.895-.512.8-.14 3.164-.262 5.254-.273 3.509-.018 3.784-.055 3.609-.482-.105-.255-.296-1.463-.426-2.686-.216-2.035-.368-2.55-1.216-4.127-.307-.57-.871-3.367-.871-4.316 0-.441.157-.58.661-.58.47 0 .662.144.662.495 0 .271.427 1.73.949 3.24 1.562 4.526 1.92 6.333 1.64 8.304-.054.376.096.554.52.614.327.047.595.25.595.453 0 .502-1.893 1.05-2.54.735-.277-.134-2.147-.237-4.156-.229-3.433.014-3.68.05-4.1.593-.425.547-.7.584-5.16.697-4.187.105-4.75.172-5.066.605-.329.45-.762.48-5.608.409-5.449-.081-12.16.341-12.715.8-.176.145-.446.186-.6.09-.278-.171-7.186.329-7.945.576-.218.071-.963.171-1.654.223-1.505.111-1.814.27-1.603.82.245.638-.411.882-2.383.886-2.872.006-14.27.799-14.997 1.042-.364.122-1 .236-1.413.253-.413.016-.89.12-1.058.228-.17.109-.546.212-.837.23-.29.017-1.303.184-2.249.37-2.074.409-2.902.414-4.615.026-1.636-.37-2.157-.208-2.698.838-.235.455-.591.991-.79 1.19-.2.2-.435.652-.524 1.005-.22.875-1.162.886-1.162.014zm471.018 18.801c-.562-.567-.623-1.05-.255-2.032.081-.218.283-.976.447-1.683.49-2.103 2.313-5.7 3.063-6.042.361-.164.726-.229.812-.143.187.187-.454 2.047-.706 2.047-.097 0-.33.566-.517 1.257s-.445 1.393-.573 1.56c-.128.166-.207.404-.177.529.031.124-.092.744-.273 1.378-.582 2.04-.09 2.276 2.84 1.358 2.514-.788 3.103-.698 2.306.352-.417.55-3.467 1.65-5.2 1.875-.982.127-1.26.056-1.767-.456zm11.642-.972c-.33-.14-.67-.435-.756-.657-.096-.252-.492-.403-1.052-.403-.694 0-.898-.11-.898-.485 0-.266.298-.643.662-.838.526-.282.661-.558.661-1.352 0-.549.119-1.072.265-1.162.145-.09.264-.573.264-1.074 0-.5.117-.91.26-.91.142 0 .332-.289.42-.642.204-.81.856-1.075 1.411-.572.296.268.763.342 1.515.241 2.196-.294 1.524.982-.901 1.711-.63.19-1.062.46-.971.607.09.146.005.458-.19.692-.317.383-.257.41.573.267.51-.088 1.517-.244 2.24-.345l1.315-.184-.408.615c-.234.352-1.02.823-1.834 1.1-1.768.601-1.973.798-1.586 1.521.35.655 1.102.55 2.01-.279.3-.274.782-.499 1.071-.499.706 0 1.16-.498 1.16-1.27 0-.613.4-1.704 1.232-3.36.22-.436.721-1.05 1.115-1.363.874-.694 2.28-.927 2.282-.379.003.603.602.631.79.037.096-.3.305-.544.466-.544.16 0 .498-.187.75-.415.487-.44 1.964-.557 5.603-.443 1.66.052 2.05.143 2.05.48 0 .907-.797 1.267-3.073 1.386-1.546.081-2.219.218-2.219.45 0 .292 1.982.742 3.492.792.642.021.815.277.616.905-.155.487-.447 1-2.032.55h-1.858l.176 1.038c.15.888.094 1.082-.388 1.34-.31.165-.753.263-.987.218-.465-.091-.458-.062-.73-2.768-.167-1.676-.134-1.923.296-2.163.832-.466.187-.639-.69-.185-.457.236-1.05.36-1.319.275-.453-.144-.485.037-.454 2.6.034 2.814-.305 4.142-1.056 4.142-.323 0-.482-.4-.681-1.72-.104-.684-1.768-.818-1.968-.158-.525 1.734-.871 2.143-1.816 2.143-.53 0-1.257.234-1.666.536-.86.636-2.322.878-3.162.524zm8.361-5.8c.124-.836-.134-1.362-.582-1.19-.412.159-.802 1.31-.57 1.685.269.436 1.066.093 1.152-.495zm-518.202-13.89c-.47-.304-.824-.731-.786-.95.07-.405.219-.41 2.847-.098 1.515.18 1.857-.181 1.963-2.074.062-1.092-.084-1.748-.664-2.987-.748-1.597-3.499-4.74-4.002-4.572-.145.048-.45.393-.675.765-.376.619-.371.738.05 1.38.408.624.578.686 1.49.54 1.121-.18 1.246.004.617.902-.573.818-1.94.79-2.857-.06-.385-.357-.7-.774-.7-.926 0-.153-.355-.278-.789-.278-.62 0-.824-.14-.954-.661-.187-.742-.568-.832-1.29-.305-.409.3-.604.298-1.215-.007-.809-.404-1.192-1.101-.814-1.48.136-.136.944-.246 1.795-.245 2.356.003 2.473.024 2.473.433 0 .768.54.691.698-.099.112-.559.316-.811.658-.811.3 0 .496-.187.496-.471 0-.643 1.472-1.197 2.177-.82.337.18.472.458.385.79-.095.362.072.62.57.884.388.205.938.73 1.223 1.167.286.436.61.738.72.67.11-.069.677.824 1.26 1.983.85 1.69 1.087 2.486 1.199 4.02l.14 1.912-1.052.97c-.956.884-1.19.972-2.58.975-1.104.003-1.765-.15-2.383-.548zm178.8 19.836c-.645-.777-.22-1.786 1.045-2.478.655-.358 1.242-.696 1.305-.751.062-.055-.146-.586-.463-1.18-.318-.594-.577-1.22-.577-1.39 0-.17-.238-.754-.53-1.297-.602-1.125-.679-2.754-.16-3.436.726-.956 3.336-.791 3.336.212 0 .176.25.386.556.466.534.14.522.188-.31 1.222-.838 1.044-1.304 1.339-1.304.826 0-.137.208-.405.463-.595.757-.565.703-1.055-.105-.96-.582.07-.722.23-.764.879-.03.436.229 1.411.573 2.166.345.755.626 1.552.626 1.77 0 .63.419.731 1.558.376l1.06-.33-.052-1.992c-.043-1.63.044-2.118.477-2.7.669-.895 1.376-1.09 2.236-.616.37.205.931.49 1.245.635.511.235.545.369.324 1.27-.137.555-.301 1.237-.366 1.516-.065.28-.42.822-.787 1.205-.367.384-.668.82-.668.971 0 .34 1.28.947 1.59.755.39-.242.565.363.265.921-.212.398-.553.535-1.329.535-.85 0-1.126-.134-1.498-.728-.25-.4-.488-.774-.529-.831-.04-.057-.225.016-.41.161-.186.146-.89.472-1.564.724-1.115.417-1.243.554-1.394 1.5-.127.794-.327 1.104-.84 1.299-.998.38-2.647.311-3.009-.125zm2.561-1.384c.065-.197-.097-.258-.446-.166-.776.203-.992.672-.26.565.332-.05.65-.228.706-.399zm6.083-5.18c.28-.473.577-1.128.663-1.455.134-.514.053-.596-.596-.596-.529 0-.802.164-.926.553-.161.508.041 2.358.258 2.358.052 0 .322-.387.601-.86zM27.213 141.545c-.508-.206-1.323-1.051-1.323-1.37 0-.135-.297-.44-.661-.679-.454-.297-.662-.674-.662-1.2 0-.42-.297-1.358-.661-2.082-.364-.724-.662-1.542-.662-1.818 0-.275-.238-.968-.529-1.539-.29-.57-.529-1.228-.529-1.46 0-.233-.175-.654-.388-.937-.214-.282-.393-.953-.397-1.49-.005-.537-.128-1.05-.273-1.14-.146-.09-.265-.506-.265-.926 0-.42-.119-.836-.265-.926-.145-.09-.264-.386-.264-.66 0-.55.974-.985 1.355-.604.374.374 1.292 3.033 1.134 3.288-.076.124-.013.225.141.225s.28.377.28.837c0 .775.575 3.089 1.074 4.322.118.291.358 1.006.535 1.588.485 1.605 1.118 2.795 1.632 3.075.255.138.463.451.463.696 0 .497 1.22 1.653 1.744 1.653.185 0 .413-.238.505-.53.093-.29.287-.528.433-.528.146 0 .191-.232.101-.515-.104-.327.092-.9.537-1.572.384-.582.63-1.17.545-1.308-.085-.137.023-.397.24-.577.216-.18.399-.223.405-.096.006.127.178-.237.382-.81.204-.572.304-1.15.221-1.283-.342-.555-1.673-4.592-1.675-5.082 0-.292-.167-.85-.37-1.239-.203-.39-.411-1.342-.462-2.117-.084-1.292-.043-1.416.503-1.493.485-.07.596.041.596.595 0 .374.119.68.264.68.146 0 .265.349.265.775 0 .426.178.953.397 1.172.218.218.397.605.397.86 0 .861 1.073 3.808 1.387 3.808.11 0 .2-.229.2-.508s.09-.546.199-.595c.109-.048.588-.862 1.064-1.808.93-1.845 1.42-2.7 1.674-2.91.14-.117.236-.456.599-2.117.047-.219.372-.397.723-.397.437 0 .602.124.527.397-.06.218-.161.78-.226 1.248-.065.467-.284.988-.487 1.156-.203.169-.369.59-.369.936 0 .346-.119.629-.264.629-.146 0-.265.128-.265.285 0 .255-1.19 2.948-2.293 5.183-.437.887-.4 1.04.723 2.998 1.594 2.779 3.342 2.455 5.208-.965.328-.6.595-1.402.595-1.783 0-.38.103-.691.229-.691.125 0 .427-.685.67-1.522.243-.836.557-1.887.698-2.333.14-.447.255-1.117.255-1.49 0-.371.167-.814.37-.982.203-.17.313-.523.244-.787s.062-.668.292-.898c.23-.23.417-.594.417-.811 0-.755.325-1.231.839-1.231.466 0 .499.124.334 1.256-.1.692-.286 1.458-.413 1.703-.127.245-.23.803-.23 1.241 0 .438-.12.87-.265.96-.146.089-.265.415-.265.723 0 .58-.433 2.128-.806 2.88-.234.47-.815 2.442-.965 3.275-.053.291-.212.57-.353.618-.141.048-.257.25-.257.447 0 .445-1.006 2.227-1.576 2.793-1.079 1.07-1.803 1.343-3.057 1.155-.977-.146-1.464-.424-2.382-1.354-.634-.643-1.19-1.363-1.236-1.599-.237-1.224-1.274.21-1.274 1.763 0 .336-.387 1.052-.86 1.59-.473.539-.98 1.19-1.127 1.447-.28.487-2.272.818-3.04.505zm175.33-.265c-.49-.491-.112-1.552.883-2.47.582-.537 1.058-1.1 1.058-1.25 0-.318-14.018-14.36-14.336-14.36-.12 0-.216-.153-.216-.34 0-.188-.52-.891-1.155-1.564-1.047-1.108-1.635-2.361-1.277-2.72.327-.327 1.403-.103 1.56.325.094.254.537.85.984 1.322.448.473 1.06 1.128 1.36 1.455.3.328 1.192 1.216 1.984 1.973.791.757 1.658 1.687 1.926 2.066.268.38.774.799 1.124.932.35.133.638.42.638.636 0 .217.427.685.95 1.04.523.355 1.236 1.066 1.585 1.578.348.513.873 1.008 1.165 1.101.293.093.538.31.544.482.006.172.6.779 1.322 1.348.722.57 1.313 1.186 1.313 1.37 0 .184.36.617.801.962.561.439.852.942.967 1.673.091.575.284 1.123.428 1.217.47.308-.015.94-.848 1.107-.55.11-1.051.505-1.544 1.218-.75 1.084-.911 1.203-1.215.899zm67.947 17.532c-.29-.442-.393-1.11-.337-2.183.07-1.344.15-1.547.609-1.547.415 0 .539.191.573.882.024.485.096.934.16.997.063.063.51-.631.992-1.543.483-.912.98-1.699 1.103-1.748.123-.05.381-.247.573-.44.193-.191.484-.265.65-.164.204.127-.035.845-.752 2.264-.577 1.143-1.05 2.234-1.05 2.425 0 .465-1.251 1.693-1.726 1.693-.208 0-.566-.286-.795-.636zm-221.767-19.74c-1.338-.54-2.818-4.16-2.23-5.452.169-.368.236-.783.15-.921-.311-.505.185-1.802.763-1.99 1.382-.453 3.62.11 3.62.91 0 .272.238.71.529.974.396.358.53.818.533 1.827.005 1.612.162 1.883 1.134 1.952.74.053.742.051.685-1.51-.053-1.486-.005-1.62.963-2.641 1.097-1.157 2.632-1.857 3.084-1.405.342.342-.189 1.38-.707 1.38-.205 0-.694.42-1.085.933-.695.91-.706.984-.466 3.045.16 1.375.154 2.204-.016 2.374-.368.368-1.113.326-1.527-.086-.69-.688-1.786-1.281-2.057-1.114-.152.094-.277.383-.277.643 0 1.102-1.63 1.67-3.096 1.08zm1.986-2.175c.044-.228-.462-.95-1.124-1.603-.82-.807-1.205-1.409-1.205-1.878 0-.38.119-.691.264-.691.146 0 .265.165.265.366 0 .411 1.284 1.349 1.521 1.111.265-.264-.838-2.236-1.322-2.364-.554-.146-.588-.097-.985 1.382-.312 1.162-.22 1.692.586 3.394.41.868 1.847 1.07 2 .283zm269.133 21.078c0-.519-.123-1.174-.274-1.456-.152-.283-.34-1.317-.421-2.298-.283-3.448-1.693-9.325-2.237-9.325-.134 0-.243-.476-.243-1.059 0-.582-.119-1.058-.264-1.058-.146 0-.265-.26-.265-.576 0-.619-.39-1.952-.967-3.3-.196-.459-.356-1.187-.356-1.618 0-.43-.109-1.365-.242-2.076-.133-.712-.268-4.389-.3-8.173-.068-8.023-.41-13.202-.937-14.196-.205-.386-.373-1.103-.373-1.592 0-.49-.238-1.75-.53-2.8-.604-2.185-.666-3.261-.21-3.716.484-.485 1.005-.379 1.005.205 0 .526.857 4.196 1.338 5.728.142.454.334 1.972.426 3.373.092 1.401.26 2.547.372 2.547.113 0 .218 3.574.233 7.941.015 4.416.142 8.241.284 8.617.142.37.257 1.285.257 2.031 0 .746.305 2.375.677 3.62.373 1.246.798 2.682.944 3.191.146.51.36 1.165.477 1.456.457 1.15.812 2.445.812 2.963 0 .299.165.68.365.846.2.167.434.925.518 1.686.085.761.272 2.017.417 2.791.144.774.344 2.709.445 4.3.18 2.836.172 2.892-.384 2.892-.473 0-.567-.156-.567-.944zm-41.885-.076c-.483-.555-.815-4.498-.459-5.435.145-.379.444-.689.666-.689.31 0 .403.323.403 1.411 0 .776.09 1.5.199 1.61.109.109.198.516.198.904 0 1.218.688.789 1.625-1.015.832-1.602 1.486-2.38 1.998-2.38.333 0 .25.585-.207 1.454-.23.437-.596 1.316-.814 1.953-.722 2.108-2.658 3.282-3.61 2.187zM63.792 137.812c-.328-.053-.596-.276-.596-.494 0-.219-.178-.576-.396-.794-.27-.27-.41-1.003-.436-2.297-.07-3.501-.4-6.177-.79-6.418-.126-.078-.23-.445-.23-.814 0-.37-.163-1.047-.362-1.506-.465-1.07-.912-2.713-1.037-3.817-.082-.72.002-.89.503-1.017.754-.189 1.184.06.987.572a.825.825 0 00.103.72c.28.361.75 2.13 1 3.767.203 1.331.703 2.778.96 2.778.108 0 .267-.115.354-.255.335-.542 2.062-.807 2.815-.431.516.257.8.278 1.006.073.157-.158.286-.206.286-.108 0 .098.298.065.661-.073.364-.138.672-.165.685-.06.012.106.057.77.1 1.478l.077 1.285-1.026-.164c-.896-.143-1.026-.099-1.026.35 0 .282-.173.685-.383.896-.752.751-1.47 2.331-1.47 3.235 0 .504-.131.918-.293.918-.171 0-.231.247-.145.595.2.803-.572 1.708-1.347 1.582zm.992-5.777c0-.25.148-.368.361-.286.356.136.962-1.31.962-2.296 0-.532-.877-.573-1.302-.06-.453.545-.792 1.906-.63 2.527.168.64.609.724.609.115zm4.3 4.737c-.538-.104-.717-.371-.627-.938.017-.11-.082-.199-.221-.199-.279 0-.802-1.66-.805-2.55 0-.313.195-.643.434-.735.563-.216 1.417.557 1.417 1.283 0 .51.624 1.672 1.076 2.002.23.17-.197 1.335-.472 1.287-.114-.02-.475-.087-.803-.15zm217.353 19.096c-.594-.594-1.148-2.505-.726-2.505.153 0 .89-1.77.914-2.195.017-.296 2.265-1.774 2.698-1.774.2 0 .357.277.357.63 0 .44-.223.721-.744.936-1.486.616-2.222 3.13-1.092 3.734.3.16 1.252.263 2.115.228 1.726-.07 2.088.08 1.533.635-.71.71-1.525.98-2.95.98-1.184 0-1.554-.117-2.105-.669zm11.765.41c-.48-.114-1.102-.416-1.385-.672-.397-.36-.778-.428-1.689-.303-1.298.178-1.685-.17-1.03-.923.333-.384.317-.564-.134-1.455-.596-1.177-.527-2.302.244-4.009.447-.988.746-1.243 2.252-1.918 2.103-.944 2.352-.956 2.887-.14.787 1.202-.168 5.62-1.367 6.32-.2.116-.363.37-.363.566 0 .415 1.83 1.206 2.792 1.206.775 0 1.114.629.645 1.194-.348.42-1.43.47-2.852.133zm-.708-4.516c.404-.583.759-1.458.788-1.944.03-.485.144-1.028.254-1.206.36-.584-.237-.789-1.094-.374-.51.248-.906.68-1.014 1.111-.173.689-.186.693-.563.178-.33-.452-.421-.471-.635-.132-.7 1.106.391 4.356 1.23 3.67.165-.134.63-.72 1.034-1.303zm-13.474 4.092c-.089-.23-.161-1.186-.161-2.125 0-1.294.099-1.744.408-1.863.225-.086.48-.085.568.003.301.302.507 3.874.238 4.142-.389.39-.872.318-1.053-.156zm155.808 1.473c-.091-.148-.264-.208-.385-.134-.12.074-.287-.043-.37-.26-.18-.47.055-1.19.39-1.19.13 0 .235-.135.235-.3 0-.322.773-1 1.156-1.014.126-.005.174.28.107.63-.157.822.754 1.365 1.826 1.09.411-.106 1.284-.232 1.939-.28.654-.048 1.547-.226 1.984-.396.437-.17 1.032-.342 1.323-.382.29-.04 1.624-.387 2.962-.769s2.57-.695 2.738-.695c.168 0 .68-.163 1.139-.362.459-.2 1.37-.51 2.024-.69.655-.179 1.465-.433 1.799-.563.334-.13.876-.237 1.204-.237.327 0 .709-.112.847-.25.138-.137 1.383-.555 2.765-.929l5.027-1.358c2.192-.59 6.668-1.681 10.256-2.498.621-.141 1.419-.257 1.774-.257.354 0 1.275-.164 2.046-.364.771-.2 2.266-.45 3.321-.556 1.056-.106 1.986-.299 2.067-.43.08-.13.43-.237.777-.237.346 0 .691-.1.767-.221.075-.122.704-.243 1.397-.27 1.48-.055 4.377-.49 5.509-.826.436-.13 1.924-.37 3.307-.534 1.382-.165 4.24-.578 6.35-.92 2.11-.34 4.67-.694 5.688-.786 3.168-.284 6.861-.725 7.276-.87.219-.076 1.112-.18 1.985-.232.873-.053 3.195-.27 5.16-.482 4.459-.483 10.88-.958 12.369-.915 1.206.035 1.458.428.613.956-.28.175-2.335.447-4.564.604-3.88.272-12.339 1.18-13.536 1.453-.314.071-2.953.378-5.863.68-5.82.607-8.91.973-9.922 1.179a80.26 80.26 0 01-4.895.8c-.727.09-1.677.298-2.11.463-.434.165-1.092.268-1.464.229-.372-.04-1.237.054-1.923.208a51.7 51.7 0 01-3.033.543c-2.313.34-5.391.913-8.51 1.582-1.367.294-2.893.534-3.39.534-.497 0-1.15.132-1.452.293-.301.162-.86.324-1.24.36-1.884.182-3.468.496-3.468.687 0 .118-.209.204-.463.192-.85-.04-7.125 1.556-8.665 2.204-.291.123-1.125.348-1.852.5-.728.151-1.86.443-2.514.648-2.81.879-8.222 2.51-10.054 3.03-1.092.31-2.342.675-2.778.81-2.298.716-7.346 1.066-7.676.532zm135.756-8.156c-.23-.445-.419-1.277-.419-1.848 0-.572-.158-1.17-.352-1.331-.203-.169-.304-.617-.239-1.06.138-.939-.337-1.294-.968-.724-.257.233-.606.423-.777.423-.17 0-.31.238-.31.53 0 .29-.122.529-.27.529-.15 0-.385.297-.523.661-.139.364-.374.662-.523.662-.15 0-.271.283-.271.63 0 .671-.797 1.344-1.928 1.628-.807.202-1.164-.263-.62-.807a2.72 2.72 0 00.564-.924c.092-.29.27-.527.396-.527s.305-.238.397-.528c.092-.29.308-.677.48-.86.173-.183.582-.85.909-1.481l.595-1.149-2.6-2.555c-1.429-1.406-3.476-3.33-4.55-4.275-1.072-.946-2.267-2.048-2.654-2.448-.387-.4-.81-.728-.94-.728-.13 0-.68-.472-1.221-1.048-.542-.576-1.316-1.258-1.72-1.515-.404-.258-1.716-1.447-2.917-2.643-2.335-2.326-2.648-3.06-1.523-3.572.616-.28.787-.17 2.58 1.667 2.488 2.55 3.21 3.165 3.81 3.253.27.04.49.19.49.334 0 .338 1.634 2.202 1.93 2.202.126 0 .507.297.849.661.342.364.713.662.825.662.112 0 1.14.952 2.286 2.116 1.146 1.164 2.21 2.117 2.366 2.117.155 0 .683.528 1.173 1.173.49.646 1.144 1.24 1.454 1.32.31.081.632.406.714.723.128.486.215.522.561.235.226-.188.41-.448.41-.578 0-.13.302-.715.67-1.298l.669-1.06-.647.162c-.51.129-.804-.02-1.397-.704-1.528-1.766-3.251-3.58-8.1-8.528-2.734-2.79-5.145-5.26-5.359-5.49-.582-.63-.495-1.76.152-1.966.587-.186 2.278 1.082 2.91 2.182.187.325.558.66.826.746.268.085.487.273.487.418 0 .251 2.066 2.383 3.451 3.56.73.621 3.182 3.27 4.289 4.635.4.494 1.158 1.404 1.684 2.023.526.618.888 1.124.806 1.124-.083 0 .152.327.522.726.438.472.887.698 1.285.646.337-.044.71.076.829.266s.181 1.812.138 3.603c-.047 1.96.03 3.387.193 3.584.15.18.279.56.288.845.045 1.494.163 2.236.357 2.249.553.037 1.77-2.233 2.558-4.775.203-.655.525-1.426.716-1.713.19-.287.346-.73.346-.984 0-.455 1.55-2.863 1.837-2.855.081.002.325.116.541.252.335.212.266.507-.463 1.986-.47.955-.856 1.913-.856 2.128 0 .216-.12.392-.265.392-.145 0-.264.274-.264.609 0 .334-.103.721-.229.86-.126.138-.373.846-.55 1.574-.175.727-.475 1.501-.665 1.72-.19.218-.426.635-.523.926-.241.72-1.522 1.69-2.488 1.883-.69.138-.848.053-1.212-.65zm-.948-7.186c0-.419-.116-.834-.257-.92-.318-.197-.652 1.032-.435 1.598.24.627.692.186.692-.678zm-191.294 7.162c0-.281.228-.584.506-.672.278-.088.708-.483.957-.877a10.63 10.63 0 011.081-1.38c.347-.363 1.048-1.196 1.559-1.851.51-.655 1.046-1.335 1.19-1.51.145-.176.263-.444.263-.596 0-.151.1-.276.22-.276.121 0 .39-.325.596-.723.206-.398 1.03-1.391 1.83-2.208.8-.817 1.842-1.917 2.315-2.445.473-.528.86-.903.86-.833 0 .069.625-.482 1.39-1.224 2.118-2.058 4.595-4.207 4.857-4.216.13-.004.583-.36 1.007-.793.425-.433.89-.787 1.034-.787.144 0 .66-.304 1.148-.676.839-.64 1.412-.674 1.412-.085 0 .284-1.235 1.399-2.36 2.13-.744.484-1.993 1.554-3.5 2.998-.53.509-1.054.925-1.164.925-.11 0-.833.655-1.609 1.455-.775.8-1.53 1.455-1.68 1.455-.148 0-.27.098-.27.217 0 .118-.744 1.003-1.654 1.966-.91.963-1.984 2.146-2.388 2.628l-2.315 2.769c-.87 1.04-1.58 2.022-1.58 2.183 0 .16-.12.292-.265.292-.146 0-.268.148-.272.33-.004.182-.422.778-.93 1.323-1.036 1.115-2.238 1.373-2.238.481zm-99.417-.193c-.449-.181-.418-1.01.052-1.4.535-.444 1.578-.24 1.687.331.174.914-.736 1.474-1.739 1.069zm299.872-1.18c-.272-1.364-.187-3.544.152-3.884.916-.916 1.655.135 1.581 2.249l-.029.846.941-.556c1.036-.61 1.318-1.064.99-1.587-.118-.188-.183-.54-.143-.783.04-.241-.052-.516-.205-.61-.152-.095-.277-.364-.277-.598 0-.235-.182-.628-.405-.874-.9-.994.652-2.755 1.858-2.11.468.251.595.551.597 1.417.003.604.156 1.702.342 2.44.283 1.123.278 1.484-.034 2.196-.42.96-2.434 2.247-3.156 2.017-.248-.078-.6.039-.785.26-.57.688-1.245.487-1.427-.424zm6.977.163c-.542-.654-.007-1.305 1.153-1.403 1.016-.087 1.257-.538.585-1.095-.209-.173-.456-.663-.55-1.088-.092-.424-.279-.84-.413-.923-.39-.24-.283-1.366.171-1.82.811-.811 2.69-.363 1.994.475-.307.37.162 2.02.575 2.02.122 0 .14.131.04.293-.1.162-.032.387.152.5.535.332.068 1.907-.76 2.558-1.028.81-2.479 1.047-2.947.483zm8.931-1.109c-.254-.065-.463-.274-.463-.464s-.182-.496-.404-.68c-.336-.28-.517-.231-1.063.281-.55.517-.775.575-1.38.357-.671-.241-.719-.354-.642-1.533.07-1.077.232-1.41 1.058-2.17 1.063-.975 1.57-1.116 1.806-.501.084.218.378.397.654.397.275 0 .5.178.5.396 0 .219.12.397.265.397.145 0 .265.291.265.647 0 .368.253.824.59 1.06.564.395.57.442.152 1.132-.473.78-.635.863-1.338.681zm2.626-1.072c-.064-.11-.198-.688-.297-1.287-.14-.841-.079-1.19.267-1.536.585-.585 1.6-.455 1.49.191-.074.439-.02.447.662.102.408-.207 1.166-.453 1.685-.546.794-.144 1.032-.066 1.52.495.744.856.796 2.41.088 2.635-.719.228-1.317-.084-1.41-.735-.124-.859-.86-.836-2.173.068-1.201.826-1.622.967-1.832.613zm-221.78-.926c-.25-.764-.505-1.48-.568-1.59-.062-.11-.15-.948-.194-1.863-.045-.94-.288-2.06-.558-2.578-.262-.503-.486-1.48-.498-2.17-.02-1.245-.028-1.256-.815-1.129-2.732.442-7.884 1.097-11.377 1.446-3.808.381-11.364 1.411-12.7 1.732-.29.07-1.64.305-2.998.522-1.357.217-2.958.527-3.557.688-.599.162-1.631.39-2.294.508s-2.574.577-4.248 1.02c-4.382 1.16-5.097 1.362-5.688 1.61-.843.356-3.372.835-3.536.67-.277-.276.395-1.047 1.25-1.431.593-.268.799-.506.684-.794a6.233 6.233 0 01-.258-.876 2.887 2.887 0 00-.29-.781c-.109-.175-.347-1.335-.53-2.58-.546-3.725-.846-4.974-1.8-7.498-.374-.989-.68-2.066-.68-2.394 0-.736.468-1.239.972-1.045.287.11.34-.01.217-.496-.27-1.075.573-1.54 3.754-2.068 1.575-.262 3.756-.554 4.847-.65 1.091-.095 2.342-.283 2.778-.418.437-.136 1.806-.363 3.043-.505 2.445-.282 3.878-.511 4.498-.722.218-.074 1.29-.188 2.381-.253 1.091-.065 3.71-.288 5.82-.495 2.11-.206 5.266-.456 7.012-.554 2.66-.15 3.27-.265 3.763-.713.556-.505.821-.526 4.855-.374l4.267.161-.185-.717c-.102-.394-.224-1.848-.273-3.23-.048-1.383-.22-3.11-.382-3.837-.533-2.391-.624-3.808-.272-4.232.535-.645.992-.46 1.142.462.077.473.244 1.276.37 1.784.294 1.183.686.653.66-.891-.023-1.286.372-2.45.898-2.653.233-.09.614.228 1.01.841.704 1.09 1.725 2.084 2.933 2.858.79.506 1.299.912 2.875 2.293.456.4 1.156.876 1.556 1.057.4.182.728.407.728.502 0 .095.595.555 1.323 1.022.728.467 1.323.962 1.323 1.1 0 .139.536.49 1.19.779.655.29 1.191.615 1.191.723 0 .108.804.645 1.786 1.194a64.503 64.503 0 012.977 1.77c.654.425 1.428.883 1.72 1.016.29.134.945.524 1.455.866.509.342 1.251.79 1.649.995.917.473 1.187 1.269.623 1.834-.358.357-.518.372-.965.093-1.319-.823-3.467-1.904-3.786-1.904-.192 0-.565-.238-.829-.529-.263-.29-.642-.529-.843-.529-.2 0-.432-.179-.516-.397-.084-.218-.312-.397-.506-.397-.484 0-2.233-1.03-2.987-1.759-.341-.329-1.175-.864-1.853-1.19-.677-.324-1.383-.8-1.568-1.056-.185-.256-.93-.788-1.654-1.183-.725-.394-1.317-.807-1.317-.918 0-.11-.447-.474-.993-.808-.907-.555-2.894-2.102-5.412-4.21l-.98-.822-.465 1.012c-.557 1.213-.61 4.117-.099 5.352.218.526.293 1.365.202 2.251-.12 1.162-.074 1.407.258 1.38.222-.018.537.173.7.425.232.357.2.555-.144.9-.356.355-.925.435-2.906.406-1.356-.02-3.213-.111-4.128-.204-1.3-.132-1.763-.08-2.117.237-.344.31-1.88.507-6.406.828-3.274.231-6.548.506-7.276.61-.728.105-1.502.168-1.72.14-.218-.028-1.761.124-3.428.338-1.668.213-3.61.388-4.315.388-1.525 0-3.634.49-3.634.843 0 .138-.246.173-.548.077-.789-.25-3.639.13-4.05.54-.206.206-.93.343-1.777.334-.787-.008-1.897.092-2.467.221-1.275.29-1.594.895-.471.895 1.011 0 1.343.936.583 1.644-.75.698-1.162.588-2.098-.56-.836-1.027-1.78-1.281-2.411-.65-.28.279-.034 1.418.305 1.418.129 0 .234.233.234.517 0 .284.104.79.23 1.125.848 2.232 1.217 3.925 1.517 6.957.072.728.235 1.561.363 1.852.396.904.499 2.09.225 2.6-.143.269-.21.539-.15.6.062.062.876-.14 1.808-.447.933-.307 2.112-.61 2.622-.67.509-.063 1.461-.28 2.116-.482.655-.204 2.084-.57 3.175-.815 1.092-.245 2.58-.603 3.308-.795a42.32 42.32 0 013.042-.642c.946-.16 2.256-.401 2.91-.536.656-.134 2.382-.375 3.837-.535 1.455-.16 3.003-.397 3.44-.527.436-.129 2.4-.37 4.365-.537 1.965-.166 4.168-.42 4.895-.562.728-.142 2.395-.316 3.704-.386 1.31-.07 3.394-.282 4.63-.47 2.278-.347 2.911-.231 2.911.533 0 .2-.172.364-.381.364-.639 0-.735.493-.272 1.393.403.784.646 1.965 1.073 5.222.086.655.329 1.575.54 2.045.337.754.334.947-.031 1.653-.227.44-.52.8-.65.8s-.44-.625-.69-1.39zM6.045 124.024c0-1.002.602-3.406 1.083-4.326.132-.253.24-.611.24-.796 0-.405 1.241-2.81 1.752-3.396.2-.23.365-.559.365-.732 0-.319 1.96-2.485 4.96-5.48 1.98-1.978 4.706-4.047 5.622-4.268.365-.088.96-.363 1.324-.613 3.032-2.077 9.854-2.305 13.362-.446.29.154.844.44 1.229.634.385.194.846.53 1.024.745.179.215.49.391.69.391.2 0 .364.12.364.265 0 .312.71.36.838.056.106-.251 2.785-1.908 3.085-1.908.116 0 .68-.224 1.253-.498 1.632-.78 3.593-1.09 6.9-1.09 5.372 0 9.986 1.35 12.258 3.587.593.584.615.682.24 1.057-.376.376-.504.361-1.382-.156-.532-.314-.967-.664-.967-.777 0-.343-4.514-1.834-6.35-2.097-2.727-.39-7.277-.164-9.165.457-1.58.52-3.797 1.539-4.064 1.868-.073.09-.363.29-.644.445-.281.155-.65.69-.817 1.19-.32.949-1.185 1.42-1.185.645 0-.24-.149-.602-.33-.804-.667-.743-.975-1.055-1.336-1.352-.622-.511-3.719-1.917-4.42-2.007-.363-.047-.791-.167-.95-.267-.677-.425-2.49-.53-2.925-.169-.242.2-1.046.372-1.788.382-2.184.027-7.38 2.298-8.769 3.833-.256.284-.625.515-.82.515-.195 0-.721.506-1.17 1.125-.447.618-.947 1.124-1.11 1.124-.162 0-.805.655-1.429 1.456-.624.8-1.554 1.871-2.068 2.38-.514.51-.934 1.135-.933 1.39.001.255-.091.463-.205.463-.327 0-1.116 1.478-1.116 2.091 0 .305-.165.555-.368.555-.432 0-.729 1.33-.784 3.515-.026 1.04-.166 1.612-.435 1.782-.775.49-1.059.284-1.059-.769zm431.507 26.222c-.541-.564-.728-1.089-.861-2.425-.094-.937-.312-2.093-.483-2.567-.249-.688-.217-1.713.156-5.043.258-2.298.5-4.655.54-5.237.04-.582.138-1.237.22-1.455.081-.219.228-1.171.326-2.117s.285-2.494.415-3.44c.13-.946.361-2.731.514-3.968a95.59 95.59 0 01.533-3.72c.33-1.89.334-8.796.006-9.126-.137-.138-.286-1.025-.33-1.971-.076-1.61-.044-1.725.513-1.804.724-.103.878.26 1.51 3.562.579 3.02.323 7.944-.644 12.397-.158.728-.266 1.62-.24 1.985.025.363-.019.84-.098 1.058-.154.426-.54 3.295-1.009 7.517-.16 1.443-.398 2.903-.528 3.245-.344.906-.337 7.906.01 9.61.325 1.6.5 4.238.28 4.227-.077-.004-.45-.332-.83-.728zm-200.267-9.204c-.142-.373-.258-.902-.258-1.175s-.12-.57-.265-.66c-.145-.09-.265-.55-.265-1.02 0-.472-.141-1-.315-1.174-.18-.18-.286-.872-.246-1.623.038-.719-.059-1.547-.215-1.84-.257-.48-.581-2.076-.987-4.86-.08-.546-.25-.992-.381-.992-.437 0-.242-.972.292-1.455.3-.272.53-.347.53-.174 0 .168.155.306.346.306.19 0 .556.154.813.341.405.297.423.44.132 1.078-.271.594-.27.775.003.944.213.131.432 1.312.595 3.215.142 1.654.309 3.057.37 3.118.142.142 2.827-.699 4.28-1.34 1.185-.524 1.618-.959 1.229-1.234-.132-.093-.278-1.36-.325-2.815-.048-1.455-.202-2.787-.343-2.96-.28-.34-.044-2.56.352-3.324.132-.254.482-.463.778-.463.417 0 .5.119.37.528-.224.707.37 7.739.681 8.058.135.138.245.742.245 1.34 0 1.35.93 4.98 1.309 5.107.415.138.337 1.523-.107 1.891-.434.36-.938.159-.938-.375 0-.194-.176-.42-.392-.503-.216-.083-.331-.31-.256-.505.075-.196-.046-.791-.27-1.325-.222-.533-.404-1.39-.404-1.904s-.058-.935-.128-.935-.77.412-1.555.914c-.786.503-1.487.856-1.557.785-.224-.223-2.581.515-2.581.809 0 .155.242 1.155.538 2.222.412 1.49.466 2.028.232 2.31-.472.569-1.022.438-1.306-.31zm346.875-.611c0-.345.254-.547.836-.663 1.056-.212 1.173-.09.58.605-.597.696-1.416.73-1.416.058zm-334.698-1.072c0-.135-.198-.284-.44-.33-.663-.13-.81-3.281-.216-4.633 1.407-3.201 1.54-3.387 2.49-3.477 1.393-.133 2.664.18 2.664.656 0 .54 1.536 3.915 2.464 5.414.364.587.044 1.292-.586 1.292-.624 0-1.556-1.232-1.78-2.353-.089-.445-.326-.946-.527-1.113-.3-.249-.365-.12-.366.722-.003 1.416-.464 2.945-1.074 3.555-.532.532-2.629.745-2.629.267zm2.123-2.021c.384-1.01.313-1.963-.159-2.144-.23-.088-.527-.449-.66-.801-.135-.353-.356-.573-.491-.49-.41.254-.636 2.927-.3 3.552.418.782 1.293.719 1.61-.117zm.846-4.36c.09-.615.03-.771-.257-.661-.206.079-.483.143-.617.143-.347 0-.3.63.075 1.006.493.493.67.384.799-.488zm6.958 6.28c-.434-.147-.949-.428-1.144-.623-.195-.194-.435-.355-.534-.356-.242-.003-.84-1.322-.84-1.853 0-.234.241-1.372.537-2.527.656-2.561 1.748-3.82 3.313-3.82.833 0 .938.073.864.595-.06.427-.291.62-.812.68-1.199.137-2.535 2.468-2.573 4.489-.01.503 1.524 1.909 2.083 1.909.63 0 1.802-.928 2.014-1.594.242-.763 1.03-.693.826.073-.088.327-.162.722-.164.878-.006.463-1.429 1.918-2.13 2.178-.407.15-.947.14-1.44-.028zm-135.381-20.225c-1.319-1.573-1.36-1.783-1.221-6.147.081-2.557.258-4.373.462-4.755.266-.497.263-.823-.013-1.661-.245-.74-.265-1.172-.07-1.484.334-.533 1.575-.722 2.066-.314.386.32 3.05.093 3.05-.26 0-.263 2.367-.892 3.044-.81.808.099 1.094.497.65.907-.444.409-2.921 1.304-4.953 1.79-1.418.34-2.365 1.22-2.088 1.942.073.19-.032.805-.233 1.368-.226.635-.369 2.182-.376 4.082l-.012 3.06.783.578c.43.319 1.052.58 1.38.58.603 0 2.884-.769 3.129-1.054.274-.32 3.656-1.857 4.086-1.857.309 0 .422.177.364.568-.094.635-3.533 2.91-5.361 3.548-1.573.548-4.198.502-4.687-.081zm-113.996-.597c-.315-.195-.303-.31.079-.73.249-.276.452-.622.452-.77 0-.277.85-1.144 1.12-1.144.085 0 .091.238.015.529-.076.29-.234.529-.35.529-.118 0-.292.356-.387.79-.204.929-.418 1.112-.929.796zm127.796-.987c-.77-.296-1.276-1.17-1.715-2.959-.553-2.259-.47-3.329.257-3.329.434 0 .567.256.756 1.456.126.8.39 1.547.587 1.66.197.113.304.351.239.53-.065.177-.007.499.13.713.208.329.353.29.923-.245.371-.349.675-.75.675-.891 0-.142.256-.96.57-1.82.472-1.294.664-1.548 1.124-1.482.432.062.548.256.523.873-.045 1.107-2.098 5.424-2.58 5.424-.213 0-.546.05-.74.111-.194.062-.53.043-.75-.041zm7.943-.798c-.507-.254-1.176-.845-1.488-1.312-.312-.467-.642-.775-.733-.683-.091.09-.18-.628-.195-1.598-.016-.97-.038-2.032-.048-2.36-.01-.327.123-.565.294-.529.184.04.312-.253.312-.712 0-1.048.234-1.133 1.82-.662 1.29.383 1.355.446 1.355 1.313 0 1.066-.73 3.046-1.273 3.455-.608.456-.123 1.387 1.028 1.974 1.184.604 1.183.602.623 1.162-.518.518-.57.517-1.695-.048zm-.469-4.851c.597-1.048.584-1.3-.066-1.3-.29 0-.529.104-.529.231 0 .128-.074.604-.165 1.059-.211 1.054.163 1.06.76.01zm120.147 24.222c-.086-.224-.083-.867.007-1.43.166-1.042-.331-4.265-1.065-6.894-.224-.8-.513-1.872-.643-2.381-.13-.51-.427-1.54-.659-2.29-.54-1.744-.432-2.579.35-2.69.349-.05.607.06.625.265.044.503.113.825.274 1.275.52 1.456 1.032 3.35 1.433 5.292.255 1.237.505 2.3.556 2.362.129.156.847-.782 1.146-1.495.328-.782 1.872-1.416 2.83-1.161.623.165.756.356.825 1.185.051.608-.127 1.423-.463 2.117-.3.62-.546 1.277-.546 1.46 0 .182-.178.51-.397.729-.218.218-.397.793-.397 1.278 0 .741.126.925.794 1.158.905.315 1.037.95.282 1.353-.76.407-1.279.336-1.87-.255-.657-.657-.707-2.437-.102-3.572.62-1.163 1.439-3.6 1.29-3.843-.26-.42-1.072.059-1.715 1.012-.587.87-.666 1.28-.707 3.682-.026 1.487-.123 2.827-.215 2.977-.26.421-1.458.323-1.634-.134zm-111.915-19.98c-.338-.126-.752-.7-1.028-1.422-.255-.665-.518-1.21-.587-1.21-.068 0-.358.298-.645.662-.58.738-1.384.855-1.956.283-.587-.587-.48-1.474.176-1.474.304 0 .856-.238 1.226-.529.37-.291 1.004-.53 1.41-.53.641 0 .84.216 1.556 1.685.927 1.904.867 2.916-.152 2.535zm119.43 18.96c-.255-.193-.463-.487-.463-.653 0-.165-.105-.301-.233-.301-.54 0-.787-2.23-.444-4.015.63-3.27 1.943-4.536 3.66-3.528 1.289.757 1.476 1.021 2.44 3.432.23.577.539 1.124.686 1.215.147.09.287.422.31.737.024.314.137.571.252.571.114 0 .208.285.208.633 0 .754-.697 1.1-1.267.629-.443-.366-1.643-2.912-1.643-3.486 0-.406-.736-1.097-.945-.888-.076.076-.19.897-.254 1.824-.186 2.706-.357 3.323-1.048 3.776-.762.5-.678.495-1.26.054zm1.08-3.005c.462-2.189.638-3.75.472-4.183-.144-.373-.206-.376-.558-.024-.834.835-1.206 3.21-.761 4.869.252.94.56.7.848-.662zM164.337 115.06c-.124-.039-.178-.486-.118-.995.142-1.218.998-1.476 2.126-.642.817.603 1.627.555 1.627-.097 0-.424-1.455-2.518-2.712-3.903-.254-.281-.463-.69-.463-.907 0-.219-.119-.397-.264-.397-.44 0-.28-1.152.25-1.786.28-.337.794-.596 1.181-.596.77 0 .88.303.289.794-.559.464-.494 1.155.165 1.745 1.136 1.018 3.142 4.296 3.142 5.133 0 1.46-.68 1.867-2.983 1.79-1.108-.038-2.116-.1-2.24-.14zm-4.469-.784c-.085-.258-.32-.844-.523-1.303-.203-.458-.368-.975-.368-1.149 0-.216-.455-.286-1.456-.224-1.233.077-1.462.02-1.495-.373l-.066-.764c-.014-.165.318-.338.738-.383 1.38-.147 1.445-.228 1.163-1.478-.142-.63-.318-2.186-.391-3.459-.13-2.242-.114-2.32.488-2.545.602-.224.624-.183.695 1.256.04.817.143 1.665.229 1.883.085.219.202.848.258 1.399.056.55.274 1.414.485 1.918.347.832.482.917 1.455.917.703 0 1.072.118 1.072.344 0 .53-.57.979-1.244.979-.702 0-.745.193-.203.91.557.737.486 1.812-.147 2.207-.456.285-.558.265-.69-.135zm-34.229-.874c0-.296.208-.614.463-.708.255-.094.527-.264.604-.378.078-.114 1.065-.41 2.193-.658 1.61-.354 2.12-.381 2.372-.128.252.252.178.431-.34.83-.364.28-.848.512-1.075.515-.227.003-.906.244-1.509.535-1.48.716-2.708.712-2.708-.008zm156.865 19.323c-.052-.418-.117-.617-.432-1.323a15.59 15.59 0 01-.539-1.455c-.253-.825-.398-.867-1.862-.542-.817.182-.875.151-.794-.42.05-.347.46-.851.938-1.15.898-.565 1.074-1.234.605-2.308-.35-.801-.768-6.484-.54-7.343.106-.396.4-.705.718-.752.504-.075.548.094.684 2.646.156 2.919.67 6.238 1.043 6.73.155.206.54.229 1.212.073 1.49-.346 1.91-.295 1.91.23 0 .55-1.274 1.38-2.12 1.38-.478 0-.553.108-.416.596.925 3.292.916 3.226.476 3.572-.51.399-.838.424-.883.066zm12.402-1.517c-.4-.252-.727-.599-.727-.771a.468.468 0 00-.301-.414c-.496-.165-.617-3.942-.146-4.567.36-.477.455-.489 1.11-.138.658.352.753.338 1.162-.167.565-.698 1.614-1.282 1.614-.9 0 .153-.238.48-.529.73-.634.543-.664.84-.125 1.234.222.162.58.95.794 1.749.39 1.449.37 1.613-.396 3.173-.278.569-1.604.607-2.456.071zm1.693-2.185c-.105-1.3-.837-2.276-1.512-2.017-.584.225-.327 1.636.415 2.28.29.252.529.603.529.78 0 .177.149.271.33.21.217-.074.3-.506.238-1.253zm-9.964 1.784c-.702-2.88-1.61-11.96-1.297-12.965.08-.255.37-.463.644-.463.62 0 .792.812.896 4.233.098 3.208.441 6.35.694 6.35.108 0 .268-.387.356-.86.225-1.207.334-1.781.545-2.846.127-.64.4-1.03.881-1.256 1.115-.527 1.314-.406 1.65.994.175.729.395 1.373.49 1.432.094.059.171.922.171 1.917 0 1.634-.051 1.81-.53 1.81-.434 0-.56-.235-.703-1.323-.097-.728-.287-1.74-.422-2.249l-.247-.926-.285.662c-.156.363-.419 1.733-.583 3.042-.305 2.437-.632 3.043-1.641 3.043-.272 0-.535-.254-.619-.595zm163.778 5.556c.199-.716.844-2.413 1.332-3.506a7.54 7.54 0 00.479-1.72c.181-1.348.998-4.586 1.235-4.894.111-.146.286-.682.389-1.191.366-1.818 1.781-5.694 2.197-6.02 1.117-.87 1.358-.261 1.654 4.183.315 4.734.704 7.487 1.076 7.617.165.058.155.22-.027.44-.19.229-.198.403-.023.512.146.09.2.339.117.552-.19.495.952 1.7 1.435 1.515.201-.077.477-.392.613-.7.136-.307.482-.946.768-1.419.287-.473.572-1.128.635-1.455.309-1.608.83-3.284 1.14-3.658.189-.23.344-.633.344-.896 0-.64.563-2.592.838-2.907.121-.138.22-.449.22-.691 0-.804 1.577-4.278 2.245-4.946.583-.583.677-.607.83-.207.098.255-.061.871-.367 1.42-.298.535-.737 1.805-.975 2.824-.24 1.018-.546 2.055-.682 2.303-.136.248-.325.963-.42 1.588-.096.624-.28 1.272-.411 1.438-.238.303-1.76 4.793-1.96 5.782-.059.29-.227.569-.374.618-.147.049-.267.255-.267.459 0 .203-.407.788-.904 1.3-.727.749-1.103.93-1.918.927-.558-.002-1.147-.091-1.308-.198-1.083-.716-1.956-5.132-1.956-9.895 0-2.872-.22-3.501-.746-2.14-.248.64-.825 3.18-.977 4.3-.03.218-.19.732-.356 1.142-.166.41-.302.983-.302 1.274 0 .29-.128.768-.284 1.06-.304.568-.865 2.645-1.152 4.263-.108.611-.323.992-.56.992-.212 0-.385.12-.385.265 0 .145-.306.264-.68.264-.577 0-.654-.09-.513-.595zm-151.741-9.245c-.177-1.064-.434-2.147-.57-2.407-.342-.651-.02-1.511.564-1.511.6 0 .804.507.804 1.99 0 .635.103 1.217.23 1.295.296.184.922-.558 1.32-1.565.172-.437.704-1.061 1.18-1.387 1.028-.703 3.053-1.043 3.805-.64.566.302 1.67 2.983 1.664 4.038-.011 1.889-.92 2.525-1.189.833-.21-1.323-1.093-3.221-1.587-3.41-1.205-.463-2.69.756-3.835 3.152-.522 1.09-.81 1.4-1.363 1.464-.677.078-.712.015-1.023-1.852zm170.875 6.966a4.117 4.117 0 01-1.405-3.361c.171-2.53.482-4.613.689-4.613.13 0 .237-.175.237-.39 0-.452 1.48-1.295 1.86-1.06.389.24.308 1.079-.14 1.45-.48.398-.53 1.094-.066.914.182-.07.533-.484.781-.918.706-1.236 1.258-1.033 1.27.467.02 2.537.16 2.835 1.19 2.558.934-.25 2.507-1.03 2.51-1.244.006-.414 1.89-2.081 2.654-2.347l.783-.273-.17-3.553c-.195-4.059.03-4.95 1.215-4.81.58.067.715.275.99 1.517.204.923.229 1.605.07 1.9-.363.68-.303 3.507.084 3.917.265.281.263.376-.007.475-.22.08-.29.417-.203.959.29 1.779.48 3.53.51 4.672.03 1.15.003 1.193-.803 1.271-.619.06-.911.267-1.133.803-.89 2.15-2.71 2.948-4.089 1.794-.608-.509-.79-.913-.893-1.986-.075-.785.01-1.683.204-2.152.184-.443.284-.856.222-.918-.194-.194-2.031.536-2.565 1.02-.305.275-.458.669-.378.973.195.746-.134 2.15-.66 2.817-.782.99-1.718 1.03-2.757.118zm1.431-2.886c-.323-.214-.587-.554-.587-.754 0-.2-.119-.365-.264-.365-.512 0-.247.975.643 2.365.197.31.296.264.52-.238.231-.518.18-.68-.312-1.008zm8.356-.114c.175-.174.318-.74.318-1.258s.11-1.327.246-1.8c.334-1.165-.089-1.099-.86.135-.82 1.31-1.009 2.134-.629 2.742.365.584.497.61.925.181zm63.649 1.683c-.278-.191-.72-2.38-1.182-5.863-.3-2.258-.386-9.945-.136-12.17.44-3.923.467-8.695.06-10.981-.233-1.31-.424-2.918-.425-3.574 0-.655-.127-1.608-.281-2.116-.449-1.477-.473-2.147-.082-2.297.2-.077.362-.305.362-.508s.11-.369.243-.369c.134 0 .417-.066.63-.148.396-.152.617.568.893 2.915.068.576.187 1.15.264 1.276.49.793.612 11.255.186 16.066-.148 1.673-.175 3.385-.06 3.804.117.427.097.97-.046 1.237-.15.278-.161.729-.03 1.085.129.347.12.995-.022 1.506-.167.606-.155.99.038 1.184.157.157.286 1.065.287 2.018 0 .954.13 2.196.287 2.76.163.59.209 1.68.107 2.56-.17 1.459-.535 1.998-1.093 1.615zm-56.219-.24a1.533 1.533 0 010-.397c.017-.11-.207-.199-.498-.199-.29 0-.529-.169-.529-.375s-.124-.416-.275-.466c-.529-.176-.626-3.726-.142-5.183.807-2.431 3.62-4.346 4.618-3.143.163.196.369.888.458 1.538.198 1.442-.644 3.306-2.156 4.774-.983.955-1.035 1.532-.139 1.532.265 0 .63.179.811.397.181.218.553.397.826.397.642 0 .63.297-.035.867-.534.457-2.875.662-2.939.257zm.894-4.498c.44-.49 1.1-2.088 1.369-3.308.223-1.016-.33-.944-1.424.184-.729.752-.881 1.11-.872 2.05.016 1.784.15 1.939.927 1.074zm23.93 1.058c-.247-.982-.51-2.322-.585-2.977-.348-3.051-.438-3.44-.793-3.44-1.165 0-1.687-4.082-.755-5.9.752-1.466 2.324-3.337 2.815-3.348.259-.006.54-.19.623-.409.12-.309.645-.396 2.386-.396 2.105 0 2.27.041 2.874.727.423.48.643 1.057.649 1.698.005.533.138 1.013.297 1.066.33.11-.211 3.388-.56 3.388-.11 0-.269.27-.352.6-.083.33-.38.848-.662 1.15-.28.301-.701.917-.934 1.367-.233.45-.678.998-.99 1.215-.718.503-.477 1.224.41 1.224.36 0 .751.15.868.333.299.471 3.383 2.313 3.873 2.313.71 0 .78.546.156 1.21-.723.77-1.781.831-2.658.155-.347-.268-1.487-.893-2.534-1.39-1.047-.495-1.91-1.05-1.918-1.232-.019-.404-.449-.435-.687-.05-.096.155.016.492.249.749.427.472.554 2.026.256 3.137-.115.43-.357.596-.87.596-.655 0-.744-.137-1.158-1.786zm2.103-5.1c.43-.15.987-.623 1.24-1.05.251-.427.603-.931.78-1.12.388-.417 1.06-1.847 1.473-3.134.245-.764.222-1.195-.123-2.249-.503-1.54-1.198-2.23-2.25-2.23-.814 0-2.274.679-2.981 1.386-.439.438-.6 1.789-.214 1.789.118 0 .364 1.28.547 2.844.355 3.033.518 4.035.66 4.035.048 0 .438-.122.868-.272zm-17.098 3.38c.017-.66.679-1.171 1.913-1.48.692-.173 1.927-.61 2.745-.972 1.482-.655 3.8-.898 3.8-.398 0 .384-.995.959-2.778 1.603-.873.315-2.071.8-2.663 1.075-1.233.576-3.03.679-3.017.172zm34.656.132c.01-.464.476-.858 1.59-1.34 2.622-1.138 4.231-3.118 4.223-5.198-.003-.588-.283-1.83-.623-2.761-.5-1.372-.827-1.836-1.724-2.447-1.175-.801-2.678-1.004-3.139-.424-.165.207-.182.969-.045 2.05.12.946.157 1.928.081 2.182-.075.254.011.871.192 1.371.265.735.263.99-.015 1.324-.19.228-.48.415-.646.415-.413 0-1.22-2.36-1.22-3.566 0-.773-.118-1.012-.552-1.126-.476-.125-.528-.275-.375-1.1.202-1.09 1.165-2.472 2.19-3.143.501-.329 1.228-.455 2.575-.448 2.402.013 3.213.547 4.21 2.77.883 1.965 1.11 3.89.697 5.88-.268 1.295-.513 1.697-1.764 2.904-1.61 1.553-3.815 2.824-4.931 2.843-.4.007-.726-.076-.724-.186zm-7.677-.891c-.962-.383-2.102-1.551-2.548-2.612-.62-1.473-.773-4.762-.293-6.265.224-.703.49-1.67.59-2.149.203-.972 1.336-2.172 2.05-2.172.577 0 .587.24.042 1.017-.591.844-.363.927.982.354 1.486-.634 4.618-.978 4.89-.539.32.52-1.179 1.492-2.513 1.63-1.86.194-3.657.705-4.02 1.143-.181.217-.364.989-.407 1.715-.044.725-.15 1.433-.235 1.572-.086.138.03.252.256.252.227 0 .413-.119.413-.265 0-.145.297-.264.661-.264.364 0 .662.119.662.264 0 .147.705.265 1.587.265 1.212 0 1.588.09 1.588.385 0 .435-1.778 1.295-3.25 1.571-.541.102-.984.32-.984.485 0 .478 1.868 2.057 2.434 2.057.283 0 1.042-.309 1.686-.687.923-.54 1.172-.6 1.172-.285 0 .612-1.208 1.915-2.22 2.396-1.018.483-1.585.512-2.543.132zm-302.683-17.579c0-.227-.119-.339-.265-.249-.379.235-.327-.746.067-1.241.249-.314 1.038-.454 3.197-.566 1.577-.083 3.03-.286 3.23-.451.2-.166.475-.232.612-.147.137.085 1.84-.088 3.782-.385l6.083-.927c1.404-.213 3.19-.514 3.97-.67.779-.155 2.607-.38 4.063-.5 2.329-.191 4.823-.505 12.567-1.583 1.936-.27 7.275-.802 9.393-.937.582-.038 3.142-.315 5.689-.618 2.546-.302 7.011-.684 9.921-.849 2.91-.164 5.768-.345 6.35-.402 2.058-.202 14.296-.383 14.883-.22.328.09.596.328.596.526 0 .507-.597.587-5.689.767-5.812.204-13.118.596-17.463.937-1.891.148-4.153.32-5.027.381-.873.062-2.004.176-2.513.253-.51.077-1.938.21-3.175.295-1.237.086-2.428.224-2.646.309-.218.084-.635.131-.927.104-.291-.027-2.077.139-3.969.37-4.451.542-7.396.882-10.185 1.176-2.461.258-4.937.601-8.6 1.19-1.309.21-3.154.45-4.1.531-3.7.32-4.906.481-5.171.692-.152.12-1.104.293-2.117.383-1.012.09-2.317.323-2.899.519-.582.195-2.368.433-3.968.528-3.067.183-5.16.573-5.16.963 0 .129-.119.234-.264.234-.146 0-.265-.186-.265-.413zm327.775 4.732c-.567-.15-.792-.752-.587-1.57.277-1.103 1.954-1.642 1.954-.628 0 .45.116.506.727.359.4-.097 1.036-.392 1.414-.655.377-.263 1.448-.885 2.38-1.382 3.481-1.854 4.89-2.64 5.533-3.092.364-.255 1.376-.823 2.249-1.262 4.205-2.116 5.202-2.66 5.717-3.127.306-.276.633-.49.727-.472.321.058 3.08-1.354 3.292-1.685a.794.794 0 01.598-.33c.35 0 2.977-1.27 3.292-1.59.073-.075.787-.426 1.587-.782.8-.355 1.634-.77 1.852-.923.635-.443 1.546-.943 4.366-2.39 3.061-1.573 3.73-1.949 4.598-2.584.819-.599 1.355-.589 1.355.025 0 .454-.756 1.364-1.133 1.364-.092 0-.618.308-1.17.684a20.13 20.13 0 01-2.062 1.2c-.582.284-1.416.738-1.852 1.008-.437.271-2.64 1.428-4.895 2.57-2.256 1.144-4.165 2.164-4.243 2.267-.078.104-.554.373-1.058.6-.504.226-1.096.526-1.314.668-.218.142-1.35.715-2.513 1.274-1.801.866-5.67 2.935-7.012 3.75-.218.133-.873.45-1.455.703-.582.254-1.62.844-2.307 1.31-.687.466-2.056 1.238-3.043 1.714-.987.477-1.853.942-1.926 1.033-.073.092-.94.607-1.927 1.144-1.726.94-2.18 1.055-3.144.8zm-.485-6.507c0-.216.148-.512.33-.657.32-.254 4.149-2.227 4.961-2.556.219-.088.814-.412 1.323-.72.51-.307 2.264-1.258 3.898-2.113 1.635-.854 4.002-2.1 5.26-2.77 3.499-1.86 9.092-4.65 13.2-6.582 2.037-.958 3.882-1.84 4.1-1.958.219-.119 1.076-.592 1.904-1.052.83-.46 1.653-.836 1.832-.836.178 0 .533-.189.789-.42.314-.285.601-.344.887-.185.37.208.349.303-.18.778-.33.299-1.91 1.229-3.512 2.068-1.6.838-3.04 1.628-3.198 1.755-.158.127-2.003 1.08-4.1 2.12-2.098 1.038-4.023 2.07-4.279 2.294-.255.224-.54.331-.631.24-.092-.092-.478.046-.859.308-.38.261-1.108.64-1.617.842-.51.202-1.045.463-1.19.58-.312.25-1.832 1.039-10.17 5.274-3.411 1.732-6.328 3.254-6.483 3.381-.154.128-.727.316-1.273.418-.785.147-.992.103-.992-.209zM443.24 105.36c-.267-.696.023-1.55.697-2.05.487-.362 1.277-.531 2.91-.623 2.297-.128 4.562-.415 7.138-.903 1.51-.286 18.807-2.525 22.754-2.945 1.237-.131 3.618-.422 5.292-.646 5.535-.74 6.979-.907 10.45-1.21 1.893-.164 3.679-.4 3.97-.524.437-.186 1.927-.367 4.365-.533a48.217 48.217 0 001.985-.253c3.202-.457 6.835-.812 17.33-1.69.8-.067 4.519-.203 8.263-.304 6.262-.168 6.822-.146 6.98.267.095.248.068.554-.06.68-.13.127-1.782.304-3.674.393-5.688.269-11.995.66-15.081.934-1.6.143-4.28.374-5.953.513-1.674.14-3.995.376-5.16.525-1.164.149-4.14.51-6.614.801-2.474.292-5.45.647-6.615.79-1.164.143-3.962.444-6.217.669-3.776.376-6.71.738-11.907 1.47-1.091.153-2.52.328-3.175.39-.655.06-2.25.287-3.546.503-1.296.216-2.427.376-2.514.357-.273-.062-3.545.344-4.788.593-1.813.365-4.573.736-7.937 1.068-2.846.28-5.31.837-5.978 1.35-.159.122-.354.156-.434.076-.08-.08-.59.04-1.132.267-1.2.501-1.17.5-1.349.035zm123.525-19.003c-.291-.37-.382-.735-1.165-4.697-.706-3.571-1.008-3.827-3.243-2.75-.422.203-.978.369-1.234.369-.257 0-.516.148-.576.328-.081.243-.218.22-.526-.088-1.123-1.123 2.418-3.108 5.672-3.18 1.457-.032 2.25-.235 4.066-1.04 1.348-.596 3.024-.925 3.024-.593 0 .271-1.123 1.398-1.393 1.398-.092 0-.697.357-1.344.794-.758.511-1.51.794-2.115.794-1.066 0-1.366.295-.995.981.374.692.82 2.813.82 3.898 0 .518.119.941.264.941.349 0 .342 2.009-.009 2.664-.313.585-.863.665-1.245.18zm27.76-.01c-.15-.182-.415-1.162-.587-2.178s-.394-1.936-.493-2.044c-.098-.107-.543-.058-.989.11-.445.168-1.029.221-1.297.119-.45-.173-.437-.231.174-.771.363-.321.892-.718 1.175-.882.35-.203.497-.542.457-1.059-.264-3.44-.278-6.864-.03-7.163.306-.368 1.701-.475 1.892-.145.063.109.033.81-.066 1.558-.099.749-.114 2.296-.033 3.44.116 1.635.232 2.07.545 2.035.736-.081 2.245-.746 2.77-1.22.71-.642 1.313-.468 1.414.407.077.665.843 1.085.843.462 0-.397 2.124-1.854 2.704-1.854.849 0 .461 1.11-.635 1.817-.535.346-1.124 1.001-1.308 1.457-.537 1.326-2.497 2.814-3.165 2.401-.133-.082-.242-.678-.242-1.325 0-1.315-.03-1.33-1.323-.69-.723.357-.913.6-.868 1.11.031.36.137 1.445.234 2.412.16 1.594.127 1.784-.36 2.045-.401.214-.608.203-.812-.043zm-20.853-1.381c-.298-.775.184-2.153 1.088-3.111 1.004-1.065 3.016-2.433 3.244-2.206.079.079.493-.106.921-.41.978-.697 1.396-.358.852.691-.22.424-.354.957-.299 1.184.07.288.192.192.4-.314.315-.763 1.419-1.028 1.789-.43.614.994-.067 3.142-.996 3.142-.194 0-.501.239-.683.53-.82 1.311-2.62-.29-2.307-2.051.084-.473.106-.86.05-.86-.35 0-1.327 1.172-2.158 2.59-.944 1.611-1.597 2.038-1.901 1.245zm14.36-.15c-.383-.302-.697-.74-.697-.975 0-.326-.176-.259-.742.283-1.075 1.03-2.23.971-2.92-.149-.577-.933-.573-1.57.029-4.399.197-.928.558-1.832.801-2.01.243-.178.365-.401.27-.496-.173-.173.293-.272.908-.192.235.03.331-.446.331-1.635 0-.976.136-1.815.325-2.004.18-.18.521-.826.76-1.438.24-.612.75-1.347 1.133-1.634.638-.475.735-.484 1.118-.1.377.376.384.757.072 3.691-.192 1.8-.34 4.432-.33 5.849.017 2.16.12 2.764.632 3.73.34.64.537 1.346.443 1.59-.231.603-1.295.548-2.133-.11zm-1.787-2.318c.518-.727.518-1.896 0-1.896-.128 0-.233-.357-.233-.794 0-.436-.12-.794-.265-.794-.146 0-.265.17-.265.375 0 .206-.108.415-.24.463-.512.189-.271 3.396.255 3.396.118 0 .454-.338.748-.75zm17.99-1.3a37.29 37.29 0 01-.123-.86 27.238 27.238 0 00-.255-1.48c-.186-.916.367-1.696 1.203-1.696.456 0 .934 1.104.756 1.748-.036.13.033.527.153.882.173.51.094.745-.373 1.124-.607.492-1.301.635-1.362.281zm-22.985-3.862c0-.779-.157-1.292-.485-1.588-.526-.476-.838-.342-.838.36 0 .631-.967 1.671-1.34 1.44-.53-.327-.075-2.489.67-3.18.981-.909 3.05-.998 3.05-.132 0 .283.134.596.296.696.432.267.122 2.417-.437 3.035-.706.78-.916.636-.916-.631zm38.425-.769c.046-.725-.035-1.105-.228-1.069-.269.05-.649-.354-1.753-1.864-.337-.462-.434-.438-1.93.468-2.46 1.491-2.579 1.566-3.52 2.235-.725.515-.932.564-1.121.265-.374-.59-.277-.98.289-1.16.291-.092.53-.281.53-.42 0-.14.267-.362.595-.495.327-.132 1.25-.703 2.05-1.268 1.25-.882 1.455-1.147 1.455-1.879 0-.469.179-.964.397-1.102.604-.382 1.323-.307 1.323.138 0 .218.179.396.397.396.218 0 .397-.119.397-.264 0-.146.19-.265.421-.265.232 0 .724-.238 1.094-.529.763-.6 1.66-.7 1.66-.184 0 .428-1.63 2.036-2.063 2.036-.648 0-.29.505.582.82.623.226.863.456.778.746-.068.23.098.002.37-.508.271-.509.91-1.52 1.42-2.248a42.314 42.314 0 001.76-2.79c.459-.808 1.167-1.775 1.573-2.15a15.897 15.897 0 001.478-1.642c.406-.527.972-.96 1.257-.96.657 0 .654.286-.012 1.131-.29.37-.529.78-.529.912s-.208.47-.463.752c-.254.282-.73 1.079-1.055 1.77-.325.691-.698 1.257-.827 1.257-.13 0-.633.655-1.118 1.455-.485.8-.957 1.455-1.048 1.455-.092 0-.324.476-.516 1.058-.192.583-.437 1.059-.545 1.059-.287 0-.779 1.542-.622 1.95.075.195-.275.624-.803.984-.515.35-.937.727-.938.836 0 .11-.183.199-.404.199-.307 0-.385-.265-.33-1.125zm-15.208-1.336c-1.02-.403-1.003-1.387.027-1.593 1.643-.329 2.577.696 1.428 1.569-.533.404-.496.403-1.455.024zm-37.7-4.241c-.155-.34-.418-2.214-.584-4.167-.167-1.953-.44-4.191-.606-4.974-.268-1.26-.244-1.532.21-2.381.38-.709.794-.653 1.176-.959h.66l.074 4.035c.04 2.22.173 4.035.295 4.035.253 0 .552 3.802.358 4.544-.185.706-1.242.617-1.584-.133zm4.826.352c-.257-.415-.338-10.91-.09-11.594.171-.473.388-.593.95-.529.614.071.74.224.813.99.048.498-.06 1.178-.238 1.512-.219.408-.24.718-.062.946.16.209.189 1.157.072 2.457-.105 1.164-.165 2.146-.134 2.183.03.036.403-.61.827-1.435.424-.826 1.029-1.784 1.343-2.13.314-.345.755-1.009.98-1.475a7.514 7.514 0 011.082-1.563c.37-.394.678-.81.683-.926.005-.116.53-.733 1.166-1.373.765-.768 1.3-1.107 1.579-1 .377.145.368.257-.086 1.064-.662 1.179-2.472 3.72-2.73 3.833-.112.048-.203.202-.203.341 0 .14-.253.596-.563 1.015l-.564.763.762 1.245c.42.686 1.15 1.666 1.622 2.179 1.176 1.275 1.102 1.97-.246 2.308-.582.146-.786.047-1.183-.574-.583-.912-2.312-2.735-2.595-2.735-.113 0-.141.242-.064.539.093.355-.085.765-.521 1.202-.528.527-.599.739-.35 1.039.246.296.191.546-.26 1.18-.57.8-1.648 1.092-1.99.538zm37.446.005c-.302-.187-.287-.34.086-.91.54-.823 3.136-2.903 4.338-3.474.472-.225.86-.494.86-.599 0-.104.605-.405 1.346-.668 1.224-.434 1.311-.519.96-.922-.212-.244-.34-.57-.283-.723.057-.154-.3-.471-.79-.705-.887-.423-1.234-1.178-1.234-2.687 0-.325-.39-.873-.926-1.3-.509-.407-.926-.954-.926-1.217 0-1.384 2.856-2.073 4.637-1.118.574.308 1.395.56 1.825.56.429 0 1.026.213 1.327.474.3.261 1.26.692 2.133.957.873.266 1.906.599 2.296.74.39.142.925.19 1.19.108.683-.213 2.618 1.444 2.388 2.044-.236.615-1.484 1.17-1.732.77-.17-.275-.751-.462-3.48-1.118-1.358-.326-2.582-.728-2.968-.976-.482-.308-2.124-.874-2.551-.879-.348-.004-.318.843.09 2.51.455 1.858.457 1.98.035 2.141-.79.304-.436.602.422.356 1.022-.293 1.588.082.992.656-.382.368-.867.654-4.222 2.494a31.3 31.3 0 00-3.308 2.16c-2.057 1.579-2.078 1.59-2.505 1.326zm7.732-11.786c.015-.142-.172-.296-.416-.343-.314-.06-.395.039-.28.342.172.446.648.447.696 0zm-35.15 9.598c-1.769-2.05-2.098-3.4-1.297-5.317.218-.522.396-1.49.396-2.149 0-.66.12-1.2.265-1.2.145 0 .265-.175.265-.39 0-.215.312-.595.693-.845.66-.432.711-.43 1.049.031.287.394.57.454 1.489.32.624-.092 1.402-.241 1.73-.333.51-.143.595-.066.595.54 0 .814-.896 1.298-2.977 1.609-.691.103-1.257.293-1.257.422s-.22.234-.49.234c-.431 0-.475.168-.363 1.39.07.763.162 1.428.204 1.477.042.048.324-.16.627-.463.681-.681 2.933-.805 2.933-.161 0 .486-1.333 1.197-2.244 1.197-.85 0-1.44 1.137-.66 1.272.258.044.53.312.603.595.203.777.844.621 1.856-.452.587-.622 1.06-.91 1.326-.807.376.144.375.24-.006 1.032-.23.48-.784 1.26-1.229 1.733-1.029 1.095-2.684 1.22-3.508.265zm5.619-.117c-.124-.124.368-1.749.865-2.86.13-.29.434-1.481.676-2.645.242-1.165.551-2.324.687-2.576.137-.253.248-.59.248-.747 0-.158.149-.453.33-.657.183-.203.624-.73.98-1.171.417-.514.892-.802 1.325-.802.865 0 1.355 1.233 1.525 3.836.066 1.019.24 1.996.385 2.171.145.176.19.439.1.585-.091.146-.013.509.173.806.268.429.27.636.013 1.003-.179.254-.5.849-.712 1.322-.426.945-.944 1.144-.944.363 0-.643-.501-1.045-1.567-1.259-.723-.144-1.343-.858-1.343-1.545 0-.05.476-.173 1.058-.271l1.059-.179-.003-1.366c-.003-.75-.077-1.813-.168-2.36-.133-.804-.234-.938-.526-.696-.2.165-.362.452-.362.637 0 .186-.358 1.213-.796 2.283-.449 1.096-.746 2.234-.68 2.607.064.364-.084 1.25-.328 1.968-.347 1.02-.6 1.348-1.156 1.494-.39.103-.769.13-.84.059zm61.478-3.234c-.218-.124-1.496-.283-2.839-.352-1.393-.072-2.615-.27-2.844-.46-.221-.183-.402-.236-.402-.116 0 .12-.141.076-.314-.096-.242-.243-.172-.466.31-.978.637-.68.619-.926-.077-1.028-.752-.11-1.242-.763-1.242-1.655 0-.492.09-.897.198-.902.11-.005.42-.312.69-.683.484-.664.483-.68-.096-1.086-.489-.342-.564-.586-.448-1.453.103-.77.053-1.009-.192-.915-.182.07-.692.049-1.134-.047-.711-.153-.776-.244-.571-.794.127-.34.47-.682.76-.758.29-.076.528-.237.528-.357s-.952-1.156-2.116-2.302c-1.164-1.145-2.117-2.287-2.117-2.536a.706.706 0 00-.416-.614c-.494-.19-1.525-2.41-2.313-4.983-.811-2.646-.778-7.181.064-8.78.32-.608.754-1.248.963-1.421.208-.173.38-.429.38-.568 0-.336 2.243-2.444 3.571-3.356 1.222-.84 2.83-1.617 3.347-1.62.197 0 .704-.182 1.129-.403.762-.398 2.53-.378 4.916.056 1.206.219 2.897 1.649 3.622 3.063.955 1.862 1.675 3.59 1.841 4.424.087.433.322.924.523 1.09.271.226.362 1.057.354 3.248-.01 2.38-.13 3.29-.633 4.754-.342.996-.754 1.943-.915 2.104-.161.16-.293.448-.293.637s-.105.344-.233.344-.371.335-.541.746c-.17.41-1.078 1.482-2.017 2.38-.939.9-1.706 1.725-1.705 1.834.003.11.54.435 1.196.724.66.29 1.14.662 1.074.833-.065.17.111.37.392.443.366.096.51.366.51.952 0 .45-.106.819-.235.819-.677 0-.436.877.512 1.864 1.16 1.208 1.302 1.818.534 2.298-.435.271-.475.452-.26 1.188.194.663.15 1.101-.188 1.86-.244.546-.544.992-.667.992s-.224.17-.224.378c0 .417-1.224 1.479-1.69 1.466-.162-.004-.473-.11-.692-.234zm1.588-2.404c.37-.69.333-.834-.199-.78-2.158.22-2.855-.31-2.097-1.593.236-.4.354-.804.26-.897-.093-.093.011-.17.23-.17.22 0 .602-.222.848-.493.426-.47.411-.502-.311-.646-.713-.143-.755-.225-.708-1.368.035-.823.205-1.33.528-1.565.57-.418.358-1.215-.329-1.228-.26-.005-.753-.166-1.098-.357-.89-.493-1.96 0-1.762.81.208.852-.262 1.841-.964 2.033-.383.105-.506.244-.325.367.423.288.9 1.275.9 1.86 0 .278-.236.719-.523.979-.568.514-.487.998.128.762.21-.08.813.12 1.34.446.823.509.937.696.81 1.333-.135.676-.074.747.702.827 2.018.205 2.308.17 2.57-.32zm-5.292-12.142c0-.559-.428-.051-.645.765-.17.636-.16.642.235.148.225-.282.41-.693.41-.913zm2.006.765a.373.373 0 00.375-.37c0-.202.447-.76.993-1.236 2.045-1.789 4.096-5.109 4.459-7.217.357-2.08.411-2.853.228-3.283-.109-.254-.235-.98-.282-1.612-.046-.632-.2-1.289-.34-1.458-.14-.17-.397-.87-.57-1.556-.173-.685-.598-1.553-.946-1.928-.347-.375-.634-.824-.638-.999-.01-.483-2.07-2.564-2.822-2.85-1.08-.41-3.818-.327-5.241.16-2.62.895-6.218 3.951-6.218 5.281 0 .307-.133.691-.295.854-.407.406-.647 5.366-.26 5.366.16 0 .293.209.295.463.005.542.609 2.356.873 2.62.1.099.181.451.181.782 0 .82.412 1.01 1.117.516.655-.458 2.058-.56 2.058-.147 0 .145-.119.264-.265.264-.452 0-.29.577.307 1.095.315.273.5.57.41.658-.09.09-.355-.03-.59-.266-.236-.236-.642-.428-.903-.428-.897 0-.304 1.791 1.086 3.284.266.286.484.614.484.729 0 .186 1.9 1.278 2.225 1.278.07 0 .004-.357-.148-.793-.152-.437-.443-.794-.647-.794-.72 0-.422-.489 1.09-1.789.293-.253.418-.37.277-.262-.375.29-.945.243-.945-.079 0-.42 1.334-1.567 2.026-1.74.336-.085 1.223-.008 1.971.172l1.36.327-.158 1.335c-.11.93-.4 1.637-.958 2.331-.877 1.091-1.039 1.705-.383 1.453.23-.088.588-.16.794-.16zm-.948-3.175c0-.145-.112-.264-.249-.264-.136 0-.322.119-.412.264-.09.146.022.265.249.265s.412-.12.412-.265zm-18.256 6.6c0-1.215 2.916-5.012 3.849-5.012.682 0 .41.93-.541 1.852-.51.494-.927 1.053-.927 1.242 0 .19-.119.345-.264.345-.146 0-.265.158-.265.351 0 .426-1.102 1.501-1.538 1.501-.173 0-.314-.125-.314-.279zm33.867-1.798c-2.248-1.138-2.582-1.653-1.633-2.512.637-.576 1.151-.552 1.97.092.37.29.802.529.961.529.16 0 .29.089.291.198 0 .11.387.418.858.686l.857.488-.623.504c-.767.621-1.477.625-2.681.015zm1.538-8.14c-.2-.199-1.103-.44-2.007-.534-2.034-.212-2.499-.646-1.656-1.543.525-.558.76-.619 1.89-.485 1.769.21 3.987.964 4.302 1.463.598.948-1.687 1.942-2.529 1.1zm-41.072-5.358c-.32-.518.483-1.355 1.431-1.493.511-.075 1.437-.254 2.057-.397 1.704-.395 2.18-.339 2.18.258 0 .6-.521.927-2.15 1.352-1.787.467-3.326.59-3.518.28zm36.293-6.568c-.474-.123-.654-.611-.227-.611.13 0 .593-.332 1.027-.738.857-.8 5.385-3.23 6.02-3.23.214 0 .39.177.39.394 0 .51-1.052 1.722-1.495 1.722-.376 0-1.391.544-3.386 1.813-1.309.833-1.464.876-2.33.65zm-29.97-8.56c-.095-.15-.641-.571-1.216-.934-.575-.363-1.28-.894-1.565-1.18-.698-.698-.689-2.205.018-2.911.601-.601 1.049-.483 1.049.277 0 .276.312.715.693.977.381.261.96.743 1.287 1.07.327.328.908.596 1.292.596.426 0 .697.146.697.376 0 .207.416.514.926.682 1.044.345 1.164.648.414 1.05-.665.355-3.375.354-3.596-.002zm22.892-.084c0-.198.595-1.239 1.323-2.312.728-1.073 1.323-2.092 1.323-2.264 0-.171.095-.351.21-.4.116-.048.643-.659 1.172-1.357 1.52-2.008 2.818-3.361 3.225-3.361.207 0 .43-.149.494-.33.065-.183.207-.25.316-.148.185.171-.681 1.612-1.321 2.198-.532.486-1.62 2.106-1.999 2.976-.206.473-.464.86-.574.86-.11 0-.2.12-.2.268 0 .352-2.12 3.477-2.639 3.89-.546.436-1.33.424-1.33-.02zm-14.463-1.378c-.088-.228-.034-.674.12-.992.34-.704.653-1.93.728-2.848.03-.376.384-1.269.787-1.984.402-.716 1.006-1.813 1.341-2.438.336-.625.884-1.365 1.22-1.645.622-.518 1.27-.685 1.272-.327 0 .32-1.173 2.571-1.391 2.668-.11.049-.136.193-.058.32.142.23-.355 1.309-.733 1.59-.108.081-.3.703-.427 1.381-.127.68-.418 1.52-.647 1.87-.23.35-.354.878-.276 1.175.272 1.039-1.562 2.205-1.936 1.23zM412.182.401c0-.34.258-.423 1.235-.396 1.316.035 1.877.579.834.809-1.094.242-2.069.047-2.069-.413z"/></svg>