<svg xmlns="http://www.w3.org/2000/svg" xmlns:xlink="http://www.w3.org/1999/xlink" width="201.375" height="144.099" viewBox="0 0 201.375 144.099">
  <defs>
    <linearGradient id="linear-gradient" x1="-30.093" y1="194.205" x2="-30.093" y2="193.205" gradientUnits="objectBoundingBox">
      <stop offset="0" stop-color="gray" stop-opacity="0.251"/>
      <stop offset="0.54" stop-color="gray" stop-opacity="0.122"/>
      <stop offset="1" stop-color="gray" stop-opacity="0.102"/>
    </linearGradient>
    <linearGradient id="linear-gradient-2" x1="3.396" y1="1" x2="3.396" y2="0" xlink:href="#linear-gradient"/>
  </defs>
  <g id="Group_17" data-name="Group 17" transform="translate(-335.242 -968.078)">
    <ellipse id="Ellipse_14" data-name="Ellipse 14" cx="97.455" cy="4.873" rx="97.455" ry="4.873" transform="translate(335.242 1098.411)" fill="#009197" opacity="0.1"/>
    <g id="Group_7" data-name="Group 7" transform="translate(507.083 1046.82)" opacity="0.2">
      <path id="Path_77" data-name="Path 77" d="M975.458,686.158a2.941,2.941,0,0,1-.285.44q-1.418-1-2.893-1.957.029-.063.063-.126a2.776,2.776,0,0,1,.984-1.074,1.532,1.532,0,0,1,2.465,1.3A2.756,2.756,0,0,1,975.458,686.158Z" transform="translate(-972.28 -645.269)" fill="#009197"/>
      <ellipse id="Ellipse_15" data-name="Ellipse 15" cx="2.306" cy="1.762" rx="2.306" ry="1.762" transform="translate(0.31 38.797) rotate(-62.09)" fill="#009197"/>
      <ellipse id="Ellipse_16" data-name="Ellipse 16" cx="2.306" cy="1.762" rx="2.306" ry="1.762" transform="translate(1.63 36.304) rotate(-62.09)" fill="#009197"/>
      <ellipse id="Ellipse_17" data-name="Ellipse 17" cx="2.306" cy="1.762" rx="2.306" ry="1.762" transform="translate(2.95 33.813) rotate(-62.09)" fill="#009197"/>
      <ellipse id="Ellipse_18" data-name="Ellipse 18" cx="2.306" cy="1.762" rx="2.306" ry="1.762" transform="translate(4.271 31.32) rotate(-62.09)" fill="#009197"/>
      <path id="Path_78" data-name="Path 78" d="M983.225,494.906a8.707,8.707,0,0,1-.128-1.16l4.45,1.494-4.445-2.31a8.448,8.448,0,0,1,2.988-5.987l4.307,6.226-3.344-6.927a8.442,8.442,0,1,1,7.9,14.876,8.316,8.316,0,0,1,.13,1.811l-6.774-.053,6.673,1.1a8.481,8.481,0,0,1-4.905,6.375,8.444,8.444,0,1,1-11.729-6.21A8.446,8.446,0,0,1,983.225,494.906Z" transform="translate(-973.124 -484.962)" fill="#009197"/>
      <path id="Path_79" data-name="Path 79" d="M994.107,585.572a8.409,8.409,0,0,1-4.03,3.766,8.444,8.444,0,1,1-11.729-6.21C978.012,581.328,994.551,584.733,994.107,585.572Z" transform="translate(-973.124 -563.951)" fill="#009197" opacity="0.1"/>
    </g>
    <g id="Group_8" data-name="Group 8" transform="translate(497.289 969.097)" opacity="0.2">
      <path id="Path_80" data-name="Path 80" d="M938.32,418.647a5.053,5.053,0,0,1-.369.764q-2.484-1.326-5.041-2.58c.025-.071.05-.143.076-.216a4.492,4.492,0,0,1,1.368-1.911,2.479,2.479,0,0,1,4.221,1.6A4.494,4.494,0,0,1,938.32,418.647Z" transform="translate(-930.64 -349.839)" fill="#3f3d56"/>
      <ellipse id="Ellipse_19" data-name="Ellipse 19" cx="3.725" cy="2.845" rx="3.725" ry="2.845" transform="translate(3.058 67.147) rotate(-68.839)" fill="#3f3d56"/>
      <ellipse id="Ellipse_20" data-name="Ellipse 20" cx="3.736" cy="2.853" rx="3.736" ry="2.853" transform="matrix(0.356, -0.935, 0.935, 0.356, 4.273, 61.741)" fill="#3f3d56"/>
      <ellipse id="Ellipse_21" data-name="Ellipse 21" cx="3.736" cy="2.853" rx="3.736" ry="2.853" transform="matrix(0.356, -0.935, 0.935, 0.356, 5.896, 57.474)" fill="#3f3d56"/>
      <ellipse id="Ellipse_22" data-name="Ellipse 22" cx="3.736" cy="2.853" rx="3.736" ry="2.853" transform="matrix(0.356, -0.935, 0.935, 0.356, 7.522, 53.206)" fill="#3f3d56"/>
      <path id="Path_81" data-name="Path 81" d="M933.67,95.952a13.633,13.633,0,0,1-.438-1.84l7.452,1.517-7.6-2.828a13.684,13.684,0,0,1,3.608-10.225l8.159,9.145L938.1,81.259a13.668,13.668,0,1,1,15.65,22.336,13.725,13.725,0,0,1,.573,2.883l-10.892,1.263,10.938.438a13.667,13.667,0,0,1-6.625,11.211,13.667,13.667,0,1,1-20.081-7.643A13.672,13.672,0,0,1,933.67,95.952Z" transform="translate(-921.029 -78.224)" fill="#009197"/>
      <path id="Path_82" data-name="Path 82" d="M953.486,248.611a13.607,13.607,0,0,1-5.733,6.856,13.667,13.667,0,1,1-20.081-7.643C926.78,245,954.031,247.175,953.486,248.611Z" transform="translate(-921.037 -214.303)" opacity="0.1"/>
    </g>
    <g id="Group_9" data-name="Group 9" transform="translate(344.391 968.078)" opacity="0.2">
      <path id="Path_83" data-name="Path 83" d="M274,490.627a6.039,6.039,0,0,0,.323.955q3.13-1.2,6.329-2.293c-.019-.086-.038-.178-.059-.266a5.36,5.36,0,0,0-1.338-2.467,2.948,2.948,0,0,0-5.217,1.269A5.333,5.333,0,0,0,274,490.627Z" transform="translate(-244.602 -406.604)" fill="#009197"/>
      <ellipse id="Ellipse_23" data-name="Ellipse 23" cx="3.394" cy="4.443" rx="3.394" ry="4.443" transform="translate(27.061 74.426) rotate(-13.72)" fill="#009197"/>
      <ellipse id="Ellipse_24" data-name="Ellipse 24" cx="3.394" cy="4.443" rx="3.394" ry="4.443" transform="translate(25.771 69.149) rotate(-13.72)" fill="#009197"/>
      <ellipse id="Ellipse_25" data-name="Ellipse 25" cx="3.394" cy="4.443" rx="3.394" ry="4.443" transform="translate(24.483 63.877) rotate(-13.72)" fill="#009197"/>
      <ellipse id="Ellipse_26" data-name="Ellipse 26" cx="3.394" cy="4.443" rx="3.394" ry="4.443" transform="translate(23.198 58.603) rotate(-13.72)" fill="#009197"/>
      <path id="Path_84" data-name="Path 84" d="M151.955,95.9a16.01,16.01,0,0,0,.787-2.1l-9.008.692,9.384-2.217a16.284,16.284,0,0,0-2.752-12.585l-10.978,9.587L148.9,77.93a16.254,16.254,0,1,0-21.767,24.027,16.257,16.257,0,0,0-1.1,3.319l12.669,3.1-12.971-1.1a16.263,16.263,0,0,0,6.166,14.207,16.254,16.254,0,1,0,24.82-6.054A16.252,16.252,0,0,0,151.955,95.9Z" transform="translate(-120.883 -72.891)" fill="#009197"/>
      <path id="Path_85" data-name="Path 85" d="M148.362,277.193a16.189,16.189,0,0,0,5.763,8.939,16.254,16.254,0,1,0,24.82-6.059C180.407,276.87,147.93,275.422,148.362,277.193Z" transform="translate(-143.108 -237.535)" fill="#009197" opacity="0.1"/>
    </g>
    <path id="Path_86" data-name="Path 86" d="M349.934,171H190.43a1.424,1.424,0,0,0-1.42,1.426v97.617a2.866,2.866,0,0,0,2.866,2.876H348.493a2.866,2.866,0,0,0,2.866-2.876V172.424A1.424,1.424,0,0,0,349.934,171Z" transform="translate(168.4 815.825)" fill="#ccc"/>
    <path id="Path_87" data-name="Path 87" d="M353.557,202.71v92.408a2.843,2.843,0,0,1-2.841,2.843H195.371a2.843,2.843,0,0,1-2.841-2.843V202.71Z" transform="translate(165.552 790.175)" fill="#fff"/>
    <path id="Path_88" data-name="Path 88" d="M353.557,175.25v4.106H192.53V175.25a1.408,1.408,0,0,1,1.408-1.41h158.22A1.408,1.408,0,0,1,353.557,175.25Z" transform="translate(165.552 813.528)" fill="#ccc"/>
    <circle id="Ellipse_27" data-name="Ellipse 27" cx="0.659" cy="0.659" r="0.659" transform="translate(359.974 989.426)" fill="#fa5959" opacity="0.8"/>
    <circle id="Ellipse_28" data-name="Ellipse 28" cx="0.659" cy="0.659" r="0.659" transform="translate(361.786 989.426)" fill="#fed253" opacity="0.8"/>
    <circle id="Ellipse_29" data-name="Ellipse 29" cx="0.659" cy="0.659" r="0.659" transform="translate(363.597 989.426)" fill="#8ccf4d" opacity="0.8"/>
    <rect id="Rectangle_15" data-name="Rectangle 15" width="0.659" height="0.988" transform="translate(447.966 984.355) rotate(90)" fill="url(#linear-gradient)"/>
    <rect id="Rectangle_16" data-name="Rectangle 16" width="15.478" height="1.647" transform="translate(395.115 1000.985)" fill="#ededf4"/>
    <rect id="Rectangle_17" data-name="Rectangle 17" width="86.935" height="1.647" transform="translate(395.115 1005.758)" fill="#ededf4"/>
    <rect id="Rectangle_18" data-name="Rectangle 18" width="86.935" height="1.647" transform="translate(395.115 1010.534)" fill="#ededf4"/>
    <rect id="Rectangle_19" data-name="Rectangle 19" width="86.935" height="1.647" transform="translate(395.115 1015.309)" fill="#ededf4"/>
    <rect id="Rectangle_20" data-name="Rectangle 20" width="86.935" height="1.647" transform="translate(395.115 1020.084)" fill="#ededf4"/>
    <rect id="Rectangle_21" data-name="Rectangle 21" width="53.676" height="41.493" transform="translate(411.717 1029.191)" fill="#ccc"/>
    <ellipse id="Ellipse_30" data-name="Ellipse 30" cx="5.135" cy="0.988" rx="5.135" ry="0.988" transform="translate(503.156 1110.201)" fill="#115daa"/>
    <ellipse id="Ellipse_31" data-name="Ellipse 31" cx="0.598" cy="0.782" rx="0.598" ry="0.782" transform="translate(507.606 1109.989)" fill="#3f3d56"/>
    <ellipse id="Ellipse_32" data-name="Ellipse 32" cx="0.598" cy="0.782" rx="0.598" ry="0.782" transform="translate(507.606 1109.032)" fill="#3f3d56"/>
    <ellipse id="Ellipse_33" data-name="Ellipse 33" cx="0.598" cy="0.782" rx="0.598" ry="0.782" transform="translate(507.606 1108.076)" fill="#3f3d56"/>
    <ellipse id="Ellipse_34" data-name="Ellipse 34" cx="0.598" cy="0.782" rx="0.598" ry="0.782" transform="translate(507.606 1107.119)" fill="#3f3d56"/>
    <ellipse id="Ellipse_35" data-name="Ellipse 35" cx="0.598" cy="0.782" rx="0.598" ry="0.782" transform="translate(507.606 1106.163)" fill="#3f3d56"/>
    <ellipse id="Ellipse_36" data-name="Ellipse 36" cx="0.598" cy="0.782" rx="0.598" ry="0.782" transform="translate(507.606 1105.208)" fill="#3f3d56"/>
    <ellipse id="Ellipse_37" data-name="Ellipse 37" cx="0.598" cy="0.782" rx="0.598" ry="0.782" transform="translate(507.606 1104.25)" fill="#3f3d56"/>
    <path id="Path_89" data-name="Path 89" d="M968.1,735.567a2.711,2.711,0,0,0,.222-.327l-1.569-.258,1.7.011a2.853,2.853,0,0,0,.055-2.268l-2.28,1.183,2.1-1.546a2.866,2.866,0,1,0-4.728,3.2,2.786,2.786,0,0,0-.327.522l2.039,1.061-2.174-.73a35.963,35.963,0,0,1,.766,6.569,5.806,5.806,0,0,0,4.2-7.421Z" transform="translate(-457.653 362.92)" fill="#115daa"/>
    <path id="Path_90" data-name="Path 90" d="M963.088,764.432a11.344,11.344,0,0,1,.917,5.652,2.866,2.866,0,0,0,4.2-3.88C968.585,765.716,963.088,764.111,963.088,764.432Z" transform="translate(-457.759 335.825)" fill="#115daa" opacity="0.1"/>
    <ellipse id="Ellipse_38" data-name="Ellipse 38" cx="2.324" cy="0.447" rx="2.324" ry="0.447" transform="translate(347.628 1097.983)" fill="#105daa"/>
    <ellipse id="Ellipse_39" data-name="Ellipse 39" cx="0.271" cy="0.354" rx="0.271" ry="0.354" transform="translate(349.64 1097.887)" fill="#3f3d56"/>
    <ellipse id="Ellipse_40" data-name="Ellipse 40" cx="0.271" cy="0.354" rx="0.271" ry="0.354" transform="translate(349.64 1097.454)" fill="#3f3d56"/>
    <ellipse id="Ellipse_41" data-name="Ellipse 41" cx="0.271" cy="0.354" rx="0.271" ry="0.354" transform="translate(349.64 1097.022)" fill="#3f3d56"/>
    <ellipse id="Ellipse_42" data-name="Ellipse 42" cx="0.271" cy="0.354" rx="0.271" ry="0.354" transform="translate(349.64 1096.588)" fill="#3f3d56"/>
    <ellipse id="Ellipse_43" data-name="Ellipse 43" cx="0.271" cy="0.354" rx="0.271" ry="0.354" transform="translate(349.64 1096.156)" fill="#3f3d56"/>
    <ellipse id="Ellipse_44" data-name="Ellipse 44" cx="0.271" cy="0.354" rx="0.271" ry="0.354" transform="translate(349.64 1095.722)" fill="#3f3d56"/>
    <ellipse id="Ellipse_45" data-name="Ellipse 45" cx="0.271" cy="0.354" rx="0.271" ry="0.354" transform="translate(349.64 1095.288)" fill="#3f3d56"/>
    <path id="Path_91" data-name="Path 91" d="M145.274,716.117a1.116,1.116,0,0,0,.1-.147l-.711-.118h.764a1.3,1.3,0,0,0,.025-1.026l-1.032.535.955-.7a1.3,1.3,0,1,0-2.14,1.45,1.259,1.259,0,0,0-.147.237l.923.48-.984-.329a16.627,16.627,0,0,1,.348,2.97,2.624,2.624,0,0,0,1.9-3.356Z" transform="translate(205.65 376.571)" fill="#105daa"/>
    <path id="Path_92" data-name="Path 92" d="M143,729.069a5.172,5.172,0,0,1,.417,2.555,1.3,1.3,0,0,0,1.9-1.752C145.484,729.65,143,728.924,143,729.069Z" transform="translate(205.618 364.412)" opacity="0.1"/>
    <path id="Path_93" data-name="Path 93" d="M188.9,309.439h-8.912a.587.587,0,0,0-.573.468L177,321.8a.418.418,0,0,0,0,.1l-.229.025-.2.021-.036-.01a.275.275,0,0,1-.115-.191,8.771,8.771,0,0,1-.254-1.292,11.626,11.626,0,0,1,0-1.437c.011-.382,0-.755,0-1.131a10.589,10.589,0,0,0,.113-1.278,4.62,4.62,0,0,0-.134-1.357,4.726,4.726,0,0,0-.268-.7c-.084-.642-.176-1.286-.269-1.926-.071-.476-.141-.955-.235-1.425.021-.078.038-.157.052-.237a2.261,2.261,0,0,0-.843-2.073,2.711,2.711,0,0,0-.629-.382,5.8,5.8,0,0,0-.573-.2l-3.075-.955c-.285-.415-.573-.833-.829-1.261a8.507,8.507,0,0,1-.652-1.211,4.8,4.8,0,0,0,1.271-6.47c-.052-.08-.105-.161-.161-.237a3.134,3.134,0,0,0-.128-1.095,1.7,1.7,0,0,0-.117-.382,1.956,1.956,0,0,0-.315-.455c-.025-.029-.053-.055-.08-.084a5,5,0,0,0-.841-.738,11.551,11.551,0,0,0-3.64-1.94,4.334,4.334,0,0,0-1.88-.01l-.1-.027-.182-.036c.046.019.09.044.136.065a4.215,4.215,0,0,0-1.989.036c-.81.241-1.093.883-1.435,1.584a7.176,7.176,0,0,1-2.442,2.792c-.673.451-1.469.841-1.792,1.58a4.509,4.509,0,0,0-.027,2.23,6.144,6.144,0,0,1-2.348,5.364c-.919.707-2.146,1.3-2.343,2.438a4.154,4.154,0,0,0,.665,2.337,5.588,5.588,0,0,1,.122,5.022,6.036,6.036,0,0,0-.7,1.3,2.179,2.179,0,0,0,.988,2.261,4.45,4.45,0,0,0,2.528.621,3.381,3.381,0,0,0,.459-.021c-.076.74-.172,1.479-.292,2.213a14.628,14.628,0,0,0-.336,3.266,2.817,2.817,0,0,0,.556,1.662,3.161,3.161,0,0,0,2.6.831c1.49-.057,2.956-.445,4.439-.531a.453.453,0,0,0-.042.191c0,.258.159.543.086.8a.868.868,0,0,1-.134.248,2.629,2.629,0,0,0-.7,1.855c.065.325.268.65.174.969a1.509,1.509,0,0,1-.245.411,3.9,3.9,0,0,0-.283,2.736l.176.05c-.05.107-.1.216-.145.325a4.314,4.314,0,0,0-.365,1.529,6.13,6.13,0,0,0,.3,1.743c.26.955.529,1.911.871,2.834.29.793.632,1.563.971,2.335.107.237.212.476.317.715q.978,2.217,1.961,4.437a2.675,2.675,0,0,1,.191.531c.034.157.042.315.067.474a5.843,5.843,0,0,0,.8,1.685c.992,1.863.745,4.11.476,6.2a2.521,2.521,0,0,0,.491.382c-.029.21-.057.422-.1.625-.262,1.194-.573,2.379-.755,3.592a11.36,11.36,0,0,0-.134,1.783c0,.573.2,1.156.2,1.72.139.573.352,1.12.5,1.687.061.881.164,1.762.3,2.641q.065,1.2.134,2.394a4.11,4.11,0,0,1-.245,2.085c0,.021-.023.042-.034.063a1.641,1.641,0,0,0-1.439.673,3.181,3.181,0,0,0-.556,1.645,1.38,1.38,0,0,0,.082.738c.092.191.252.319.357.495a1.875,1.875,0,0,1,.191.654c.214,1.322.43,2.648.545,3.984a2.288,2.288,0,0,0,.306,1.169.755.755,0,0,0,1.064.214,23.5,23.5,0,0,1-.447-4.647,1.069,1.069,0,0,1,.3,0c.059.269.141.537.218.8a4.609,4.609,0,0,0,.191.573c-.031.262,0,.656-.011.847q-.023,1.267,0,2.532.017.722.052,1.445a.338.338,0,0,0,.031.155.071.071,0,0,0,.061.027h.483a5.3,5.3,0,0,0,.021-.573q0-.659,0-1.315v-1.124c.113.671.273,1.338.436,2l.344,1.41.034.141.292,1.194a.56.56,0,0,0,.042.124.5.5,0,0,0,.143.145,4.275,4.275,0,0,0,4.236.455.48.48,0,0,0,.143-.09.5.5,0,0,0,.1-.357,2.352,2.352,0,0,1,.218-1.106,1.871,1.871,0,0,0,.214-.411,1.082,1.082,0,0,0-.13-.682l-.315-.736a3.481,3.481,0,0,0,.445-.046c.224-.191.061-.587.246-.812a2.022,2.022,0,0,1,.247-.191.8.8,0,0,0,.105-.866,4.576,4.576,0,0,0-2.1-2.073l-.111-.069c-.7-3.248-1.922-6.449-1.6-9.745.071-.7.212-1.4.327-2.1.573-3.459.537-7.007,1.2-10.449a1.917,1.917,0,0,0,1.878-1.959c.075-.652-.015-1.309,0-1.966a12.756,12.756,0,0,1,.468-2.786c.264-1.072-.191-2.209.084-3.277a7.93,7.93,0,0,0,.248-1,6.113,6.113,0,0,1,.132-1.441c.076-.208.208-.394.3-.6.382-.864-.038-1.911.346-2.778a2.294,2.294,0,0,0,.273-.65,1.337,1.337,0,0,0-.067-.527c-.1-.4-.191-.8-.254-1.2a1.837,1.837,0,0,1-.036-.422,2.236,2.236,0,0,1,.1-.441,12.589,12.589,0,0,0,.359-3.115,3.619,3.619,0,0,0-.2-1.647,1.868,1.868,0,0,0-.268-.42l.029-.015a3.312,3.312,0,0,1-.05-1.873,1.722,1.722,0,0,0,.216-.745c-.029-.262-.208-.441-.281-.675a2.126,2.126,0,0,1,.176-1.189,6.207,6.207,0,0,0,.1-2.087.939.939,0,0,0-.1-.434c-.05-.082-.124-.145-.172-.229a.734.734,0,0,1,.013-.65,3.42,3.42,0,0,0,.258-.619.641.641,0,0,0,0-.2c.141-.061.268-.153.4-.226a4.2,4.2,0,0,1,1.9-.277,2.2,2.2,0,0,0,1.75-.659.491.491,0,0,1,.153-.161.267.267,0,0,1,.065-.023c.235.033.382.031.35-.031.107-.048.157-.164.22-.262a.644.644,0,0,1,.053-.073,5.351,5.351,0,0,1,.749-.371.573.573,0,0,0-.139,0,3.577,3.577,0,0,1,1.234-.172c.4,0,1.087.055,1.4-.254.573-.365.743-1.1,1.009-1.72a6.3,6.3,0,0,1,.3-.59l1.485-.145a.589.589,0,0,0,.518-.466l2.228-11a.585.585,0,0,0-.55-.7Zm-28.118,15.1a2.633,2.633,0,0,1-2.09,0c-.1-.044-.208-.166-.128-.239s.145-.011.21-.042c.124-.061.034-.245-.034-.363a1.207,1.207,0,0,1,.13-1.127,2.5,2.5,0,0,0,.439-1.087,2.1,2.1,0,0,1,0-.382,1.422,1.422,0,0,1,.283-.489c.034-.05.063-.1.094-.157.052.08.1.159.157.237q.258.4.514.8a1.282,1.282,0,0,1,.25.617,1.02,1.02,0,0,0,.021.4c.076.168.313.308.225.47a.63.63,0,0,0,0,.562c.09.155.224.283.313.436a.97.97,0,0,1,.065.143C161.084,324.384,160.933,324.468,160.78,324.535Zm18.535-2.062c-.113.027-.225.053-.338.084-.015-.069-.021-.107-.021-.107l-.6.178a1.367,1.367,0,0,1-.657-.136l2.461-.241C179.883,322.332,179.6,322.406,179.315,322.473Z" transform="translate(199.643 716.84)" fill="url(#linear-gradient-2)"/>
    <path id="Path_94" data-name="Path 94" d="M169.489,297.746a7.137,7.137,0,0,1-2.413,2.778c-.667.449-1.454.835-1.773,1.571a4.531,4.531,0,0,0-.027,2.219,6.115,6.115,0,0,1-2.306,5.312c-.908.705-2.121,1.294-2.316,2.427a4.151,4.151,0,0,0,.659,2.324,5.591,5.591,0,0,1,.12,5,5.727,5.727,0,0,0-.7,1.294,2.167,2.167,0,0,0,.976,2.247,4.393,4.393,0,0,0,2.5.619,2.472,2.472,0,0,0,1.769-.541,2.831,2.831,0,0,0,.592-1.112l1.1-3.113a3.989,3.989,0,0,1,.825-1.567c.885-.9,2.326-.806,3.589-.791a16.537,16.537,0,0,0,5.471-.862c1.032-.35,2.152-.942,2.392-2s-.474-2.026-1.1-2.885q-.7-.955-1.326-1.978a5.708,5.708,0,0,1-.908-2.115,7.532,7.532,0,0,1,.871-3.7,4.283,4.283,0,0,0,.113-3.711,4.013,4.013,0,0,0-1.087-1.08,11.4,11.4,0,0,0-3.6-1.928,4.167,4.167,0,0,0-2.012.027C170.1,296.418,169.824,297.057,169.489,297.746Z" transform="translate(191.358 714.685)" fill="#3f3d56"/>
    <path id="Path_95" data-name="Path 95" d="M270.811,382.73a15.523,15.523,0,0,1,.525,2.58,37.39,37.39,0,0,1,.556,6.361,12.279,12.279,0,0,0,0,1.427,8.951,8.951,0,0,0,.254,1.286.269.269,0,0,0,.113.191c.073.036.159,0,.239-.01.273-.033.476.231.686.409a1.307,1.307,0,0,0,1.483.111,1.651,1.651,0,0,0,.632,1.693,2.243,2.243,0,0,0,1.836.334.856.856,0,0,0-.795.441c-.061.1-.111.212-.216.26s-.287-.013-.411.052a.507.507,0,0,0-.151.161,2.162,2.162,0,0,1-1.729.655,4.123,4.123,0,0,0-1.876.277c-.14.075-.269.17-.415.231a1.263,1.263,0,0,1-1.317-.327,2.832,2.832,0,0,1-.676-1.25,16.152,16.152,0,0,1-.342-5.763A33.446,33.446,0,0,1,270.811,382.73Z" transform="translate(103.604 644.554)" fill="#454b69"/>
    <path id="Path_96" data-name="Path 96" d="M270.811,382.73a15.523,15.523,0,0,1,.525,2.58,37.39,37.39,0,0,1,.556,6.361,12.279,12.279,0,0,0,0,1.427,8.951,8.951,0,0,0,.254,1.286.269.269,0,0,0,.113.191c.073.036.159,0,.239-.01.273-.033.476.231.686.409a1.307,1.307,0,0,0,1.483.111,1.651,1.651,0,0,0,.632,1.693,2.243,2.243,0,0,0,1.836.334.856.856,0,0,0-.795.441c-.061.1-.111.212-.216.26s-.287-.013-.411.052a.507.507,0,0,0-.151.161,2.162,2.162,0,0,1-1.729.655,4.123,4.123,0,0,0-1.876.277c-.14.075-.269.17-.415.231a1.263,1.263,0,0,1-1.317-.327,2.832,2.832,0,0,1-.676-1.25,16.152,16.152,0,0,1-.342-5.763A33.446,33.446,0,0,1,270.811,382.73Z" transform="translate(103.604 644.554)" opacity="0.1"/>
    <path id="Path_97" data-name="Path 97" d="M228.326,638.665c.161.667.424,1.307.573,1.976a11.384,11.384,0,0,1,.191,1.747l.164,2.966a4.106,4.106,0,0,1-.241,2.073,6.239,6.239,0,0,0-.7,1.28,2.509,2.509,0,0,0,.866,2.029l2.457,2.847a5.94,5.94,0,0,0,2.752,2.134.914.914,0,0,0,.525.019.748.748,0,0,0,.426-.822,2.088,2.088,0,0,0-.438-.892,14.072,14.072,0,0,1-1.75-2.82,10.382,10.382,0,0,1-.554-4.164c.13-5.752,1.576-11.437,1.412-17.2-1.255-.1-2.561-.3-3.822-.292-1.122.011-.988,1.146-1.183,2.054-.26,1.189-.573,2.368-.747,3.573a11.275,11.275,0,0,0-.132,1.775C228.129,637.53,228.326,638.109,228.326,638.665Z" transform="translate(136.756 444.9)" fill="#fbbebe"/>
    <path id="Path_98" data-name="Path 98" d="M228.326,638.665c.161.667.424,1.307.573,1.976a11.384,11.384,0,0,1,.191,1.747l.164,2.966a4.106,4.106,0,0,1-.241,2.073,6.239,6.239,0,0,0-.7,1.28,2.509,2.509,0,0,0,.866,2.029l2.457,2.847a5.94,5.94,0,0,0,2.752,2.134.914.914,0,0,0,.525.019.748.748,0,0,0,.426-.822,2.088,2.088,0,0,0-.438-.892,14.072,14.072,0,0,1-1.75-2.82,10.382,10.382,0,0,1-.554-4.164c.13-5.752,1.576-11.437,1.412-17.2-1.255-.1-2.561-.3-3.822-.292-1.122.011-.988,1.146-1.183,2.054-.26,1.189-.573,2.368-.747,3.573a11.275,11.275,0,0,0-.132,1.775C228.129,637.53,228.326,638.109,228.326,638.665Z" transform="translate(136.756 444.9)" opacity="0.05"/>
    <path id="Path_99" data-name="Path 99" d="M224.169,723.393a1.6,1.6,0,0,0-1.529.657,3.164,3.164,0,0,0-.55,1.636,1.338,1.338,0,0,0,.082.734c.09.182.248.319.352.493a1.851,1.851,0,0,1,.191.65c.214,1.317.428,2.635.539,3.963a2.285,2.285,0,0,0,.3,1.164.748.748,0,0,0,1.053.214,23.564,23.564,0,0,1-.445-4.6,2.066,2.066,0,0,1,1.693.956,14.821,14.821,0,0,1,1.229,1.668,10.531,10.531,0,0,0,1.078,1.565,3.944,3.944,0,0,0,3.482,1.19c.222-.191.059-.585.243-.808a2,2,0,0,1,.245-.191.794.794,0,0,0,.1-.86,4.555,4.555,0,0,0-2.077-2.064c-1.529-.955-3.077-1.911-4.615-2.836a3.057,3.057,0,0,1-1.267-1.563C224.223,725.191,223.982,723.33,224.169,723.393Z" transform="translate(141.656 369.009)" fill="#3f3d56"/>
    <path id="Path_100" data-name="Path 100" d="M224.169,723.393a1.6,1.6,0,0,0-1.529.657,3.164,3.164,0,0,0-.55,1.636,1.338,1.338,0,0,0,.082.734c.09.182.248.319.352.493a1.851,1.851,0,0,1,.191.65c.214,1.317.428,2.635.539,3.963a2.285,2.285,0,0,0,.3,1.164.748.748,0,0,0,1.053.214,23.564,23.564,0,0,1-.445-4.6,2.066,2.066,0,0,1,1.693.956,14.821,14.821,0,0,1,1.229,1.668,10.531,10.531,0,0,0,1.078,1.565,3.944,3.944,0,0,0,3.482,1.19c.222-.191.059-.585.243-.808a2,2,0,0,1,.245-.191.794.794,0,0,0,.1-.86,4.555,4.555,0,0,0-2.077-2.064c-1.529-.955-3.077-1.911-4.615-2.836a3.057,3.057,0,0,1-1.267-1.563C224.223,725.191,223.982,723.33,224.169,723.393Z" transform="translate(141.656 369.009)" opacity="0.05"/>
    <path id="Path_101" data-name="Path 101" d="M231.479,637.087c-.308,3.843.554,7.668,1.32,11.446a4.3,4.3,0,0,1,.117.921,7.072,7.072,0,0,1-.191,1.147,11.412,11.412,0,0,0,.449,4.7c.256,1.068.617,2.274,1.613,2.74a3.7,3.7,0,0,0,2.293.036,1.362,1.362,0,0,0,.69-.277,1.308,1.308,0,0,0,.262-1.059c-.264-4.242-2.412-8.31-1.993-12.541.069-.7.208-1.391.323-2.087.592-3.6.516-7.3,1.28-10.858a.655.655,0,0,0,0-.382.638.638,0,0,0-.292-.279,6.1,6.1,0,0,0-2.241-.9,2.769,2.769,0,0,0-1.941.369c-.527.388-.589,1.284-.751,1.924A30.688,30.688,0,0,0,231.479,637.087Z" transform="translate(134.097 444.808)" fill="#fbbebe"/>
    <path id="Path_102" data-name="Path 102" d="M236.685,759.926a.321.321,0,0,0,.029.153.073.073,0,0,0,.061.029h.48c.019-.191.019-.382.021-.573v-1.307c0-1.036,0-2.075-.046-3.105a.342.342,0,0,0-.017-.113.1.1,0,0,0-.054-.05c-.113-.054-.382-.22-.478-.029a3.922,3.922,0,0,0-.059,1.043q-.023,1.259,0,2.519Q236.654,759.21,236.685,759.926Z" transform="translate(129.895 343.549)" fill="#3f3d56"/>
    <path id="Path_103" data-name="Path 103" d="M215.372,514.94a1.84,1.84,0,0,0,.036.42c.069.4.155.8.252,1.194a1.377,1.377,0,0,1,.065.525,2.339,2.339,0,0,1-.269.646c-.382.854.029,1.911-.342,2.763-.088.2-.218.382-.294.6a6.151,6.151,0,0,0-.128,1.433,7.835,7.835,0,0,1-.247,1c-.269,1.062.176,2.194-.084,3.26a12.723,12.723,0,0,0-.462,2.773c-.013.652.076,1.305,0,1.955a2.219,2.219,0,0,1-.9,1.663,2.875,2.875,0,0,1-1.492.313c-.992.017-1.989-.011-2.981-.088a4.22,4.22,0,0,1-2.754-.944c.266-2.081.508-4.315-.472-6.17a5.813,5.813,0,0,1-.789-1.676c-.027-.157-.034-.315-.067-.47a2.726,2.726,0,0,0-.191-.529q-.969-2.211-1.94-4.416c-.1-.237-.206-.474-.313-.711-.334-.764-.671-1.529-.955-2.32-.338-.925-.606-1.873-.862-2.82a6.114,6.114,0,0,1-.294-1.735,4.311,4.311,0,0,1,.361-1.511c.115-.279.248-.552.382-.82a40.424,40.424,0,0,1,11.738-1.005,6.463,6.463,0,0,1,1.855.308,2.7,2.7,0,0,1,1.068.7,1.867,1.867,0,0,1,.331.495,3.674,3.674,0,0,1,.2,1.639,12.715,12.715,0,0,1-.355,3.1A2.188,2.188,0,0,0,215.372,514.94Z" transform="translate(159.599 543.069)" fill="#3f3d56"/>
    <path id="Path_104" data-name="Path 104" d="M240.413,743.741a4.374,4.374,0,0,1-1.989.837,2.375,2.375,0,0,1-1.844-.382,3.335,3.335,0,0,1-.942-1.951l-.22-.955c-.08-.344-.159-.688-.222-1.036a11.143,11.143,0,0,1-.143-2.784,1.593,1.593,0,0,0-.871,1.385,4.859,4.859,0,0,0,.3,1.647,3.127,3.127,0,0,0,.285.747c.094.157.216.3.3.461a2.293,2.293,0,0,1,.17.764,21.31,21.31,0,0,0,.514,2.561l.34,1.4.034.141.289,1.189a.513.513,0,0,0,.042.122.465.465,0,0,0,.141.145,4.2,4.2,0,0,0,4.189.453.5.5,0,0,0,.143-.09.512.512,0,0,0,.094-.354,2.379,2.379,0,0,1,.218-1.1,1.88,1.88,0,0,0,.21-.409,1.1,1.1,0,0,0-.128-.678l-.707-1.655A1.632,1.632,0,0,0,240.413,743.741Z" transform="translate(131.863 357.601)" fill="#3f3d56"/>
    <path id="Path_105" data-name="Path 105" d="M220.629,359.482a4.394,4.394,0,0,1-.214,1.07,1.5,1.5,0,0,1-.438.65c-.329-.443-.915-.6-1.361-.923a4.922,4.922,0,0,1-.946-1.078c-.573-.764-1.227-1.443-1.838-2.165-.094-.111-.191-.22-.273-.331a9.665,9.665,0,0,1-.847-1.21,9.261,9.261,0,0,0-1.628-2.555,13.708,13.708,0,0,1-1.315-1.013,3.405,3.405,0,0,0,.434-1.259c.088-.426.174-.854.22-1.288.013-.115.021-.229.025-.344v-.147c0-.353-.227-.955.134-1.158a2.636,2.636,0,0,1,1.263-.18h.071a4.657,4.657,0,0,1,2.54.787,1.553,1.553,0,0,1,.439.4,1.685,1.685,0,0,1,.191,1.043,1.558,1.558,0,0,1-.013.25v.122a1.485,1.485,0,0,0,.313,1.131,2.955,2.955,0,0,0,1.213.451c.069.023.134.046.2.073a2.692,2.692,0,0,1,1.129.955,4.616,4.616,0,0,1,.655,1.576,9.05,9.05,0,0,1,.22,1.529A21.815,21.815,0,0,1,220.629,359.482Z" transform="translate(149.989 673.013)" fill="#fbbebe"/>
    <path id="Path_106" data-name="Path 106" d="M219.708,349.982v.122c-.51.191-1.754-.336-2.329-.336-1.147,0-1.494.224-2.32-.441.017-.162.029-.327.032-.491,0-.354-.227-.955.134-1.158a2.8,2.8,0,0,1,1.326-.18,4.657,4.657,0,0,1,2.54.787,1.554,1.554,0,0,1,.439.4A2.1,2.1,0,0,1,219.708,349.982Z" transform="translate(147.36 673.059)" opacity="0.1"/>
    <path id="Path_107" data-name="Path 107" d="M215.436,315.266a4.8,4.8,0,1,1-4.8-4.806,4.8,4.8,0,0,1,4.8,4.806Z" transform="translate(154.794 703.014)" fill="#fbbebe"/>
    <path id="Path_108" data-name="Path 108" d="M201.493,364.357a1,1,0,0,0-.531-.227.751.751,0,0,0-.632.489c-.117.258-.153.543-.254.808a1.771,1.771,0,0,1-.711.864,2.048,2.048,0,0,0-.652.459,1.166,1.166,0,0,0,.111,1.2,9.536,9.536,0,0,0,3.495,3.136l1.506.955a19.644,19.644,0,0,0,1.876,1.1c1.045.516,2.176.846,3.216,1.374a5.245,5.245,0,0,0,1.477.611,4.842,4.842,0,0,0,.208-1.095,20.684,20.684,0,0,0,0-6.889,2.463,2.463,0,0,0-.531-1.187,2.581,2.581,0,0,0-.669-.462,18.908,18.908,0,0,0-1.88-.883,2.147,2.147,0,0,0-.967-.214,2.053,2.053,0,0,0,.222.719q1.21,2.7,2.423,5.394a2.457,2.457,0,0,1,.294,1.064c-.017.529-.382,1.045-.227,1.554a36.245,36.245,0,0,0-4.825-5.668.776.776,0,0,1-.191-.239.967.967,0,0,1-.027-.445,1.037,1.037,0,0,0-.279-.85,6.2,6.2,0,0,0-.589-.285C202.724,365.238,202.114,364.785,201.493,364.357Z" transform="translate(160.653 659.6)" fill="#cbe8e9"/>
    <path id="Path_109" data-name="Path 109" d="M216.91,509.695a10.353,10.353,0,0,1-3.892,1.076,30.963,30.963,0,0,1-4.061.023l-3.08-.117a15.55,15.55,0,0,1-4.106-.589c.115-.279.248-.552.382-.82a40.424,40.424,0,0,1,11.738-1.005,6.464,6.464,0,0,1,1.855.308,2.7,2.7,0,0,1,1.068.7C216.845,509.414,216.879,509.557,216.91,509.695Z" transform="translate(158.078 543.069)" opacity="0.1"/>
    <path id="Path_110" data-name="Path 110" d="M195.512,380.648a12.369,12.369,0,0,0,.164,5.61.539.539,0,0,1,.218.587,3.58,3.58,0,0,1-.256.615.728.728,0,0,0-.015.644c.048.084.122.149.172.231a.934.934,0,0,1,.1.43,6.3,6.3,0,0,1-.1,2.077,2.112,2.112,0,0,0-.172,1.181,3.7,3.7,0,0,1,.277.673,1.822,1.822,0,0,1-.214.74,3.3,3.3,0,0,0,.05,1.863,10.354,10.354,0,0,1-3.892,1.076,30.632,30.632,0,0,1-4.061.023l-3.08-.117a15.385,15.385,0,0,1-4.137-.6,3.891,3.891,0,0,1,.281-2.721,1.6,1.6,0,0,0,.241-.411c.092-.317-.109-.64-.172-.955a2.6,2.6,0,0,1,.694-1.844.823.823,0,0,0,.134-.248c.071-.256-.084-.537-.086-.795a.445.445,0,0,1,.05-.214c.055-.109.162-.191.22-.29a.774.774,0,0,0,.054-.443q-.107-1.443-.348-2.866c-.015-.084-.031-.172-.052-.258a1.372,1.372,0,0,0-.139-.382c-.09-.155-.222-.279-.31-.434a.627.627,0,0,1,0-.56c.086-.161-.149-.3-.224-.466a1.051,1.051,0,0,1-.021-.4,1.278,1.278,0,0,0-.248-.615c-.168-.266-.336-.529-.508-.791q-1.147-1.779-2.391-3.5c-.394-.548-.8-1.095-1.2-1.634a4.818,4.818,0,0,1-.837-1.4,2.02,2.02,0,0,1-.069-.277,2.368,2.368,0,0,1,.2-1.475,7.461,7.461,0,0,1,.764-1.072,13.047,13.047,0,0,1,.879-1.181,1.833,1.833,0,0,1,1.278-.644c.285,0,.617.08.814-.124.073-.073.111-.17.191-.241.208-.191.55-.063.8.078l4.812,2.719.78.443c.141.084.287.168.428.254a16.745,16.745,0,0,1,1.915,1.3,23.78,23.78,0,0,1,2.654,2.209c.075.078.145.157.214.239q.21-1.467.42-2.939a3.682,3.682,0,0,0,.055-.856,3.632,3.632,0,0,0-.206-.824c-.031-.1-.063-.191-.094-.287-.174-.52-.348-1.038-.52-1.557a5.1,5.1,0,0,0-1.1-2.115,2.961,2.961,0,0,1-.382-.392h0a.573.573,0,0,1-.1-.506l4.053,1.265c.191.061.382.12.573.191a2.646,2.646,0,0,1,.623.382,2.255,2.255,0,0,1,.831,2.062c-.04.254-.128.495-.182.745a2.3,2.3,0,0,0-.042,1.395c.2.42.382.791.56,1.187a5.973,5.973,0,0,1,.382.938,4.586,4.586,0,0,1,.132,1.351,10.2,10.2,0,0,1-.52,2.981C195.728,380.021,195.608,380.331,195.512,380.648Z" transform="translate(179.259 657.101)" fill="#454b69"/>
    <path id="Path_111" data-name="Path 111" d="M163.59,371.773l9.61-.9,1.68-.189-1.544.547Z" transform="translate(202.912 668.253)" fill="#3f3d56"/>
    <path id="Path_112" data-name="Path 112" d="M162.46,373.647v-.724l10.187-.5.5.426Z" transform="translate(203.826 666.846)" fill="#3f3d56"/>
    <path id="Path_113" data-name="Path 113" d="M226.383,443.039c.214-.057.443-.046.659-.1a8.1,8.1,0,0,1,.82-.275,1.753,1.753,0,0,1,.527.038l1.318.229c.1.019.22.05.256.147a.25.25,0,0,1-.08.243,1.39,1.39,0,0,1-.955.308l-.919.055a1.106,1.106,0,0,0-.516.118.382.382,0,0,0-.172.455.481.481,0,0,0,.21.191,1.964,1.964,0,0,0,1.2.227,5.74,5.74,0,0,0,.982-.279,6.192,6.192,0,0,1,2.507-.266c.22.021.476.084.554.29a.466.466,0,0,1-.088.424c-.329.457-.982.472-1.529.6a3.149,3.149,0,0,0-1.4.728.93.93,0,0,1-.1.8,5.075,5.075,0,0,1-.493.818,1.049,1.049,0,0,1-.415.373,1.117,1.117,0,0,1-.346.061,14.917,14.917,0,0,1-3.415-.191.557.557,0,0,1-.329-.138.542.542,0,0,1-.105-.266c-.117-.573-.22-1.147-.308-1.733a1.72,1.72,0,0,1,.1-1.087c.141-.266.363-.352.589-.531C225.422,443.888,225.736,443.211,226.383,443.039Z" transform="translate(139.935 596.075)" fill="#fbbebe"/>
    <path id="Path_114" data-name="Path 114" d="M290.429,380.126l-2.385,11.828a.573.573,0,0,0,.625.692l8.995-.883a.573.573,0,0,0,.512-.462l2.2-10.947a.573.573,0,0,0-.573-.694H291A.573.573,0,0,0,290.429,380.126Z" transform="translate(88.3 647.038)" fill="#3f3d56"/>
    <path id="Path_115" data-name="Path 115" d="M299.628,434.948c.573-.361.736-1.091,1-1.708a10.725,10.725,0,0,1,.722-1.309,1.405,1.405,0,0,0,.277-1.242,1.146,1.146,0,0,0-.661-.537,1.289,1.289,0,0,0-.816-.1,1.632,1.632,0,0,0-.747.583l-.741.86a4.841,4.841,0,0,1-1.131,1.061,4.319,4.319,0,0,1-.856.361c-.531.176-1.07.331-1.615.461a4.424,4.424,0,0,0-.911.283.476.476,0,0,0-.268.248.552.552,0,0,0,.094.409c.191.35.4,1.062.795,1.187a6.589,6.589,0,0,0,1.137.178,1.95,1.95,0,0,0,1.009-.256,3.332,3.332,0,0,1,1.338-.214C298.64,435.2,299.321,435.257,299.628,434.948Z" transform="translate(83.576 606.297)" fill="#fbbebe"/>
    <path id="Path_116" data-name="Path 116" d="M292.512,447.4s.338,2.276,2.459,2.026c0,0-1.129.449-1.011.7s-2.618-.491-2.618-.491l-.141-1.187s-.09-.655,0-.673S292.512,447.4,292.512,447.4Z" transform="translate(85.768 592.242)" fill="#454b69"/>
    <path id="Path_117" data-name="Path 117" d="M292.512,447.4s.338,2.276,2.459,2.026c0,0-1.129.449-1.011.7s-2.618-.491-2.618-.491l-.141-1.187s-.09-.655,0-.673S292.512,447.4,292.512,447.4Z" transform="translate(85.768 592.242)" opacity="0.1"/>
    <path id="Path_118" data-name="Path 118" d="M246.93,397.63a1.146,1.146,0,0,1,.493.478,3.325,3.325,0,0,1,.4.913,2.335,2.335,0,0,0,.445,1.114" transform="translate(121.547 632.502)" opacity="0.1"/>
    <path id="Path_119" data-name="Path 119" d="M180.45,406.175a2.23,2.23,0,0,1-.18,1.653q-1.146-1.779-2.391-3.5c-.394-.548-.8-1.095-1.2-1.634a4.818,4.818,0,0,1-.837-1.4,2.022,2.022,0,0,1-.069-.277,1.529,1.529,0,0,1,.862-.621c.558,1.618,1.972,2.778,2.985,4.162A4.776,4.776,0,0,1,180.45,406.175Z" transform="translate(179.11 630.261)" opacity="0.1"/>
    <path id="Path_120" data-name="Path 120" d="M212.779,455.539l-3.348.115c-.285.01-.636.065-.726.336-.027.086-.023.18-.05.266-.094.3-.5.34-.82.338-.277,0-.554.011-.829.033a.445.445,0,0,1,.05-.214c.055-.109.162-.191.22-.29a.774.774,0,0,0,.053-.443q-.107-1.443-.348-2.866c-.015-.084-.031-.172-.052-.258a1.6,1.6,0,0,1,.873-.264,5.253,5.253,0,0,0,.8.178c.478-.025.808-.558,1.286-.589a.8.8,0,0,0,.3-.036c.151-.076.176-.277.254-.426a.612.612,0,0,1,.678-.218,9.8,9.8,0,0,0,.1,1.513,2.644,2.644,0,0,0,.153.642,3.091,3.091,0,0,0,.34.592C212.076,454.483,212.42,455,212.779,455.539Z" transform="translate(153.904 589.186)" opacity="0.1"/>
    <path id="Path_121" data-name="Path 121" d="M170.314,399.45a1.814,1.814,0,0,0-1.19,1.3,5.859,5.859,0,0,0-.126,1.829,36.345,36.345,0,0,1-.464,6.8,14.7,14.7,0,0,0-.334,3.248,2.828,2.828,0,0,0,.55,1.655,3.124,3.124,0,0,0,2.57.825c1.674-.065,3.317-.556,4.993-.545.319,0,.724-.036.82-.34.027-.084.021-.178.05-.264.088-.271.44-.329.726-.338l3.348-.113c-.359-.529-.7-1.049-1.062-1.578a3.266,3.266,0,0,1-.342-.592,2.751,2.751,0,0,1-.153-.644,9.762,9.762,0,0,1-.1-1.512.622.622,0,0,0-.68.216c-.078.151-.1.35-.252.426a.732.732,0,0,1-.3.036c-.476.032-.806.573-1.284.59a5.446,5.446,0,0,1-.8-.178,2.538,2.538,0,0,0-1.219.417,2.578,2.578,0,0,1-2.068,0c-.1-.042-.206-.164-.126-.237s.143-.011.208-.042c.122-.061.032-.243-.034-.361a1.205,1.205,0,0,1,.128-1.12,2.541,2.541,0,0,0,.434-1.083,2.063,2.063,0,0,1,0-.382,1.421,1.421,0,0,1,.281-.487,2.2,2.2,0,0,0,.245-1.756,4.777,4.777,0,0,0-.835-1.611C172.288,402.23,170.874,401.069,170.314,399.45Z" transform="translate(185.244 631.029)" fill="#454b69"/>
    <path id="Path_122" data-name="Path 122" d="M185.339,381.233l.78.443a7.158,7.158,0,0,1-.734.292c-1.758.59-1.131,1.41-2.985,1.387-1.263-.013-2.7-.111-3.589.791a4.118,4.118,0,0,0-.826,1.567c-.092.256-.182.512-.271.764-.394-.548-.8-1.095-1.2-1.634a4.818,4.818,0,0,1-.837-1.4,2.37,2.37,0,0,1,.136-1.752,7.461,7.461,0,0,1,.764-1.072,13.051,13.051,0,0,1,.879-1.181,1.833,1.833,0,0,1,1.278-.644c.285,0,.617.08.814-.124.073-.073.111-.17.191-.241.208-.191.55-.063.8.078Z" transform="translate(179.274 648.11)" opacity="0.1"/>
    <path id="Path_123" data-name="Path 123" d="M169.591,300.085a2.551,2.551,0,0,0-.168-.667,1.988,1.988,0,0,0-.311-.453,4.359,4.359,0,0,0-3.226-1.466.712.712,0,0,0-.311.05.315.315,0,0,0-.069.042,9.541,9.541,0,0,0-2.866-1.408,4.167,4.167,0,0,0-2.012.027c-.8.241-1.08.879-1.42,1.576a7.122,7.122,0,0,1-2.413,2.778c-.665.449-1.454.835-1.773,1.571a4.51,4.51,0,0,0-.025,2.219,6.134,6.134,0,0,1-2.306,5.312c-.91.705-2.123,1.294-2.316,2.427a4.149,4.149,0,0,0,.657,2.324,5.586,5.586,0,0,1,.122,5,5.736,5.736,0,0,0-.7,1.294,2.17,2.17,0,0,0,.976,2.247,4.389,4.389,0,0,0,2.5.619,2.467,2.467,0,0,0,1.769-.541,2.836,2.836,0,0,0,.594-1.112q.55-1.557,1.1-3.113a3.99,3.99,0,0,1,.826-1.567c.883-.9,2.326-.806,3.587-.791,1.855.023,1.229-.795,2.985-1.387,1.032-.348,2.154-.94,2.394-2s-.474-2.026-1.1-2.885q-.7-.955-1.326-1.978a5.708,5.708,0,0,1-.908-2.115c-.191-1.271,2.895-1.98,3.357-3.178a8.843,8.843,0,0,0,.332-1.036c.222-.017.426-.038.573-.044a1.547,1.547,0,0,0,1.456-.812A1.869,1.869,0,0,0,169.591,300.085Z" transform="translate(199.674 714.652)" fill="#3f3d56"/>
    <g id="Group_10" data-name="Group 10" transform="translate(351.369 1010.763)" opacity="0.1">
      <path id="Path_124" data-name="Path 124" d="M215.754,297.287a.751.751,0,0,1,.311-.048h.044a7.96,7.96,0,0,0-2.1-.932l-.178-.036a12.633,12.633,0,0,1,1.865,1.059A.422.422,0,0,1,215.754,297.287Z" transform="translate(-203.047 -296.27)"/>
      <path id="Path_125" data-name="Path 125" d="M175.3,306.211a2.551,2.551,0,0,0-.168-.667,1.947,1.947,0,0,0-.311-.453,4.366,4.366,0,0,0-2.505-1.4,4.285,4.285,0,0,1,1.338,1.017,1.863,1.863,0,0,1,.311.451,2.438,2.438,0,0,1,.168.669,1.869,1.869,0,0,1-.011.925,1.539,1.539,0,0,1-1.454.81c-.143,0-.35.029-.573.044a8.748,8.748,0,0,1-.332,1.038c-.462,1.2-3.543,1.911-3.355,3.178a5.7,5.7,0,0,0,.906,2.115c.405.657.86,1.338,1.326,1.978.625.86,1.338,1.848,1.1,2.885s-1.361,1.655-2.392,2c-1.758.592-1.131,1.41-2.985,1.387-1.263-.015-2.706-.111-3.589.791a4.118,4.118,0,0,0-.826,1.567l-1.1,3.113a2.866,2.866,0,0,1-.592,1.112,2.48,2.48,0,0,1-1.769.539,6.331,6.331,0,0,1-1.076-.08,4.669,4.669,0,0,0,2.245.466,2.467,2.467,0,0,0,1.769-.541,2.836,2.836,0,0,0,.594-1.112q.55-1.555,1.1-3.113a3.989,3.989,0,0,1,.825-1.567c.883-.9,2.326-.806,3.587-.791,1.855.023,1.229-.795,2.985-1.387,1.032-.348,2.154-.94,2.394-2s-.474-2.025-1.1-2.885q-.7-.955-1.326-1.978a5.707,5.707,0,0,1-.908-2.115c-.191-1.271,2.895-1.98,3.357-3.178a8.847,8.847,0,0,0,.333-1.036c.222-.017.426-.038.573-.044a1.547,1.547,0,0,0,1.456-.812A1.869,1.869,0,0,0,175.3,306.211Z" transform="translate(-157.4 -302.272)"/>
    </g>
  </g>
</svg>
