<svg xmlns="http://www.w3.org/2000/svg" width="222.035" height="145.26" viewBox="0 0 222.035 145.26">
  <g id="Group_16" data-name="Group 16" transform="translate(-349.42 -1486.664)">
    <path id="Path_28" data-name="Path 28" d="M220.177,546.509l-1.665-6.566a85.234,85.234,0,0,0-9.045-3.245l-.21,3.051-.852-3.362C204.593,535.3,202,534.82,202,534.82s3.5,13.32,10.85,23.5l8.561,1.5-6.651.959a34.489,34.489,0,0,0,2.975,3.153c10.688,9.921,22.592,14.472,26.588,10.166s-1.427-15.839-12.115-25.759a45.411,45.411,0,0,0-11.642-7.486Z" transform="translate(147.42 1048.134)" fill="#e6e6e6"/>
    <path id="Path_29" data-name="Path 29" d="M291.477,501.008l1.969-6.481a85.253,85.253,0,0,0-6.066-7.453l-1.757,2.5,1.008-3.318c-2.7-2.9-4.673-4.653-4.673-4.653s-3.887,13.213-2.861,25.728l6.551,5.712-6.189-2.617a34.5,34.5,0,0,0,.917,4.237c4.021,14.017,11.859,24.066,17.506,22.446s6.965-14.3,2.944-28.313a45.41,45.41,0,0,0-6.1-12.426Z" transform="translate(91.952 1086.504)" fill="#e6e6e6"/>
    <ellipse id="Ellipse_1" data-name="Ellipse 1" cx="111.018" cy="6.08" rx="111.018" ry="6.08" transform="translate(349.42 1619.763)" fill="#e6e6e6"/>
    <path id="Path_30" data-name="Path 30" d="M382.456,524.136s29.478-13.038,32.5-3.779-19.463,24.754-19.463,24.754l-9.448-2.645,12.849-9.448s-17.573,12.471-26.454,9.637A24.291,24.291,0,0,1,359.4,531.883Z" transform="translate(33.923 1060.958)" fill="#2f2e41"/>
    <path id="Path_31" data-name="Path 31" d="M447.338,607.364l-3.968,6.992s1.323,8.314,5.291,9.259,6.614,3.59,3.4,4.157-11.338,1.134-12.66-1.7-4.535-7.936-4.535-7.936l.756,6.8-3.779.189-.567-7.747a5.325,5.325,0,0,1,.945-4.913,79.861,79.861,0,0,1,7.378-7.26Z" transform="translate(-17.732 997.381)" fill="#2f2e41"/>
    <path id="Path_32" data-name="Path 32" d="M336.768,592.452a.627.627,0,0,0-.642.61v23.926a.627.627,0,0,0,.642.61h29.4a.628.628,0,0,0,.642-.61V593.063a.627.627,0,0,0-.642-.61Z" transform="translate(50.707 1006.578)" fill="#e6e6e6"/>
    <path id="Path_33" data-name="Path 33" d="M205.071,169.07l-18.715,1.673-5.691-15.509,16.346-3.937Z" transform="translate(219.149 1377.57)" fill="#2f2e41"/>
    <path id="Path_34" data-name="Path 34" d="M353.308,562.086s29.667-.945,24.943,10.393-21.163,11.526-21.163,11.526l-3.779,2.645s-5.1-3.023-4.913-7.936l6.236-2.645s-14.172,7.747-15.873-3.023S353.308,562.086,353.308,562.086Z" transform="translate(48.899 1028.487)" fill="#2f2e41"/>
    <path id="Path_35" data-name="Path 35" d="M344.556,622.426s-13.7.472-12.755,4.818-.85,12-.85,12l3.212,1.134.945-6.614s.756,10.015,4.913,10.2,12.849,1.89,12.66,0-6.8-5.669-6.8-5.669l-.378-6.614,2.268-2.834Z" transform="translate(54.438 984.964)" fill="#2f2e41"/>
    <circle id="Ellipse_2" data-name="Ellipse 2" cx="8.692" cy="8.692" r="8.692" transform="translate(400.695 1528.784)" fill="#9f616a"/>
    <path id="Path_36" data-name="Path 36" d="M368.766,377.2s-.189,7.747-4.913,8.692a4.381,4.381,0,0,0-3.685,5.385l8.031,10.3,10.015-10.96.945-3.968s-4.157,1.7-3.212-.756a29.673,29.673,0,0,0,1.323-4.346Z" transform="translate(33.441 1161.788)" fill="#9f616a"/>
    <path id="Path_37" data-name="Path 37" d="M347.379,411.416a28.159,28.159,0,0,0-2.848-4.748s-15.211,2.551-13.322,15.778,2.456,22.675,2.456,22.675l-.021.061c-1.464,4.2-2.23,9.312-1.207,13.639a21.711,21.711,0,0,0,1.039,3.5s-.378-10.2,15.873-11.715,15.022-8.22,15.022-8.22l-2.645-32.69c-.052-1.173.418-2.814-.756-2.834-2.489-.043-4.686-.35-5.952.283-1.418.709.037,4.5-2.821,6.034a3.492,3.492,0,0,1-4.818-1.759Z" transform="translate(54.37 1140.539)" fill="#3f3d56"/>
    <path id="Path_38" data-name="Path 38" d="M384.668,327.2s3.917,1.306,4.161,6.446a9.29,9.29,0,0,1-.271,2.571c-.225.952-.369,3.009,1.4,5.7a53.037,53.037,0,0,1,3.146,5.422h0l-4.353.544-.926-7.216a35.932,35.932,0,0,0-2.854-10.13l-.03-.067s-1.9,3.537-5.714,3.537l1.36-1.36a48.029,48.029,0,0,1-7.3,2.363,1.642,1.642,0,0,0-.912,2.758l.048.049c1.633,1.633,4.9,5.442,2.993,8.435s-.272,3.809-.272,3.809l-2.993-1.633-1.36-.816V348.7l-7.074-.816s-1.9-.272,2.177-4.9a4.849,4.849,0,0,0,.606-3.345,7.815,7.815,0,0,1-.3-3.655C367.117,330.883,370.7,320.742,384.668,327.2Z" transform="translate(31.132 1199.343)" fill="#2f2e41"/>
    <path id="Path_39" data-name="Path 39" d="M144.437,326.367l-2.276,5.787L145,327.506Z" transform="translate(246.913 1251.333)" opacity="0.2"/>
    <path id="Path_40" data-name="Path 40" d="M338.4,483.223l9.826,20.03,23.242,3.212s8.314,13.794,10.2,10.96-7.18-14.739-7.18-14.739l-22.3-6.614-6.992-14.55Z" transform="translate(49.065 1086.564)" fill="#9f616a"/>
    <path id="Path_41" data-name="Path 41" d="M439.865,449.087l9.826,20.03,23.242,3.212s14.134,4.621,16.023,1.787-13-5.566-13-5.566l-22.3-6.614-6.992-14.55Z" transform="translate(-24.095 1111.179)" fill="#9f616a"/>
    <path id="Path_42" data-name="Path 42" d="M338.015,417.506s-4.724,1.323-5.858,5.669,3.212,27.588,3.212,27.588,4.818-13.888,7.464-12.944C342.833,437.819,343.117,419.585,338.015,417.506Z" transform="translate(53.705 1132.724)" fill="#3f3d56"/>
    <path id="Path_43" data-name="Path 43" d="M426.468,407.816a3.418,3.418,0,0,1,4.913.756c2.268,2.834,12.377,19.557,12.377,19.557s-14.833-1.417-14.833-.472Z" transform="translate(-14.435 1140.241)" fill="#3f3d56"/>
    <path id="Path_44" data-name="Path 44" d="M703.613,189.62a1.728,1.728,0,0,0-1.726,1.726v67.649a1.728,1.728,0,0,0,1.726,1.726h79.015a1.728,1.728,0,0,0,1.726-1.726V191.346a1.728,1.728,0,0,0-1.726-1.726Z" transform="translate(-213.029 1297.044)" fill="#ccc"/>
    <path id="Path_45" data-name="Path 45" d="M745.79,335.6a.759.759,0,0,0,0,1.487H803.6a.759.759,0,0,0,0-1.487Z" transform="translate(-244.248 1191.787)" fill="#fff"/>
    <path id="Path_46" data-name="Path 46" d="M743.243,367.269a.759.759,0,0,0,0,1.487h57.809a.759.759,0,0,0,0-1.487Z" transform="translate(-242.411 1168.948)" fill="#fff"/>
    <path id="Path_47" data-name="Path 47" d="M745.79,398.943a.759.759,0,0,0,0,1.487H803.6a.759.759,0,0,0,0-1.487Z" transform="translate(-244.248 1146.11)" fill="#fff"/>
    <path id="Path_48" data-name="Path 48" d="M745.79,229.863a.759.759,0,0,0,0,1.487H803.6a.759.759,0,0,0,0-1.487Z" transform="translate(-244.248 1268.027)" fill="#fff"/>
    <path id="Path_49" data-name="Path 49" d="M743.243,261.536a.759.759,0,0,0,0,1.487h57.809a.759.759,0,0,0,0-1.487Z" transform="translate(-242.411 1245.188)" fill="#fff"/>
    <path id="Path_50" data-name="Path 50" d="M745.79,293.21a.759.759,0,0,0,0,1.487H803.6a.759.759,0,0,0,0-1.487Z" transform="translate(-244.248 1222.349)" fill="#fff"/>
    <path id="Path_51" data-name="Path 51" d="M577,288.793a1.728,1.728,0,0,0-1.726,1.726v67.649A1.728,1.728,0,0,0,577,359.894h79.015a1.728,1.728,0,0,0,1.726-1.726V290.519a1.728,1.728,0,0,0-1.726-1.726Z" transform="translate(-121.732 1225.534)" fill="#009197"/>
    <path id="Path_52" data-name="Path 52" d="M619.175,434.769a.759.759,0,0,0,0,1.487h57.809a.759.759,0,0,0,0-1.487Z" transform="translate(-152.951 1120.277)" fill="#fff"/>
    <path id="Path_53" data-name="Path 53" d="M616.628,466.443a.759.759,0,0,0,0,1.487h57.809a.759.759,0,0,0,0-1.487Z" transform="translate(-151.114 1097.438)" fill="#fff"/>
    <path id="Path_54" data-name="Path 54" d="M619.175,498.116a.759.759,0,0,0,0,1.487h57.809a.759.759,0,0,0,0-1.487Z" transform="translate(-152.951 1074.599)" fill="#fff"/>
    <path id="Path_55" data-name="Path 55" d="M619.175,329.036a.759.759,0,0,0,0,1.487h57.809a.759.759,0,0,0,0-1.487Z" transform="translate(-152.951 1196.516)" fill="#fff"/>
    <path id="Path_56" data-name="Path 56" d="M616.628,360.71a.759.759,0,0,0,0,1.487h57.809a.759.759,0,0,0,0-1.487Z" transform="translate(-151.114 1173.678)" fill="#fff"/>
    <path id="Path_57" data-name="Path 57" d="M619.175,392.383a.759.759,0,0,0,0,1.487h57.809a.759.759,0,0,0,0-1.487Z" transform="translate(-152.951 1150.839)" fill="#fff"/>
    <circle id="Ellipse_3" data-name="Ellipse 3" cx="20.176" cy="20.176" r="20.176" transform="translate(514.725 1493.021)" fill="#3f3d56"/>
    <path id="Path_58" data-name="Path 58" d="M654.358,71.055V60.764h-5.3V71.055h-2.474l2.562,4.438,2.562,4.438,2.562-4.438,2.562-4.438Z" transform="translate(-116.807 1442.849)" fill="#fff"/>
  </g>
</svg>
