<svg id="aa853218-2cb3-4a2f-8b42-cf04e6fdcfc6" data-name="Layer 1" xmlns="http://www.w3.org/2000/svg" xmlns:xlink="http://www.w3.org/1999/xlink" viewBox="0 0 156.46 34.11"><defs><style>.a12afe46-e9ec-4fed-a041-d171e23b5287{fill:url(#ed710ca4-f54a-45c1-8930-1f1a79c7c165);}.f4e2c991-eecc-4185-8be9-4ec369ffe534{fill:none;stroke-linecap:round;stroke-linejoin:round;stroke-width:5.5px;stroke:url(#f5345778-3256-407e-a6a4-6478c034349f);}.adfa6594-0c46-4152-b161-b53ae93774c2{fill:#221f20;}</style><linearGradient id="ed710ca4-f54a-45c1-8930-1f1a79c7c165" x1="202.25" y1="417.5" x2="257.57" y2="417.5" gradientUnits="userSpaceOnUse"><stop offset="0" stop-color="#009da5"/><stop offset="1" stop-color="#2a4292"/></linearGradient><linearGradient id="f5345778-3256-407e-a6a4-6478c034349f" x1="229.91" y1="426.57" x2="229.91" y2="426.57" xlink:href="#ed710ca4-f54a-45c1-8930-1f1a79c7c165"/></defs><path class="a12afe46-e9ec-4fed-a041-d171e23b5287" d="M257.25,401.71a2.42,2.42,0,0,0-2.1-1.22H238.31a2.41,2.41,0,0,0-2.09,1.21l-14.77,25.57-12.59-22H220.1l5.27,9.22,2.89-4.71-4.65-8.13a2.43,2.43,0,0,0-2.11-1.22H204.68a2.43,2.43,0,0,0-2.11,3.63l16.77,29.26a2.43,2.43,0,0,0,2.1,1.22h0a2.41,2.41,0,0,0,2.09-1.21l16.17-28H251l-12.68,21.93-3.93-6.86-2.89,4.71,4.7,8.21a2.44,2.44,0,0,0,2.1,1.22h0a2.41,2.41,0,0,0,2.09-1.21l16.9-29.21A2.43,2.43,0,0,0,257.25,401.71Z" transform="translate(-202.25 -400.44)"/><path class="f4e2c991-eecc-4185-8be9-4ec369ffe534" d="M229.91,426.57" transform="translate(-202.25 -400.44)"/><path class="adfa6594-0c46-4152-b161-b53ae93774c2" d="M268.15,411.4l.38-.52h2.84L274,423.15h.29l3.1-12.27h3.92l3.1,12.27h.29l2.58-12.27h2.84l.38.52-3.25,14.71h-5.13l-2.78-11.43-2.76,11.43H271.4Z" transform="translate(-202.25 -400.44)"/><path class="adfa6594-0c46-4152-b161-b53ae93774c2" d="M293,421.53v-6.06q0-4.59,4.59-4.59h8.35v16.45q0,4.57-4.58,4.58h-5.57l-1.51-1.13V429h6.93a1.18,1.18,0,0,0,1.34-1.33v-1.51h-5Q293,426.11,293,421.53Zm3.4.29a1.17,1.17,0,0,0,1.33,1.33h4.82v-9.34H297.7a1.19,1.19,0,0,0-1.33,1.36Z" transform="translate(-202.25 -400.44)"/><path class="adfa6594-0c46-4152-b161-b53ae93774c2" d="M310.06,421.53V406.1h3.39v4.78h5.16v2.93h-5.16v8a1.17,1.17,0,0,0,1.33,1.33h4.12V425l-1.51,1.13h-2.75C311.58,426.11,310.06,424.58,310.06,421.53Z" transform="translate(-202.25 -400.44)"/><path class="adfa6594-0c46-4152-b161-b53ae93774c2" d="M320.61,411.4l.38-.52h2.84l2.58,12.27h.29l3.1-12.27h3.92l3.1,12.27h.29l2.58-12.27h2.84l.38.52-3.25,14.71h-5.13l-2.78-11.43L329,426.11h-5.13Z" transform="translate(-202.25 -400.44)"/><path class="adfa6594-0c46-4152-b161-b53ae93774c2" d="M345.52,421.53v-6.06q0-4.59,4.58-4.59h4.06q4.56,0,4.56,4.59v6.06q0,4.58-4.56,4.58H350.1Q345.53,426.11,345.52,421.53Zm3.39.29a1.18,1.18,0,0,0,1.34,1.33H354a1.19,1.19,0,0,0,1.36-1.33v-6.65a1.2,1.2,0,0,0-1.36-1.36h-3.74a1.2,1.2,0,0,0-1.34,1.36Z" transform="translate(-202.25 -400.44)"/></svg>