<svg width="64" height="64" viewBox="0 0 64 64" fill="none" xmlns="http://www.w3.org/2000/svg"><path d="M32 64c17.673 0 32-14.327 32-32C64 14.327 49.673 0 32 0 14.327 0 0 14.327 0 32c0 17.673 14.327 32 32 32z" fill="#3659B5"/><path d="M32 5.08l-.88 2.712h-2.833l2.296 1.661-.88 2.688L32 10.479l2.296 1.662-.88-2.688 2.297-1.66H32.88L32 5.08zm.88 49.467L32 51.858l-.88 2.688h-2.833l2.296 1.66-.88 2.712L32 57.258l2.296 1.661-.88-2.711 2.297-1.661H32.88zM8.623 33.856l2.272 1.661-.855-2.687 2.272-1.66H9.478l-.855-2.688-.88 2.687H4.91l2.296 1.662-.88 2.686 2.297-1.66zM20.3 8.232l-.855 2.687H16.61l2.272 1.661-.855 2.687 2.272-1.66 2.296 1.66-.88-2.687 2.297-1.66h-2.834l-.88-2.688zm-8.55 8.55l-.88 2.687H8.038l2.296 1.66-.88 2.712 2.297-1.66 2.296 1.66-.88-2.711 2.297-1.661H12.63l-.88-2.687zm.88 26.088l-.88-2.711-.88 2.711H8.038l2.296 1.661-.88 2.687 2.297-1.66 2.296 1.66-.88-2.687 2.297-1.66H12.63zm8.55 8.55l-.88-2.687-.855 2.687H16.61l2.272 1.66-.855 2.688 2.272-1.661 2.296 1.661-.88-2.687 2.297-1.661h-2.834zm37.911-20.25h-2.834l-.879-2.688-.855 2.687h-2.834l2.272 1.662-.855 2.686 2.272-1.66 2.296 1.66-.88-2.687 2.297-1.66zM43.701 8.232l-.88 2.687h-2.833l2.297 1.661-.88 2.687 2.296-1.66 2.272 1.66-.855-2.687 2.272-1.66h-2.834l-.855-2.688zm7.132 12.898l-.88 2.711 2.297-1.66 2.296 1.66-.88-2.711 2.297-1.661H53.13l-.879-2.687-.88 2.687h-2.833l2.296 1.66zm2.297 21.74l-.88-2.711-.88 2.711h-2.833l2.296 1.661-.88 2.687 2.297-1.66 2.296 1.66-.88-2.687 2.297-1.66H53.13zm-8.574 8.55l-.855-2.687-.88 2.687h-2.833l2.297 1.66-.88 2.688 2.296-1.661 2.272 1.661-.855-2.687 2.272-1.661h-2.834zM24.209 30.779a1.454 1.454 0 0 0-.562-.83c-.269-.196-.61-.294-1.002-.294a1.74 1.74 0 0 0-.952.269c-.294.17-.513.44-.66.806-.171.342-.244.781-.244 1.27 0 .757.17 1.343.537 1.759.342.415.806.61 1.368.61.513 0 .904-.146 1.197-.415.293-.293.464-.66.464-1.148h-1.539v-.953h2.736v.806c0 .587-.122 1.075-.366 1.49a2.745 2.745 0 0 1-1.002.978c-.415.244-.928.342-1.466.342a3.32 3.32 0 0 1-1.636-.416c-.489-.268-.83-.683-1.1-1.197-.268-.513-.39-1.123-.39-1.832 0-.732.146-1.343.415-1.856a3.063 3.063 0 0 1 1.1-1.197 3.05 3.05 0 0 1 1.563-.415c.488 0 .952.097 1.343.293.391.195.733.464 1.002.782.268.341.415.732.488 1.172H24.21v-.024zm4.764 4.567H26.7V28.63h2.32c.66 0 1.247.122 1.71.39.49.27.856.66 1.1 1.149.269.488.39 1.1.39 1.808s-.121 1.294-.39 1.807a2.68 2.68 0 0 1-1.124 1.148c-.488.269-1.05.416-1.734.416zm-1.075-1.05H28.9c1.416 0 2.1-.782 2.1-2.32 0-1.54-.684-2.297-2.076-2.297h-1.026v4.617zm5.472 1.05V28.63h2.54c.513 0 .952.098 1.294.293.342.195.61.464.806.782.171.342.27.708.27 1.148 0 .44-.099.806-.27 1.148-.17.342-.44.586-.806.782-.342.195-.781.293-1.319.293h-1.294v2.271h-1.222zm1.22-3.248h1.124c.464 0 .782-.122 1.002-.342.22-.22.317-.513.317-.88 0-.366-.097-.66-.317-.88-.22-.219-.538-.341-1.002-.341h-1.123v2.443zm4.74 3.248V28.63h2.516c.782 0 1.368.195 1.759.586.415.391.61.904.61 1.564 0 .464-.097.855-.317 1.172-.195.318-.513.562-.904.733l1.441 2.663h-1.367l-1.32-2.468h-1.197v2.468h-1.22zm1.221-3.468h1.124c.44 0 .782-.098 1.002-.293.22-.196.317-.464.317-.806 0-.367-.097-.636-.317-.83-.22-.196-.538-.294-1.002-.294h-1.123v2.223z" fill="#fff"/></svg>