<svg id="a051a970-f00d-497f-bbae-44dee5b20669" data-name="Layer 1" xmlns="http://www.w3.org/2000/svg" xmlns:xlink="http://www.w3.org/1999/xlink" viewBox="0 0 156.46 34.11"><defs><style>.aae8a3bc-53a7-4da6-934d-3eb6b86b3368,.be1d7996-9d2d-4228-835a-33a22dca5001{fill:#fff;}.aae8a3bc-53a7-4da6-934d-3eb6b86b3368{stroke-linecap:round;stroke-linejoin:round;stroke-width:5.5px;stroke:url(#b1d80bf1-400d-48e7-8d96-f4f9d95f39cb);}</style><linearGradient id="b1d80bf1-400d-48e7-8d96-f4f9d95f39cb" x1="229.91" y1="426.57" x2="229.91" y2="426.57" gradientUnits="userSpaceOnUse"><stop offset="0" stop-color="#009da5"/><stop offset="1" stop-color="#2a4292"/></linearGradient></defs><path class="be1d7996-9d2d-4228-835a-33a22dca5001" d="M257.25,401.71a2.42,2.42,0,0,0-2.1-1.22H238.31a2.41,2.41,0,0,0-2.09,1.21l-14.77,25.57-12.59-22H220.1l5.27,9.22,2.89-4.71-4.65-8.13a2.43,2.43,0,0,0-2.11-1.22H204.68a2.43,2.43,0,0,0-2.11,3.63l16.77,29.26a2.43,2.43,0,0,0,2.1,1.22h0a2.41,2.41,0,0,0,2.09-1.21l16.17-28H251l-12.68,21.93-3.93-6.86-2.89,4.71,4.7,8.21a2.44,2.44,0,0,0,2.1,1.22h0a2.41,2.41,0,0,0,2.09-1.21l16.9-29.21A2.43,2.43,0,0,0,257.25,401.71Z" transform="translate(-202.25 -400.44)"/><path class="aae8a3bc-53a7-4da6-934d-3eb6b86b3368" d="M229.91,426.57" transform="translate(-202.25 -400.44)"/><path class="be1d7996-9d2d-4228-835a-33a22dca5001" d="M268.15,411.4l.38-.52h2.84L274,423.15h.29l3.1-12.27h3.92l3.1,12.27h.29l2.58-12.27h2.84l.38.52-3.25,14.71h-5.13l-2.78-11.43-2.76,11.43H271.4Z" transform="translate(-202.25 -400.44)"/><path class="be1d7996-9d2d-4228-835a-33a22dca5001" d="M293,421.53v-6.06q0-4.59,4.59-4.59h8.35v16.45q0,4.57-4.58,4.58h-5.57l-1.51-1.13V429h6.93a1.18,1.18,0,0,0,1.34-1.33v-1.51h-5Q293,426.11,293,421.53Zm3.4.29a1.17,1.17,0,0,0,1.33,1.33h4.82v-9.34H297.7a1.19,1.19,0,0,0-1.33,1.36Z" transform="translate(-202.25 -400.44)"/><path class="be1d7996-9d2d-4228-835a-33a22dca5001" d="M310.06,421.53V406.1h3.39v4.78h5.16v2.93h-5.16v8a1.17,1.17,0,0,0,1.33,1.33h4.12V425l-1.51,1.13h-2.75C311.58,426.11,310.06,424.58,310.06,421.53Z" transform="translate(-202.25 -400.44)"/><path class="be1d7996-9d2d-4228-835a-33a22dca5001" d="M320.61,411.4l.38-.52h2.84l2.58,12.27h.29l3.1-12.27h3.92l3.1,12.27h.29l2.58-12.27h2.84l.38.52-3.25,14.71h-5.13l-2.78-11.43L329,426.11h-5.13Z" transform="translate(-202.25 -400.44)"/><path class="be1d7996-9d2d-4228-835a-33a22dca5001" d="M345.52,421.53v-6.06q0-4.59,4.58-4.59h4.06q4.56,0,4.56,4.59v6.06q0,4.58-4.56,4.58H350.1Q345.53,426.11,345.52,421.53Zm3.39.29a1.18,1.18,0,0,0,1.34,1.33H354a1.19,1.19,0,0,0,1.36-1.33v-6.65a1.2,1.2,0,0,0-1.36-1.36h-3.74a1.2,1.2,0,0,0-1.34,1.36Z" transform="translate(-202.25 -400.44)"/></svg>