<svg xmlns="http://www.w3.org/2000/svg" fill="none" viewBox="80 80 599.53 240">
<circle cx="160" cy="160" r="80" fill="black"/>
<path d="M160 240H240V320H80L160 240Z" fill="black"/>
<path d="M353.096 256.106L320 143.894H353.973L369.315 212.931H370.192L388.384 143.894H415.124L433.316 213.15H434.192L449.535 143.894H483.508L450.412 256.106H421.261L402.192 193.425H401.315L382.247 256.106H353.096Z" fill="black"/>
<path d="M552.39 180.933C551.915 178.997 551.166 177.298 550.144 175.837C549.121 174.34 547.842 173.079 546.308 172.057C544.81 170.997 543.057 170.212 541.048 169.701C539.075 169.153 536.901 168.879 534.527 168.879C529.413 168.879 525.048 170.102 521.431 172.55C517.851 174.997 515.111 178.522 513.212 183.124C511.349 187.727 510.417 193.279 510.417 199.781C510.417 206.356 511.312 211.981 513.102 216.656C514.892 221.332 517.559 224.912 521.102 227.395C524.646 229.879 529.048 231.121 534.308 231.121C538.947 231.121 542.801 230.445 545.87 229.094C548.975 227.742 551.294 225.825 552.828 223.341C554.363 220.857 555.13 217.935 555.13 214.574L560.39 215.122H534.746V193.425H584.5V208.986C584.5 219.213 582.326 227.962 577.979 235.231C573.669 242.463 567.714 248.015 560.116 251.887C552.554 255.722 543.879 257.64 534.089 257.64C523.166 257.64 513.577 255.321 505.321 250.682C497.066 246.043 490.618 239.431 485.979 230.847C481.376 222.263 479.075 212.054 479.075 200.219C479.075 190.941 480.481 182.723 483.294 175.563C486.143 168.404 490.088 162.359 495.13 157.427C500.171 152.46 505.997 148.716 512.609 146.195C519.221 143.638 526.308 142.36 533.869 142.36C540.518 142.36 546.691 143.31 552.39 145.209C558.125 147.072 563.185 149.738 567.568 153.209C571.988 156.642 575.55 160.715 578.253 165.427C580.956 170.139 582.6 175.308 583.185 180.933H552.39Z" fill="black"/>
<path d="M593.395 256.106V234.189L635.258 199.562C638.035 197.26 640.409 195.105 642.382 193.096C644.391 191.051 645.925 188.95 646.984 186.795C648.08 184.64 648.628 182.248 648.628 179.618C648.628 176.732 648.007 174.267 646.765 172.221C645.56 170.175 643.879 168.605 641.724 167.509C639.569 166.377 637.085 165.81 634.272 165.81C631.459 165.81 628.975 166.377 626.82 167.509C624.701 168.641 623.057 170.303 621.888 172.495C620.719 174.687 620.135 177.353 620.135 180.494H591.203C591.203 172.605 592.975 165.81 596.518 160.112C600.062 154.414 605.066 150.031 611.532 146.962C617.998 143.894 625.578 142.36 634.272 142.36C643.258 142.36 651.039 143.803 657.615 146.688C664.227 149.538 669.322 153.556 672.902 158.742C676.519 163.929 678.327 170.011 678.327 176.988C678.327 181.298 677.432 185.59 675.642 189.864C673.852 194.101 670.638 198.795 665.998 203.945C661.359 209.095 654.765 215.232 646.217 222.355L635.697 231.121V231.779H679.533V256.106H593.395Z" fill="black"/>
</svg>